<?xml version="1.0" encoding="UTF-8" standalone="no"?>
<!-- Created with Inkscape (http://www.inkscape.org/) -->

<svg
   xmlns:dc="http://purl.org/dc/elements/1.1/"
   xmlns:cc="http://creativecommons.org/ns#"
   xmlns:rdf="http://www.w3.org/1999/02/22-rdf-syntax-ns#"
   xmlns:svg="http://www.w3.org/2000/svg"
   xmlns="http://www.w3.org/2000/svg"
   xmlns:sodipodi="http://sodipodi.sourceforge.net/DTD/sodipodi-0.dtd"
   xmlns:inkscape="http://www.inkscape.org/namespaces/inkscape"
   sodipodi:docname="Gear24T24mmDia.svg"
   inkscape:version="0.91 r13725"
   version="1.1"
   id="svg5290"
   viewBox="0 0 93.833039 93.767274"
   height="93.767273"
   width="93.833038">
  <sodipodi:namedview
     inkscape:window-maximized="1"
     inkscape:window-y="-8"
     inkscape:window-x="3832"
     inkscape:window-height="1377"
     inkscape:window-width="2560"
     fit-margin-right="1"
     fit-margin-left="1"
     fit-margin-bottom="1"
     fit-margin-top="1"
     units="px"
     showgrid="false"
     inkscape:current-layer="svg5290"
     inkscape:document-units="px"
     inkscape:cy="43.483658"
     inkscape:cx="30.145687"
     inkscape:zoom="11.2"
     inkscape:pageshadow="2"
     inkscape:pageopacity="0.0"
     borderopacity="1.0"
     bordercolor="#666666"
     pagecolor="#ffffff"
     id="base"
     inkscape:showpageshadow="false"
     borderlayer="false" />
  <defs
     id="defs5292">
    <pattern
       patternUnits="userSpaceOnUse"
       width="6.9895937"
       height="6.7249851"
       patternTransform="translate(-990.08474,-371.57204)"
       id="pattern5251">
      <path
         inkscape:transform-center-y="0.31215431"
         inkscape:transform-center-x="-0.040737063"
         d="M 6.9895938,4.0604908 4.587337,4.4980209 3.5858877,6.7249851 2.4274337,4.5755074 4.6282833e-8,4.3112424 1.6862929,2.545262 1.1875056,0.15497299 3.3881459,1.2130148 5.5073121,0 5.1810897,2.4198862 Z"
         inkscape:randomized="0"
         inkscape:rounded="0"
         inkscape:flatsided="false"
         sodipodi:arg2="0.90661819"
         sodipodi:arg1="0.27829966"
         sodipodi:r2="1.8385054"
         sodipodi:r1="3.6770108"
         sodipodi:cy="3.0503383"
         sodipodi:cx="3.4540598"
         sodipodi:sides="5"
         id="path5249"
         style="fill:#0000ff;fill-opacity:1"
         sodipodi:type="star" />
    </pattern>
  </defs>
  <metadata
     id="metadata5295">
    <rdf:RDF>
      <cc:Work
         rdf:about="">
        <dc:format>image/svg+xml</dc:format>
        <dc:type
           rdf:resource="http://purl.org/dc/dcmitype/StillImage" />
        <dc:title />
      </cc:Work>
    </rdf:RDF>
  </metadata>
  <path
     style="fill:#cccccc;fill-opacity:1"
     d="m 46.025006,1.060544 c -1.23515,1.99912 -2.18986,4.21379 -2.58755,6.53774 -0.0421,0.36316 0.0718,0.80487 -0.47288,0.68223 -0.89507,0.095 -1.7893,0.20409 -2.67461,0.36862 -0.88658,-2.44676 -2.60692,-4.46646 -4.43307,-6.27128 -0.5519,0.057 -1.17541,0.23124 -1.68405,0.45114 -0.55145,1.91366 -0.89367,3.89394 -0.79921,5.89146 0.0154,0.58345 0.006,1.1723 0.12189,1.74718 -0.97711,0.35092 -1.92255,0.79905 -2.89341,1.15478 -1.50885,-2.07099 -3.6358,-3.5869 -5.82607,-4.86729 -0.55276,0.18227 -1.1351,0.51303 -1.57157,0.89687 0.0396,2.55079 0.19484,5.19175 1.32743,7.52685 -0.85398,0.59321 -1.67275,1.2348 -2.47715,1.89314 -1.99822,-1.635 -4.45428,-2.60036 -6.939,-3.21585 -0.46525,0.29491 -0.81274,0.79408 -1.23483,1.16385 0.24989,1.29007 0.72326,2.57742 1.24887,3.79981 0.47105,1.1515 1.18674,2.17182 1.86654,3.20197 -0.0443,0.36209 -0.49705,0.655 -0.6796,0.99344 -0.37615,0.49342 -0.77624,0.97036 -1.11937,1.4879 -2.13775,-0.95561 -4.48573,-1.28786 -6.8111701,-1.30308 -0.46121,-0.0891 -0.92919,0.1034 -1.11747,0.5499 -0.20908,0.40988 -0.70161,0.89561 -0.29751,1.35202 1.23604,2.06101 2.69016,4.08816 4.6773901,5.47607 -0.3586,0.94459 -0.76166,1.88524 -1.16978,2.81216 -0.14957,0.19883 -0.4811801,-0.0857 -0.6982401,-0.0149 -2.25681,-0.20185 -4.54654,0.10247 -6.71108,0.74797 -0.51912,0.15113 -0.42002,0.83875 -0.58542,1.24512 -0.15893,0.79752 0.73906,1.22496 1.18792,1.72189 1.44494,1.30286 3.06961,2.42017 4.86799,3.17139 0.21234,0.24453 -0.0797,0.66825 -0.0319,0.96631 -0.12192,0.68893 -0.12728,1.42579 -0.31003,2.09085 -0.8457,0.22417 -1.74721,0.26252 -2.5731,0.59055 -1.59986,0.53552 -3.17251,1.1977 -4.58772,2.12517 -0.0685,0.54728 -0.0381,1.18298 0.0551,1.72642 2.16862,1.34438 4.58174,2.32864 7.12332,2.65503 0.16263,1.02518 0.27407,2.05827 0.43492,3.08384 -2.34203,0.82982 -4.32951,2.43959 -6.01754,4.22573 -0.42914,0.54186 0.0564,1.21951 0.15555,1.7892 1.54221,0.5545 3.22352,0.8153 4.87154,0.92123 0.91823,0.0605 1.84879,-0.0199 2.7503601,-0.15532 0.50121,0.91742 0.80051,1.95208 1.27092,2.87405 -2.0003901,1.4131 -3.5277001,3.41405 -4.7063301,5.53921 -0.43685,0.48934 0.14191,0.96041 0.35087,1.41252 0.14546,0.41921 0.56847,0.52566 0.96713,0.46794 2.3509601,-0.0548 4.7319801,-0.36727 6.9057001,-1.30638 0.60265,0.80827 1.22668,1.63345 1.856,2.40496 -0.56815,0.87103 -1.23938,1.70189 -1.65914,2.67156 -0.65437,1.39165 -1.18564,2.87579 -1.52199,4.35863 0.48955,0.36666 0.84863,1.23857 1.58218,1.10579 2.32284,-0.60808 4.60245,-1.54168 6.50617,-3.02961 0.34221,-0.12566 0.58533,0.41725 0.88776,0.52709 0.55769,0.42461 1.11437,0.85054 1.67136,1.27606 -1.07092,2.27349 -1.31084,4.81899 -1.24553,7.30137 -0.0748,0.58463 0.74545,0.63424 1.08559,0.96271 0.46737,0.4145 0.92442,-0.2789 1.37332,-0.43449 1.72956,-1.02536 3.29412,-2.34772 4.56613,-3.90485 0.14289,-0.21962 0.30039,-0.51549 0.5792,-0.28319 0.85588,0.35971 1.74938,0.7287 2.5941,1.06636 -0.23693,2.37966 -0.11804,4.81351 0.57045,7.11573 -0.0488,0.68774 0.64125,0.68208 1.12764,0.83254 0.57463,0.37829 0.95682,-0.0807 1.30597,-0.505 1.55415,-1.55314 2.887,-3.35445 3.73352,-5.39022 0.4154,-0.32764 1.02476,-0.0211 1.50825,-0.0309 0.5627,0.0715 1.12573,0.14047 1.6886,0.21072 0.11224,2.32579 1.16449,4.47641 2.21192,6.51228 0.2091,0.36292 0.3937,0.87396 0.9211,0.69475 0.47431,-0.0965 1.23699,0.2705 1.41621,-0.36135 1.22776,-2.08289 2.1994,-4.38432 2.45708,-6.79616 1.0096,-0.24198 2.06514,-0.26579 3.08978,-0.44119 0.88047,2.36089 2.49246,4.38529 4.30464,6.10179 0.42781,0.32099 1.00434,-0.15067 1.49151,-0.17079 0.49684,-0.0754 0.38307,-0.76304 0.56634,-1.1298 0.52581,-2.16687 0.77524,-4.44133 0.43299,-6.6572 0.96612,-0.35729 1.91313,-0.7631 2.86063,-1.16646 1.53233,2.07438 3.63317,3.66542 5.8864,4.88595 0.50814,-0.19223 1.05084,-0.50715 1.48089,-0.8388 0.12997,-2.37415 -0.1977,-4.79671 -1.03167,-7.02619 -0.0614,-0.23949 -0.42889,-0.55015 -0.0535,-0.68621 0.78706,-0.55253 1.52975,-1.16468 2.28341,-1.76113 1.99476,1.64762 4.46044,2.59317 6.94493,3.2162 0.44003,-0.34256 0.94981,-0.76663 1.18635,-1.30109 -0.39193,-1.88556 -1.11038,-3.71999 -2.08761,-5.38237 -0.31637,-0.53 -0.69879,-1.01552 -1.07018,-1.5071 0.69573,-0.77183 1.22497,-1.6987 1.9608,-2.42606 2.2811,0.95545 4.78447,1.30056 7.2454,1.29499 0.59012,-0.1425 0.706,-0.89581 1.03228,-1.31992 0.20251,-0.44133 -0.38339,-0.83476 -0.52796,-1.24931 -1.13693,-1.82805 -2.5119,-3.54096 -4.23915,-4.84114 0.23346,-0.82708 0.66256,-1.70179 1.01738,-2.53022 0.081,-0.2837 0.25158,-0.44521 0.54529,-0.30948 2.41623,0.3478 4.87682,-0.0835 7.19796,-0.75858 0.22713,-0.51313 0.38551,-1.12792 0.44905,-1.67603 -1.79642,-1.8086 -3.80769,-3.51354 -6.23413,-4.39749 0.13514,-1.0122 0.26294,-2.04971 0.38836,-3.05804 2.36718,-0.35174 4.64473,-1.21477 6.71526,-2.40566 0.55636,-0.16757 0.63928,-0.63694 0.55454,-1.15461 0.082,-0.52239 0.006,-1.00249 -0.5732,-1.15583 -2.00477,-1.16052 -4.21856,-2.04509 -6.51175,-2.36171 -0.39902,-0.11622 -0.1582,-0.69095 -0.29781,-0.98243 -0.089,-0.70994 -0.20466,-1.4224 -0.27523,-2.13054 2.41659,-0.87963 4.47887,-2.53987 6.19559,-4.42104 0.0564,-0.53053 -0.26096,-1.07273 -0.34284,-1.60138 -0.99007,-0.34635 -2.07642,-0.5484 -3.1257,-0.74027 -1.49066,-0.23256 -3.02216,-0.20011 -4.5091,-0.0494 -0.50949,-0.88526 -0.81078,-1.88587 -1.22332,-2.82035 0.16216,-0.21724 0.52673,-0.36135 0.71881,-0.59338 1.72502,-1.47894 3.09155,-3.33227 4.14831,-5.33488 -0.2168,-0.46934 -0.44397,-1.0511 -0.88815,-1.37381 -0.8551,-0.27123 -1.78241,-0.022 -2.66253,-0.007 -1.66587,0.14094 -3.32336,0.49109 -4.85072,1.18338 -0.64275,-0.80974 -1.24736,-1.65392 -1.91023,-2.44995 1.608,-1.96947 2.6073,-4.38132 3.16145,-6.84413 -0.15319,-0.56673 -0.73347,-0.89672 -1.09288,-1.32656 -1.4972,0.28861 -2.98148,0.8466 -4.3731,1.50716 -0.95452,0.45645 -1.85392,1.02388 -2.67472,1.69178 -0.79432,-0.67994 -1.65636,-1.27443 -2.46826,-1.93202 1.13041,-2.31237 1.27243,-4.95073 1.35045,-7.48012 -0.40254,-0.38222 -0.98277,-0.5918 -1.45072,-0.91047 -1.19126,0.53515 -2.28571,1.3572 -3.33165,2.15977 -1.0127,0.77979 -1.8895,1.71497 -2.66654,2.72461 -0.95379,-0.37656 -1.88086,-0.82133 -2.85417,-1.14868 0.38722,-2.56146 0.0344,-5.19792 -0.71255,-7.66323 -0.49525,-0.21499 -1.10077,-0.37271 -1.63696,-0.4309 -1.86489,1.76691 -3.53849,3.8301 -4.44946,6.25784 -1.0215,-0.21208 -2.09245,-0.22643 -3.09797,-0.46683 -0.24321,-2.54689 -1.33157,-4.93127 -2.61789,-7.11303 -0.53963,-0.0906 -1.21425,-0.0774 -1.75676,-0.003 z m 0.85292,17.28795 c 8.50278,-0.0416 16.89536,3.97271 22.19911,10.61718 2.9742,3.6789 5.02744,8.10381 5.85491,12.7612 -7.02166,0 -14.04331,0 -21.06497,0 -1.38281,-1.92188 -3.59861,-3.12651 -5.91515,-3.49368 -0.43238,-0.26313 -0.57733,-0.92433 -0.89744,-1.34297 -3.23209,-5.63235 -6.53932,-11.22821 -9.68208,-16.90773 3.05373,-1.05951 6.27435,-1.63953 9.50562,-1.634 z m -18.42634,6.93098 c 3.53772,6.00497 6.99255,12.05753 10.48601,18.08837 -0.93081,2.17251 -0.92758,4.68526 -0.0545,6.87523 0.009,0.51206 -0.50942,0.9709 -0.70963,1.46185 -3.25505,5.61769 -6.47111,11.26487 -9.7746,16.84952 -5.0243,-4.17271 -8.44675,-10.2015 -9.57076,-16.62968 -0.50511,-2.66793 -0.5184,-5.42255 -0.29811,-8.121 0.74857,-6.85384 4.02207,-13.42389 9.18668,-18.02869 0.22824,-0.12432 0.51941,-0.62436 0.72241,-0.51592 l 0.0124,0.0203 z m 18.38675,16.1131 c 1.99813,-0.0646 4.07252,1.01487 4.92938,2.86883 0.72269,1.44973 0.72659,3.18767 0.22897,4.7079 -0.55158,1.40344 -1.66223,2.61809 -3.13913,3.07565 -1.34403,0.42652 -2.86481,0.41361 -4.18823,-0.087 -2.13915,-0.83782 -3.44915,-3.20145 -3.23364,-5.45288 0.0414,-2.305 1.76979,-4.52191 4.06127,-4.96687 0.44673,-0.0997 0.88606,-0.14386 1.34138,-0.14561 z m 28.04705,10.93105 c -0.94769,4.79689 -3.11668,9.3809 -6.31696,13.08001 -2.02851,2.24444 -4.27122,4.32774 -6.89809,5.85701 -5.19952,3.17485 -11.42493,4.59775 -17.48127,4.00017 -2.321,-0.20049 -4.61714,-0.73704 -6.81833,-1.49641 3.39829,-6.1252 6.96439,-12.15584 10.45044,-18.23138 2.35857,-0.35954 4.6596,-1.52749 6.04772,-3.51562 7.02055,-4.7e-4 14.0411,-9.3e-4 21.06166,-10e-4 -0.0151,0.10254 -0.0301,0.20508 -0.0452,0.30762 z"
     id="path6434"
     inkscape:connector-curvature="0" />
  <g
     inkscape:label="Layer 1"
     inkscape:groupmode="layer"
     id="layer1"
     transform="translate(308.64381,65.367014)" />
  <path
     inkscape:connector-curvature="0"
     style="fill:none;stroke:#000000;stroke-width:0.60000002"
     d="m 85.693946,43.206234 0.3776,0.0322 0.3792,0.0509 0.3805,0.0668 0.3814,0.0808 0.3821,0.0938 0.3827,0.1059 0.3831,0.1173 0.3834,0.1284 0.3836,0.1389 0.3835,0.1491 0.3835,0.1591 0.3832,0.1689 0.3828,0.1783 0.3824,0.1877 0.3818,0.1968 0.3812,0.2059 0.3803,0.2148 0.3794,0.2236 0.3784,0.2323 0.004,0.2344 0.003,0.2344 0.002,0.2345 6e-4,0.2344 -6e-4,0.2344 -0.002,0.2345 -0.003,0.2344 -0.004,0.2344 -0.3784,0.2323 -0.3794,0.2236 -0.3803,0.2148 -0.3812,0.2059 -0.3818,0.1968 -0.3824,0.1877 -0.3828,0.1783 -0.3832,0.1689 -0.3835,0.1591 -0.3835,0.1491 -0.3836,0.1389 -0.3834,0.1284 -0.3831,0.1173 -0.3827,0.1059 -0.3821,0.0938 -0.3814,0.0808 -0.3805,0.0668 -0.3792,0.0509 -0.3776,0.0322 -0.0352,0.3551 -0.0385,0.3548 -0.0417,0.3543 -0.045,0.354 -0.0482,0.3536 -0.0514,0.3531 -0.0547,0.3526 -0.0578,0.3521 0.3564,0.1289 0.3531,0.1473 0.3502,0.163 0.3475,0.1768 0.3448,0.1895 0.3423,0.2013 0.3397,0.2125 0.3371,0.2232 0.3345,0.2334 0.3319,0.2434 0.3292,0.2529 0.3264,0.2622 0.3237,0.2714 0.3208,0.2803 0.3178,0.2889 0.3149,0.2976 0.3118,0.3059 0.3086,0.3142 0.3054,0.3223 -0.0566,0.2275 -0.0578,0.2272 -0.059,0.2269 -0.0601,0.2266 -0.0612,0.2263 -0.0624,0.2259 -0.0636,0.2257 -0.0647,0.2253 -0.4256,0.1265 -0.4244,0.1177 -0.423,0.1091 -0.4214,0.1002 -0.4198,0.0914 -0.4179,0.0823 -0.416,0.0731 -0.4138,0.0639 -0.4116,0.0545 -0.4091,0.0448 -0.4064,0.0349 -0.4035,0.0247 -0.4005,0.0142 -0.397,0.003 -0.3934,-0.008 -0.3893,-0.0206 -0.3848,-0.034 -0.3795,-0.0489 -0.3731,-0.0667 -0.1259,0.3339 -0.129,0.3327 -0.132,0.3315 -0.135,0.3303 -0.1381,0.3291 -0.1411,0.3277 -0.144,0.3265 -0.1471,0.3251 0.311,0.2167 0.3029,0.2337 0.2961,0.2481 0.2899,0.2607 0.284,0.2723 0.2785,0.283 0.2731,0.2932 0.2679,0.3028 0.2627,0.3121 0.2576,0.3209 0.2525,0.3295 0.2475,0.3379 0.2424,0.3458 0.2373,0.3538 0.2322,0.3614 0.2271,0.3688 0.222,0.3762 0.2168,0.3834 0.2116,0.3904 -0.1136,0.2051 -0.1146,0.2045 -0.1157,0.2039 -0.1167,0.2033 -0.1177,0.2027 -0.1188,0.2022 -0.1198,0.2015 -0.1208,0.2009 -0.4438,0.0119 -0.4404,0.004 -0.4368,-0.004 -0.433,-0.0122 -0.4291,-0.0205 -0.425,-0.0286 -0.4208,-0.037 -0.4163,-0.0454 -0.4116,-0.0539 -0.4067,-0.0626 -0.4016,-0.0715 -0.3962,-0.0806 -0.3905,-0.0899 -0.3844,-0.0997 -0.3778,-0.1098 -0.3707,-0.1207 -0.3628,-0.1324 -0.3539,-0.1455 -0.3432,-0.1609 -0.208,0.2899 -0.2107,0.288 -0.2133,0.286 -0.216,0.2841 -0.2185,0.2821 -0.2211,0.2801 -0.2236,0.278 -0.2262,0.276 0.2442,0.2898 0.2322,0.3042 0.2218,0.3162 0.2125,0.3269 0.2039,0.3365 0.1957,0.3455 0.188,0.3539 0.1803,0.3618 0.173,0.3694 0.1658,0.3767 0.1586,0.3836 0.1516,0.3904 0.1446,0.3968 0.1377,0.4031 0.1308,0.4092 0.1239,0.4151 0.117,0.4208 0.1102,0.4264 0.1033,0.4319 -0.1627,0.1687 -0.1637,0.1678 -0.1645,0.1671 -0.1653,0.1662 -0.1662,0.1653 -0.1671,0.1645 -0.1678,0.1637 -0.1687,0.1627 -0.4319,-0.1033 -0.4264,-0.1102 -0.4208,-0.117 -0.4151,-0.1239 -0.4092,-0.1308 -0.4031,-0.1377 -0.3968,-0.1446 -0.3904,-0.1516 -0.3836,-0.1586 -0.3767,-0.1658 -0.3694,-0.173 -0.3618,-0.1803 -0.3539,-0.188 -0.3455,-0.1957 -0.3365,-0.2039 -0.3269,-0.2125 -0.3162,-0.2218 -0.3042,-0.2322 -0.2898,-0.2442 -0.276,0.2262 -0.278,0.2236 -0.2801,0.2211 -0.2821,0.2185 -0.2841,0.216 -0.286,0.2133 -0.288,0.2107 -0.2899,0.208 0.1609,0.3432 0.1455,0.3539 0.1324,0.3628 0.1207,0.3707 0.1098,0.3778 0.0997,0.3844 0.0899,0.3905 0.0806,0.3962 0.0715,0.4016 0.0626,0.4067 0.0539,0.4116 0.0454,0.4163 0.037,0.4208 0.0286,0.425 0.0205,0.4291 0.0122,0.433 0.004,0.4368 -0.004,0.4404 -0.0119,0.4438 -0.2009,0.1208 -0.2015,0.1198 -0.2022,0.1188 -0.2027,0.1177 -0.2033,0.1167 -0.2039,0.1157 -0.2045,0.1146 -0.2051,0.1136 -0.3904,-0.2116 -0.3834,-0.2168 -0.3762,-0.222 -0.3688,-0.2271 -0.3614,-0.2322 -0.3538,-0.2373 -0.3458,-0.2424 -0.3379,-0.2475 -0.3295,-0.2525 -0.3209,-0.2576 -0.3121,-0.2627 -0.3028,-0.2679 -0.2932,-0.2731 -0.283,-0.2785 -0.2723,-0.284 -0.2607,-0.2899 -0.2481,-0.2961 -0.2337,-0.3029 -0.2167,-0.311 -0.3251,0.1471 -0.3265,0.144 -0.3277,0.1411 -0.3291,0.1381 -0.3303,0.135 -0.3315,0.132 -0.3327,0.129 -0.3339,0.1259 0.0667,0.3731 0.0489,0.3795 0.034,0.3848 0.0206,0.3893 0.008,0.3934 -0.003,0.397 -0.0142,0.4005 -0.0247,0.4035 -0.0349,0.4064 -0.0448,0.4091 -0.0545,0.4116 -0.0639,0.4138 -0.0731,0.416 -0.0823,0.4179 -0.0914,0.4198 -0.1002,0.4214 -0.1091,0.423 -0.1177,0.4244 -0.1265,0.4256 -0.2253,0.0647 -0.2257,0.0636 -0.2259,0.0624 -0.2263,0.0612 -0.2266,0.0601 -0.2269,0.059 -0.2272,0.0578 -0.2275,0.0566 -0.3223,-0.3054 -0.3142,-0.3086 -0.3059,-0.3118 -0.2976,-0.3149 -0.2889,-0.3178 -0.2803,-0.3208 -0.2714,-0.3237 -0.2622,-0.3264 -0.2529,-0.3292 -0.2434,-0.3319 -0.2334,-0.3345 -0.2232,-0.3371 -0.2125,-0.3397 -0.2013,-0.3423 -0.1895,-0.3448 -0.1768,-0.3475 -0.163,-0.3502 -0.1473,-0.3531 -0.1289,-0.3564 -0.3521,0.0578 -0.3526,0.0547 -0.3531,0.0514 -0.3536,0.0482 -0.354,0.045 -0.3543,0.0417 -0.3548,0.0385 -0.3551,0.0352 -0.0322,0.3776 -0.0509,0.3792 -0.0668,0.3805 -0.0808,0.3814 -0.0938,0.3821 -0.1059,0.3827 -0.1173,0.3831 -0.1284,0.3834 -0.1389,0.3836 -0.1491,0.3835 -0.1591,0.3835 -0.1689,0.3832 -0.1783,0.3828 -0.1877,0.3824 -0.1968,0.3818 -0.2059,0.3812 -0.2148,0.3803 -0.2236,0.3794 -0.2323,0.3784 -0.2344,0.004 -0.2344,0.003 -0.2345,0.002 -0.2344,6e-4 -0.2344,-6e-4 -0.2345,-0.002 -0.2344,-0.003 -0.2344,-0.004 -0.2323,-0.3784 -0.2236,-0.3794 -0.2148,-0.3803 -0.2059,-0.3812 -0.1968,-0.3818 -0.1877,-0.3824 -0.1783,-0.3828 -0.1689,-0.3832 -0.1591,-0.3835 -0.1491,-0.3835 -0.1389,-0.3836 -0.1284,-0.3834 -0.1173,-0.3831 -0.1059,-0.3827 -0.0938,-0.3821 -0.0808,-0.3814 -0.0668,-0.3805 -0.0509,-0.3792 -0.0322,-0.3776 -0.3551,-0.0352 -0.3548,-0.0385 -0.3543,-0.0417 -0.354,-0.045 -0.3536,-0.0482 -0.3531,-0.0514 -0.3526,-0.0547 -0.3521,-0.0578 -0.1289,0.3564 -0.1473,0.3531 -0.163,0.3502 -0.1768,0.3475 -0.1895,0.3448 -0.2013,0.3423 -0.2125,0.3397 -0.2232,0.3371 -0.2334,0.3345 -0.2434,0.3319 -0.2529,0.3292 -0.2622,0.3264 -0.2714,0.3237 -0.2803,0.3208 -0.2889,0.3178 -0.2976,0.3149 -0.3059,0.3118 -0.3142,0.3086 -0.3223,0.3054 -0.2275,-0.0566 -0.2272,-0.0578 -0.2269,-0.059 -0.2266,-0.0601 -0.2263,-0.0612 -0.2259,-0.0624 -0.2257,-0.0636 -0.2253,-0.0647 -0.1265,-0.4256 -0.1177,-0.4244 -0.1091,-0.423 -0.1002,-0.4214 -0.0914,-0.4198 -0.0823,-0.4179 -0.0731,-0.416 -0.0639,-0.4138 -0.0545,-0.4116 -0.0448,-0.4091 -0.0349,-0.4064 -0.0247,-0.4035 -0.0142,-0.4005 -0.003,-0.397 0.008,-0.3934 0.0206,-0.3893 0.034,-0.3848 0.0489,-0.3795 0.0667,-0.3731 -0.3339,-0.1259 -0.3327,-0.129 -0.3315,-0.132 -0.3303,-0.135 -0.3291,-0.1381 -0.3277,-0.1411 -0.3265,-0.144 -0.3251,-0.1471 -0.2167,0.311 -0.2337,0.3029 -0.2481,0.2961 -0.2607,0.2899 -0.2723,0.284 -0.283,0.2785 -0.2932,0.2731 -0.3028,0.2679 -0.3121,0.2627 -0.3209,0.2576 -0.3295,0.2525 -0.3379,0.2475 -0.3458,0.2424 -0.3538,0.2373 -0.3614,0.2322 -0.3688,0.2271 -0.3762,0.222 -0.3834,0.2168 -0.3904,0.2116 -0.2051,-0.1136 -0.2045,-0.1146 -0.2039,-0.1157 -0.2033,-0.1167 -0.2027,-0.1177 -0.2022,-0.1188 -0.2015,-0.1198 -0.2009,-0.1208 -0.0119,-0.4438 -0.004,-0.4404 0.004,-0.4368 0.0122,-0.433 0.0205,-0.4291 0.0286,-0.425 0.037,-0.4208 0.0454,-0.4163 0.0539,-0.4116 0.0626,-0.4067 0.0715,-0.4016 0.0806,-0.3962 0.0899,-0.3905 0.0997,-0.3844 0.1098,-0.3778 0.1207,-0.3707 0.1324,-0.3628 0.1455,-0.3539 0.1609,-0.3432 -0.2899,-0.208 -0.288,-0.2107 -0.286,-0.2133 -0.2841,-0.216 -0.2821,-0.2185 -0.2801,-0.2211 -0.278,-0.2236 -0.276,-0.2262 -0.2898,0.2442 -0.3042,0.2322 -0.3162,0.2218 -0.3269,0.2125 -0.3365,0.2039 -0.3455,0.1957 -0.3539,0.188 -0.3618,0.1803 -0.3694,0.173 -0.3767,0.1658 -0.3836,0.1586 -0.3904,0.1516 -0.3968,0.1446 -0.4031,0.1377 -0.4092,0.1308 -0.4151,0.1239 -0.4208,0.117 -0.4264,0.1102 -0.4319,0.1033 -0.1687,-0.1627 -0.1678,-0.1637 -0.1671,-0.1645 -0.1662,-0.1653 -0.1653,-0.1662 -0.1645,-0.1671 -0.1637,-0.1678 -0.1627,-0.1687 0.1033,-0.4319 0.1102,-0.4264 0.117,-0.4208 0.1239,-0.4151 0.1308,-0.4092 0.1377,-0.4031 0.1446,-0.3968 0.1516,-0.3904 0.1586,-0.3836 0.1658,-0.3767 0.173,-0.3694 0.1803,-0.3618 0.188,-0.3539 0.1957,-0.3455 0.2039,-0.3365 0.2125,-0.3269 0.2218,-0.3162 0.2322,-0.3042 0.2442,-0.2898 -0.2262,-0.276 -0.2236,-0.278 -0.2211,-0.2801 -0.2185,-0.2821 -0.216,-0.2841 -0.2133,-0.286 -0.2107,-0.288 -0.208,-0.2899 -0.3432,0.1609 -0.3539,0.1455 -0.3628,0.1324 -0.3707,0.1207 -0.3778,0.1098 -0.3844,0.0997 -0.3905,0.0899 -0.3962,0.0806 -0.4016,0.0715 -0.4067,0.0626 -0.4116,0.0539 -0.4163,0.0454 -0.4208,0.037 -0.4250001,0.0286 -0.4291,0.0205 -0.433,0.0122 -0.4368,0.004 -0.4404,-0.004 -0.4438,-0.0119 -0.1208,-0.2009 -0.1198,-0.2015 -0.1188,-0.2022 -0.1177,-0.2027 -0.1167,-0.2033 -0.1157,-0.2039 -0.1146,-0.2045 -0.1136,-0.2051 0.2116,-0.3904 0.2168,-0.3834 0.222,-0.3762 0.2271,-0.3688 0.2322,-0.3614 0.2373,-0.3538 0.2424,-0.3458 0.2475,-0.3379 0.2525,-0.3295 0.2576,-0.3209 0.2627,-0.3121 0.2679,-0.3028 0.2731,-0.2932 0.2785,-0.283 0.2840001,-0.2723 0.2899,-0.2607 0.2961,-0.2481 0.3029,-0.2337 0.311,-0.2167 -0.1471,-0.3251 -0.144,-0.3265 -0.1411,-0.3277 -0.1381,-0.3291 -0.135,-0.3303 -0.132,-0.3315 -0.129,-0.3327 -0.1259,-0.3339 -0.3731001,0.0667 -0.3795,0.0489 -0.3848,0.034 -0.3893,0.0206 -0.3934,0.008 -0.397,-0.003 -0.4005,-0.0142 -0.4035,-0.0247 -0.4064,-0.0349 -0.4091,-0.0448 -0.4116,-0.0545 -0.4138,-0.0639 -0.416,-0.0731 -0.4179,-0.0823 -0.4198,-0.0914 -0.4214,-0.1002 -0.423,-0.1091 -0.4244,-0.1177 -0.4256,-0.1265 -0.0647,-0.2253 -0.0636,-0.2257 -0.0624,-0.2259 -0.0612,-0.2263 -0.0601,-0.2266 -0.059,-0.2269 -0.0578,-0.2272 -0.0566,-0.2275 0.3054,-0.3223 0.3086,-0.3142 0.3118,-0.3059 0.3149,-0.2976 0.3178,-0.2889 0.3208,-0.2803 0.3237,-0.2714 0.3264,-0.2622 0.3292,-0.2529 0.3319,-0.2434 0.3345,-0.2334 0.3371,-0.2232 0.3397,-0.2125 0.3423,-0.2013 0.3448,-0.1895 0.3475,-0.1768 0.3502,-0.163 0.3531,-0.1473 0.3564,-0.1289 -0.0578,-0.3521 -0.0547,-0.3526 -0.0514,-0.3531 -0.0482,-0.3536 -0.045,-0.354 -0.0417,-0.3543 -0.0385,-0.3548 -0.0352,-0.3551 -0.3776,-0.0322 -0.3792,-0.0509 -0.3805,-0.0668 -0.3814,-0.0808 -0.3821,-0.0938 -0.3827,-0.1059 -0.3831,-0.1173 -0.3834,-0.1284 -0.3836,-0.1389 -0.3835,-0.1491 -0.3835,-0.1591 -0.3832,-0.1689 -0.3828,-0.1783 -0.3824,-0.1877 -0.3818,-0.1968 -0.3812,-0.2059 -0.3803,-0.2148 -0.3794,-0.2236 -0.37839998,-0.2323 -0.004,-0.2344 -0.003,-0.2344 -0.002,-0.2345 -6e-4,-0.2344 6e-4,-0.2344 0.002,-0.2345 0.003,-0.2344 0.004,-0.2344 0.37839998,-0.2323 0.3794,-0.2236 0.3803,-0.2148 0.3812,-0.2059 0.3818,-0.1968 0.3824,-0.1877 0.3828,-0.1783 0.3832,-0.1689 0.3835,-0.1591 0.3835,-0.1491 0.3836,-0.1389 0.3834,-0.1284 0.3831,-0.1173 0.3827,-0.1059 0.3821,-0.0938 0.3814,-0.0808 0.3805,-0.0668 0.3792,-0.0509 0.3776,-0.0322 0.0352,-0.3551 0.0385,-0.3548 0.0417,-0.3543 0.045,-0.354 0.0482,-0.3536 0.0514,-0.3531 0.0547,-0.3526 0.0578,-0.3521 -0.3564,-0.1289 -0.3531,-0.1473 -0.3502,-0.163 -0.3475,-0.1768 -0.3448,-0.1895 -0.3423,-0.2013 -0.3397,-0.2125 -0.3371,-0.2232 -0.3345,-0.2334 -0.3319,-0.2434 -0.3292,-0.2529 -0.3264,-0.2622 -0.3237,-0.2714 -0.3208,-0.2803 -0.3178,-0.2889 -0.3149,-0.2976 -0.3118,-0.3059 -0.3086,-0.3142 -0.3054,-0.3223 0.0566,-0.2275 0.0578,-0.2272 0.059,-0.2269 0.0601,-0.2266 0.0612,-0.2263 0.0624,-0.2259 0.0636,-0.2257 0.0647,-0.2253 0.4256,-0.1265 0.4244,-0.1177 0.423,-0.1091 0.4214,-0.1002 0.4198,-0.0914 0.4179,-0.0823 0.416,-0.0731 0.4138,-0.0639 0.4116,-0.0545 0.4091,-0.0448 0.4064,-0.0349 0.4035,-0.0247 0.4005,-0.0142 0.397,-0.003 0.3934,0.008 0.3893,0.0206 0.3848,0.034 0.3795,0.0489 0.3731001,0.0667 0.1259,-0.3339 0.129,-0.3327 0.132,-0.3315 0.135,-0.3303 0.1381,-0.3291 0.1411,-0.3277 0.144,-0.3265 0.1471,-0.3251 -0.311,-0.2167 -0.3029,-0.2337 -0.2961,-0.2481 -0.2899,-0.2607 -0.2840001,-0.2723 -0.2785,-0.283 -0.2731,-0.2932 -0.2679,-0.3028 -0.2627,-0.3121 -0.2576,-0.3209 -0.2525,-0.3295 -0.2475,-0.3379 -0.2424,-0.3458 -0.2373,-0.3538 -0.2322,-0.3614 -0.2271,-0.3688 -0.222,-0.3762 -0.2168,-0.3834 -0.2116,-0.3904 0.1136,-0.2051 0.1146,-0.2045 0.1157,-0.2039 0.1167,-0.2033 0.1177,-0.2027 0.1188,-0.2022 0.1198,-0.2015 0.1208,-0.2009 0.4438,-0.0119 0.4404,-0.004 0.4368,0.004 0.433,0.0122 0.4291,0.0205 0.4250001,0.0286 0.4208,0.037 0.4163,0.0454 0.4116,0.0539 0.4067,0.0626 0.4016,0.0715 0.3962,0.0806 0.3905,0.0899 0.3844,0.0997 0.3778,0.1098 0.3707,0.1207 0.3628,0.1324 0.3539,0.1455 0.3432,0.1609 0.208,-0.2899 0.2107,-0.288 0.2133,-0.286 0.216,-0.2841 0.2185,-0.2821 0.2211,-0.2801 0.2236,-0.278 0.2262,-0.276 -0.2442,-0.2898 -0.2322,-0.3042 -0.2218,-0.3162 -0.2125,-0.3269 -0.2039,-0.3365 -0.1957,-0.3455 -0.188,-0.3539 -0.1803,-0.3618 -0.173,-0.3694 -0.1658,-0.3767 -0.1586,-0.3836 -0.1516,-0.3904 -0.1446,-0.3968 -0.1377,-0.4031 -0.1308,-0.4092 -0.1239,-0.4151 -0.117,-0.4208 -0.1102,-0.4264 -0.1033,-0.4319 0.1627,-0.1687 0.1637,-0.1678 0.1645,-0.1671 0.1653,-0.1662 0.1662,-0.1653 0.1671,-0.1645 0.1678,-0.1637 0.1687,-0.1627 0.4319,0.1033 0.4264,0.1102 0.4208,0.117 0.4151,0.1239 0.4092,0.1308 0.4031,0.1377 0.3968,0.1446 0.3904,0.1516 0.3836,0.1586 0.3767,0.1658 0.3694,0.173 0.3618,0.1803 0.3539,0.188 0.3455,0.1957 0.3365,0.2039 0.3269,0.2125 0.3162,0.2218 0.3042,0.2322 0.2898,0.2442 0.276,-0.2262 0.278,-0.2236 0.2801,-0.2211 0.2821,-0.2185 0.2841,-0.216 0.286,-0.2133 0.288,-0.2107 0.2899,-0.208 -0.1609,-0.3432 -0.1455,-0.3539 -0.1324,-0.3628 -0.1207,-0.3707 -0.1098,-0.3778 -0.0997,-0.3844 -0.0899,-0.3905 -0.0806,-0.3962 -0.0715,-0.4016 -0.0626,-0.4067 -0.0539,-0.4116 -0.0454,-0.4163 -0.037,-0.4208 -0.0286,-0.425 -0.0205,-0.4291 -0.0122,-0.433 -0.004,-0.4368 0.004,-0.4404 0.0119,-0.4438 0.2009,-0.1208 0.2015,-0.1198 0.2022,-0.1188 0.2027,-0.1177 0.2033,-0.1167 0.2039,-0.1157 0.2045,-0.1146 0.2051,-0.1136 0.3904,0.2116 0.3834,0.2168 0.3762,0.222 0.3688,0.2271 0.3614,0.2322 0.3538,0.2373 0.3458,0.2424 0.3379,0.2475 0.3295,0.2525 0.3209,0.2576 0.3121,0.2627 0.3028,0.2679 0.2932,0.2731 0.283,0.2785 0.2723,0.284 0.2607,0.2899 0.2481,0.2961 0.2337,0.3029 0.2167,0.311 0.3251,-0.1471 0.3265,-0.144 0.3277,-0.1411 0.3291,-0.1381 0.3303,-0.135 0.3315,-0.132 0.3327,-0.129 0.3339,-0.1259 -0.0667,-0.3731 -0.0489,-0.3795 -0.034,-0.3848 -0.0206,-0.3893 -0.008,-0.3934 0.003,-0.397 0.0142,-0.4005 0.0247,-0.4035 0.0349,-0.4064 0.0448,-0.4091 0.0545,-0.4116 0.0639,-0.4138 0.0731,-0.416 0.0823,-0.4179 0.0914,-0.4198 0.1002,-0.4214 0.1091,-0.423 0.1177,-0.4244 0.1265,-0.4256 0.2253,-0.0647 0.2257,-0.0636 0.2259,-0.0624 0.2263,-0.0612 0.2266,-0.0601 0.2269,-0.059 0.2272,-0.0578 0.2275,-0.0566 0.3223,0.3054 0.3142,0.3086 0.3059,0.3118 0.2976,0.3149 0.2889,0.3178 0.2803,0.3208 0.2714,0.3237 0.2622,0.3264 0.2529,0.3292 0.2434,0.3319 0.2334,0.3345 0.2232,0.3371 0.2125,0.3397 0.2013,0.3423 0.1895,0.3448 0.1768,0.3475 0.163,0.3502 0.1473,0.3531 0.1289,0.3564 0.3521,-0.0578 0.3526,-0.0547 0.3531,-0.0514 0.3536,-0.0482 0.354,-0.045 0.3543,-0.0417 0.3548,-0.0385 0.3551,-0.0352 0.0322,-0.3776 0.0509,-0.3792 0.0668,-0.3805 0.0808,-0.3814 0.0938,-0.3821 0.1059,-0.3827 0.1173,-0.3831 0.1284,-0.3834 0.1389,-0.3836 0.1491,-0.3835 0.1591,-0.3835 0.1689,-0.3832 0.1783,-0.3828 0.1877,-0.3824 0.1968,-0.3818 0.2059,-0.3812 0.2148,-0.3803 0.2236,-0.3794 0.2323,-0.37840004 0.2344,-0.004 0.2344,-0.003 0.2345,-0.002 0.2344,-6e-4 0.2344,6e-4 0.2345,0.002 0.2344,0.003 0.2344,0.004 0.2323,0.37840004 0.2236,0.3794 0.2148,0.3803 0.2059,0.3812 0.1968,0.3818 0.1877,0.3824 0.1783,0.3828 0.1689,0.3832 0.1591,0.3835 0.1491,0.3835 0.1389,0.3836 0.1284,0.3834 0.1173,0.3831 0.1059,0.3827 0.0938,0.3821 0.0808,0.3814 0.0668,0.3805 0.0509,0.3792 0.0322,0.3776 0.3551,0.0352 0.3548,0.0385 0.3543,0.0417 0.354,0.045 0.3536,0.0482 0.3531,0.0514 0.3526,0.0547 0.3521,0.0578 0.1289,-0.3564 0.1473,-0.3531 0.163,-0.3502 0.1768,-0.3475 0.1895,-0.3448 0.2013,-0.3423 0.2125,-0.3397 0.2232,-0.3371 0.2334,-0.3345 0.2434,-0.3319 0.2529,-0.3292 0.2622,-0.3264 0.2714,-0.3237 0.2803,-0.3208 0.2889,-0.3178 0.2976,-0.3149 0.3059,-0.3118 0.3142,-0.3086 0.3223,-0.3054 0.2275,0.0566 0.2272,0.0578 0.2269,0.059 0.2266,0.0601 0.2263,0.0612 0.2259,0.0624 0.2257,0.0636 0.2253,0.0647 0.1265,0.4256 0.1177,0.4244 0.1091,0.423 0.1002,0.4214 0.0914,0.4198 0.0823,0.4179 0.0731,0.416 0.0639,0.4138 0.0545,0.4116 0.0448,0.4091 0.0349,0.4064 0.0247,0.4035 0.0142,0.4005 0.003,0.397 -0.008,0.3934 -0.0206,0.3893 -0.034,0.3848 -0.0489,0.3795 -0.0667,0.3731 0.3339,0.1259 0.3327,0.129 0.3315,0.132 0.3303,0.135 0.3291,0.1381 0.3277,0.1411 0.3265,0.144 0.3251,0.1471 0.2167,-0.311 0.2337,-0.3029 0.2481,-0.2961 0.2607,-0.2899 0.2723,-0.284 0.283,-0.2785 0.2932,-0.2731 0.3028,-0.2679 0.3121,-0.2627 0.3209,-0.2576 0.3295,-0.2525 0.3379,-0.2475 0.3458,-0.2424 0.3538,-0.2373 0.3614,-0.2322 0.3688,-0.2271 0.3762,-0.222 0.3834,-0.2168 0.3904,-0.2116 0.2051,0.1136 0.2045,0.1146 0.2039,0.1157 0.2033,0.1167 0.2027,0.1177 0.2022,0.1188 0.2015,0.1198 0.2009,0.1208 0.0119,0.4438 0.004,0.4404 -0.004,0.4368 -0.0122,0.433 -0.0205,0.4291 -0.0286,0.425 -0.037,0.4208 -0.0454,0.4163 -0.0539,0.4116 -0.0626,0.4067 -0.0715,0.4016 -0.0806,0.3962 -0.0899,0.3905 -0.0997,0.3844 -0.1098,0.3778 -0.1207,0.3707 -0.1324,0.3628 -0.1455,0.3539 -0.1609,0.3432 0.2899,0.208 0.288,0.2107 0.286,0.2133 0.2841,0.216 0.2821,0.2185 0.2801,0.2211 0.278,0.2236 0.276,0.2262 0.2898,-0.2442 0.3042,-0.2322 0.3162,-0.2218 0.3269,-0.2125 0.3365,-0.2039 0.3455,-0.1957 0.3539,-0.188 0.3618,-0.1803 0.3694,-0.173 0.3767,-0.1658 0.3836,-0.1586 0.3904,-0.1516 0.3968,-0.1446 0.4031,-0.1377 0.4092,-0.1308 0.4151,-0.1239 0.4208,-0.117 0.4264,-0.1102 0.4319,-0.1033 0.1687,0.1627 0.1678,0.1637 0.1671,0.1645 0.1662,0.1653 0.1653,0.1662 0.1645,0.1671 0.1637,0.1678 0.1627,0.1687 -0.1033,0.4319 -0.1102,0.4264 -0.117,0.4208 -0.1239,0.4151 -0.1308,0.4092 -0.1377,0.4031 -0.1446,0.3968 -0.1516,0.3904 -0.1586,0.3836 -0.1658,0.3767 -0.173,0.3694 -0.1803,0.3618 -0.188,0.3539 -0.1957,0.3455 -0.2039,0.3365 -0.2125,0.3269 -0.2218,0.3162 -0.2322,0.3042 -0.2442,0.2898 0.2262,0.276 0.2236,0.278 0.2211,0.2801 0.2185,0.2821 0.216,0.2841 0.2133,0.286 0.2107,0.288 0.208,0.2899 0.3432,-0.1609 0.3539,-0.1455 0.3628,-0.1324 0.3707,-0.1207 0.3778,-0.1098 0.3844,-0.0997 0.3905,-0.0899 0.3962,-0.0806 0.4016,-0.0715 0.4067,-0.0626 0.4116,-0.0539 0.4163,-0.0454 0.4208,-0.037 0.425,-0.0286 0.4291,-0.0205 0.433,-0.0122 0.4368,-0.004 0.4404,0.004 0.4438,0.0119 0.1208,0.2009 0.1198,0.2015 0.1188,0.2022 0.1177,0.2027 0.1167,0.2033 0.1157,0.2039 0.1146,0.2045 0.1136,0.2051 -0.2116,0.3904 -0.2168,0.3834 -0.222,0.3762 -0.2271,0.3688 -0.2322,0.3614 -0.2373,0.3538 -0.2424,0.3458 -0.2475,0.3379 -0.2525,0.3295 -0.2576,0.3209 -0.2627,0.3121 -0.2679,0.3028 -0.2731,0.2932 -0.2785,0.283 -0.284,0.2723 -0.2899,0.2607 -0.2961,0.2481 -0.3029,0.2337 -0.311,0.2167 0.1471,0.3251 0.144,0.3265 0.1411,0.3277 0.1381,0.3291 0.135,0.3303 0.132,0.3315 0.129,0.3327 0.1259,0.3339 0.3731,-0.0667 0.3795,-0.0489 0.3848,-0.034 0.3893,-0.0206 0.3934,-0.008 0.397,0.003 0.4005,0.0142 0.4035,0.0247 0.4064,0.0349 0.4091,0.0448 0.4116,0.0545 0.4138,0.0639 0.416,0.0731 0.4179,0.0823 0.4198,0.0914 0.4214,0.1002 0.423,0.1091 0.4244,0.1177 0.4256,0.1265 0.0647,0.2253 0.0636,0.2257 0.0624,0.2259 0.0612,0.2263 0.0601,0.2266 0.059,0.2269 0.0578,0.2272 0.0566,0.2275 -0.3054,0.3223 -0.3086,0.3142 -0.3118,0.3059 -0.3149,0.2976 -0.3178,0.2889 -0.3208,0.2803 -0.3237,0.2714 -0.3264,0.2622 -0.3292,0.2529 -0.3319,0.2434 -0.3345,0.2334 -0.3371,0.2232 -0.3397,0.2125 -0.3423,0.2013 -0.3448,0.1895 -0.3475,0.1768 -0.3502,0.163 -0.3531,0.1473 -0.3564,0.1289 0.0578,0.3521 0.0547,0.3526 0.0514,0.3531 0.0482,0.3536 0.045,0.354 0.0417,0.3543 0.0385,0.3548 z m -31.71669,8.98416 a 8.858268,8.858268 0 0 1 -6.02703,3.47971 l -10.37855,17.97618 a 28.346457,28.346457 0 0 0 37.16269,-21.45589 z m -15.23281,-1.83525 a 8.858268,8.858268 0 0 1 0,-6.95942 l -10.37855,-17.97618 a 28.346457,28.346457 0 0 0 0,42.91178 z m 9.20578,-12.27438 a 8.858268,8.858268 0 0 1 6.02703,3.47971 l 20.75711,0 a 28.346457,28.346457 0 0 0 -37.16269,-21.45589 z m -1.05958,14.10963 a 5.314961,5.314961 0 0 0 0,-10.62992 5.314961,5.314961 0 1 0 0,10.62992"
     id="path6379" />
  <path
     style="fill:#0000ff;fill-opacity:1"
     d="m 28.245986,25.861744 c -0.99075,0.70044 -1.78091,1.66976 -2.61848,2.54574 -4.61839,5.2763 -7.16881,12.34571 -6.84843,19.36251 0.11519,6.70932 2.85107,13.31396 7.43317,18.20641 0.67133,0.6924 1.33351,1.42859 2.06705,2.03709 0.94501,-1.3938 1.71793,-2.93671 2.59569,-4.38781 2.52061,-4.39177 5.0897,-8.76058 7.57189,-13.17148 0.0184,-0.67657 -0.39883,-1.30419 -0.4274,-1.98083 -0.24287,-1.66129 -0.15957,-3.43806 0.50814,-5.01031 -1.2898,-2.41654 -2.73508,-4.78418 -4.09068,-7.17846 -2.02489,-3.4673 -3.9957,-6.96985 -6.09103,-10.39426 -0.027,-0.0269 -0.0648,-0.0353 -0.0999,-0.0286 z"
     id="path6430"
     inkscape:connector-curvature="0" />
  <path
     style="fill:#ff0000;fill-opacity:1"
     d="m 54.131696,52.381694 c -1.50738,1.71961 -3.52219,3.05446 -5.80375,3.42059 -0.62202,0.45851 -0.88707,1.26993 -1.32703,1.88922 -3.03214,5.21575 -6.07069,10.43299 -9.02139,15.69291 0.15103,0.39808 0.74554,0.38111 1.08484,0.54601 5.25308,1.52153 10.95086,1.49388 16.17098,-0.15393 7.28452,-2.26712 13.58744,-7.59237 16.91362,-14.47389 1.0872,-2.15894 1.83932,-4.47081 2.3533,-6.82918 -0.39019,-0.27571 -1.10046,-0.0463 -1.61552,-0.12155 -6.22791,0 -12.45582,0 -18.68373,0 l -0.0713,0.0298 z"
     id="path6432"
     inkscape:connector-curvature="0" />
  <path
     style="fill:#ffffff;fill-opacity:1"
     d="m 46.534219,18.706118 c -2.850658,0.05612 -5.719689,0.485741 -8.411168,1.439209 -0.415193,0.193779 0.142142,0.61833 0.195958,0.87097 3.222792,5.603071 6.424982,11.222572 9.717198,16.782838 0.626527,0.347624 1.406008,0.295168 2.04834,0.635812 1.53431,0.622675 2.932279,1.583741 3.958915,2.89638 3.045991,0.08015 6.124248,0.01146 9.182651,0.03435 3.69612,-0.03104 7.397456,0.06448 11.090263,-0.08946 0.347163,-0.1332 -0.06053,-0.647149 -0.02529,-0.903844 -1.676243,-7.21645 -6.34968,-13.683246 -12.704381,-17.500697 -4.490103,-2.779005 -9.77243,-4.240168 -15.05249,-4.165562 z"
     id="path5858"
     inkscape:connector-curvature="0" />
</svg>
