<?xml version="1.0" encoding="UTF-8" standalone="no"?>
<!-- Created with Inkscape (http://www.inkscape.org/) -->

<svg
   xmlns:dc="http://purl.org/dc/elements/1.1/"
   xmlns:cc="http://creativecommons.org/ns#"
   xmlns:rdf="http://www.w3.org/1999/02/22-rdf-syntax-ns#"
   xmlns:svg="http://www.w3.org/2000/svg"
   xmlns="http://www.w3.org/2000/svg"
   xmlns:sodipodi="http://sodipodi.sourceforge.net/DTD/sodipodi-0.dtd"
   xmlns:inkscape="http://www.inkscape.org/namespaces/inkscape"
   width="302.93079"
   height="20.316498"
   viewBox="0 0 302.9308 20.316498"
   id="svg2"
   version="1.1"
   inkscape:version="0.91 r13725"
   sodipodi:docname="Rack24Tbase.svg">
  <sodipodi:namedview
     id="base"
     pagecolor="#ffffff"
     bordercolor="#666666"
     borderopacity="1.0"
     inkscape:pageopacity="0.0"
     inkscape:pageshadow="2"
     inkscape:zoom="0.24748737"
     inkscape:cx="-1775.9391"
     inkscape:cy="-924.87176"
     inkscape:document-units="px"
     inkscape:current-layer="layer1"
     showgrid="false"
     inkscape:window-width="2560"
     inkscape:window-height="1377"
     inkscape:window-x="3832"
     inkscape:window-y="-8"
     inkscape:window-maximized="1"
     fit-margin-top="1"
     fit-margin-left="1"
     fit-margin-right="1"
     fit-margin-bottom="1"
     units="px" />
  <defs
     id="defs4" />
  <metadata
     id="metadata7">
    <rdf:RDF>
      <cc:Work
         rdf:about="">
        <dc:format>image/svg+xml</dc:format>
        <dc:type
           rdf:resource="http://purl.org/dc/dcmitype/StillImage" />
        <dc:title></dc:title>
      </cc:Work>
    </rdf:RDF>
  </metadata>
  <g
     transform="translate(-113.20477,-505.04157)"
     inkscape:label="Layer 1"
     inkscape:groupmode="layer"
     id="layer1">
    <g
       inkscape:label="RackGear24"
       transform="translate(259.10437,509.88481)"
       id="g4750">
      <path
         inkscape:connector-curvature="0"
         style="fill:none;stroke:#000000;stroke-width:0.60000002"
         d="m -144.5996,14.1732 0,-10.6299 17.7165,0 3.3046,-7.0866 2.2612,0 3.3046,7.0866 2.2612,0 3.3046,-7.0866 2.2613,0 3.3045,7.0866 2.2613,0 3.3045,-7.0866 2.2613,0 3.3045,7.0866 2.2613,0 3.3045,-7.0866 2.2613,0 3.3046,7.0866 2.2612,0 3.3046,-7.0866 2.2612,0 3.3046,7.0866 2.2613,0 3.3045,-7.0866 2.2613,0 3.3045,7.0866 2.2613,0 3.3045,-7.0866 2.2613,0 3.3045,7.0866 2.2613,0 3.3046,-7.0866 2.2612,0 3.3046,7.0866 2.2612,0 3.3046,-7.0866 2.2613,0 3.3045,7.0866 2.2613,0 3.3045,-7.0866 2.2613,0 3.3045,7.0866 2.2613,0 3.3045,-7.0866 2.2613,0 3.3046,7.0866 2.2612,0 3.3046,-7.0866 2.2612,0 3.3046,7.0866 2.2612,0 3.3046,-7.0866 2.2613,0 3.3045,7.0866 2.2613,0 3.3045,-7.0866 2.2613,0 3.3045,7.0866 2.2613,0 3.3045,-7.0866 2.2613,0 3.3046,7.0866 2.2612,0 3.3046,-7.0866 2.2612,0 3.3046,7.0866 2.2613,0 3.3045,-7.0866 2.2613,0 3.3045,7.0866 2.2613,0 3.3045,-7.0866 2.2613,0 3.3045,7.0866 2.2613,0 3.3046,-7.0866 2.2612,0 3.3046,7.0866 2.2612,0 3.3046,-7.0866 2.2613,0 3.3045,7.0866 2.2613,0 3.3045,-7.0866 2.2613,0 3.3045,7.0866 2.2613,0 3.3045,-7.0866 2.2613,0 3.3046,7.0866 2.2612,0 3.3046,-7.0866 2.2612,0 3.3046,7.0866 2.2613,0 3.3045,-7.0866 2.2613,0 3.3045,7.0866 17.7165,0 0,10.6299 z"
         id="path4752" />
    </g>
  </g>
</svg>
