<?xml version="1.0" encoding="UTF-8" standalone="no"?>
<!-- Created with Inkscape (http://www.inkscape.org/) -->

<svg
   xmlns:dc="http://purl.org/dc/elements/1.1/"
   xmlns:cc="http://creativecommons.org/ns#"
   xmlns:rdf="http://www.w3.org/1999/02/22-rdf-syntax-ns#"
   xmlns:svg="http://www.w3.org/2000/svg"
   xmlns="http://www.w3.org/2000/svg"
   xmlns:sodipodi="http://sodipodi.sourceforge.net/DTD/sodipodi-0.dtd"
   xmlns:inkscape="http://www.inkscape.org/namespaces/inkscape"
   width="215.1974"
   height="212.86417"
   viewBox="0 0 215.19741 212.86416"
   id="svg2"
   version="1.1"
   inkscape:version="0.91 r13725"
   sodipodi:docname="Gear18.svg">
  <sodipodi:namedview
     id="base"
     pagecolor="#ffffff"
     bordercolor="#666666"
     borderopacity="1.0"
     inkscape:pageopacity="0.0"
     inkscape:pageshadow="2"
     inkscape:zoom="1.4"
     inkscape:cx="267.77392"
     inkscape:cy="100.42089"
     inkscape:document-units="px"
     inkscape:current-layer="layer1"
     showgrid="false"
     inkscape:window-width="2560"
     inkscape:window-height="1377"
     inkscape:window-x="3832"
     inkscape:window-y="-8"
     inkscape:window-maximized="1"
     units="px"
     fit-margin-top="1"
     fit-margin-bottom="1"
     fit-margin-right="1"
     fit-margin-left="1" />
  <defs
     id="defs4" />
  <metadata
     id="metadata7">
    <rdf:RDF>
      <cc:Work
         rdf:about="">
        <dc:format>image/svg+xml</dc:format>
        <dc:type
           rdf:resource="http://purl.org/dc/dcmitype/StillImage" />
        <dc:title></dc:title>
      </cc:Work>
    </rdf:RDF>
  </metadata>
  <g
     transform="translate(391.41939,175.80168)"
     inkscape:label="Layer 1"
     inkscape:groupmode="layer"
     id="layer1">
    <path
       inkscape:connector-curvature="0"
       style="fill:none;stroke:#000000;stroke-width:0.60000002"
       d="m -197.71039,-79.5118 1.0366,-0.0146 1.0467,0.0751 1.0531,0.1357 1.0578,0.186 1.0616,0.2309 1.0644,0.272 1.0666,0.3107 1.0681,0.3473 1.0691,0.3826 1.0695,0.4164 1.0693,0.4495 1.0688,0.4815 1.0676,0.5131 1.0661,0.5438 1.064,0.5742 1.0615,0.604 1.0585,0.6334 1.0551,0.6625 1.0513,0.6912 0.0144,0.6617 0.0103,0.6617 0.006,0.6618 0.002,0.6618 -0.002,0.6618 -0.006,0.6618 -0.0103,0.6617 -0.0144,0.6617 -1.0513,0.6912 -1.0551,0.6625 -1.0585,0.6334 -1.0615,0.604 -1.064,0.5742 -1.0661,0.5438 -1.0676,0.5131 -1.0688,0.4815 -1.0693,0.4495 -1.0695,0.4164 -1.0691,0.3826 -1.0681,0.3473 -1.0666,0.3107 -1.0644,0.272 -1.0616,0.2309 -1.0578,0.186 -1.0531,0.1357 -1.0467,0.0751 -1.0366,-0.0146 -1.655,-0.195 -0.1512,1.2086 -0.1684,1.2063 -0.1857,1.2038 -0.2029,1.2009 -0.2201,1.198 -0.2372,1.1946 -0.2543,1.1912 -0.2713,1.1874 1.6219,0.3828 0.979,0.3408 0.9579,0.4286 0.9432,0.4877 0.9304,0.5366 0.9186,0.58 0.9072,0.6197 0.896,0.6567 0.8849,0.6917 0.8738,0.7251 0.8625,0.7572 0.8512,0.788 0.8396,0.8181 0.8278,0.8473 0.8157,0.8756 0.8035,0.9035 0.7909,0.9306 0.778,0.9573 0.7649,0.9834 0.7514,1.0091 -0.2127,0.6267 -0.2167,0.6253 -0.2205,0.624 -0.2244,0.6226 -0.2283,0.6212 -0.2321,0.6197 -0.2361,0.6183 -0.2398,0.6168 -1.2242,0.29 -1.2181,0.2617 -1.2113,0.2332 -1.2041,0.2045 -1.1962,0.1757 -1.1878,0.1464 -1.1787,0.1169 -1.169,0.087 -1.1586,0.0566 -1.1475,0.0256 -1.1354,-0.0062 -1.1225,-0.039 -1.1085,-0.0728 -1.0933,-0.1084 -1.0765,-0.1461 -1.0576,-0.187 -1.036,-0.2328 -1.0093,-0.2873 -0.9691,-0.3683 -1.4885,-0.7492 -0.5554,1.084 -0.5708,1.0759 -0.5862,1.0676 -0.6014,1.0592 -0.6166,1.0504 -0.6315,1.0415 -0.6464,1.0323 -0.661,1.023 1.3931,0.9145 0.8034,0.6551 0.7536,0.7304 0.7195,0.7808 0.6908,0.8225 0.6648,0.8592 0.6405,0.8926 0.6174,0.9235 0.5949,0.9527 0.5731,0.9802 0.5516,1.0065 0.5303,1.0317 0.5091,1.0559 0.4881,1.0792 0.4671,1.1019 0.446,1.1238 0.4249,1.145 0.4037,1.1656 0.3824,1.1857 0.361,1.2052 -0.4143,0.5162 -0.4174,0.5135 -0.4207,0.5109 -0.4238,0.5083 -0.427,0.5057 -0.4301,0.5029 -0.4332,0.5003 -0.4364,0.4976 -1.2495,-0.1462 -1.2341,-0.1707 -1.2181,-0.1951 -1.2014,-0.2197 -1.1841,-0.2441 -1.1663,-0.2686 -1.1476,-0.2933 -1.1283,-0.3181 -1.1081,-0.343 -1.0869,-0.3685 -1.0649,-0.3941 -1.0414,-0.4205 -1.0168,-0.4476 -0.9903,-0.4758 -0.9615,-0.5055 -0.93,-0.5374 -0.8939,-0.5731 -0.8501,-0.6152 -0.7847,-0.6775 -1.1425,-1.2132 -0.8926,0.8287 -0.9044,0.8158 -0.916,0.8028 -0.9274,0.7895 -0.9387,0.7762 -0.9496,0.7627 -0.9605,0.749 -0.9711,0.7352 0.9964,1.3358 0.5309,0.8904 0.4583,0.9441 0.4091,0.9798 0.3678,1.0091 0.3309,1.0348 0.2965,1.0578 0.2643,1.0791 0.2332,1.0986 0.2033,1.1171 0.1741,1.1345 0.1454,1.1508 0.1174,1.1664 0.0895,1.1811 0.062,1.1952 0.0348,1.2085 0.008,1.2213 -0.0193,1.2334 -0.0462,1.245 -0.073,1.256 -0.5658,0.3433 -0.568,0.3398 -0.57,0.3362 -0.5721,0.3327 -0.5742,0.3291 -0.5762,0.3256 -0.5782,0.3219 -0.5802,0.3183 -1.1242,-0.5647 -1.1013,-0.5825 -1.0779,-0.6 -1.0538,-0.6173 -1.0292,-0.6343 -1.0041,-0.6514 -0.9781,-0.6681 -0.9514,-0.6848 -0.9239,-0.7013 -0.8954,-0.718 -0.8658,-0.7346 -0.8349,-0.7513 -0.8023,-0.7684 -0.7679,-0.7858 -0.7307,-0.8039 -0.69,-0.8231 -0.644,-0.8442 -0.5885,-0.8689 -0.5056,-0.905 -0.6587,-1.5308 -1.1222,0.4735 -1.1289,0.4572 -1.1353,0.4411 -1.1415,0.4248 -1.1475,0.4083 -1.1532,0.3919 -1.1587,0.3754 -1.164,0.3587 0.4793,1.596 0.1944,1.0183 0.1078,1.0439 0.0493,1.0606 5e-4,1.0741 -0.043,1.0855 -0.0831,1.0955 -0.1208,1.1043 -0.1566,1.1122 -0.191,1.1193 -0.2244,1.1255 -0.257,1.1312 -0.2886,1.1361 -0.3199,1.1406 -0.3504,1.1443 -0.3807,1.1475 -0.4105,1.1503 -0.44,1.1524 -0.4692,1.1541 -0.4982,1.1553 -0.6491,0.1291 -0.6499,0.125 -0.6506,0.121 -0.6514,0.117 -0.6521,0.1129 -0.6528,0.1088 -0.6535,0.1048 -0.6541,0.1007 -0.8633,-0.9152 -0.8356,-0.9241 -0.8076,-0.9324 -0.7792,-0.9405 -0.7502,-0.9481 -0.7207,-0.9555 -0.6906,-0.9623 -0.6599,-0.9689 -0.6283,-0.9751 -0.5958,-0.9809 -0.5624,-0.9864 -0.5275,-0.9916 -0.4912,-0.9964 -0.4528,-1.001 -0.4117,-1.0054 -0.3669,-1.0094 -0.3164,-1.0136 -0.2558,-1.0178 -0.1655,-1.0233 -0.0955,-1.6638 -1.2164,0.0611 -1.2172,0.0436 -1.2177,0.0261 -1.218,0.0088 -1.218,-0.0088 -1.2177,-0.0261 -1.2172,-0.0436 -1.2164,-0.0611 -0.0955,1.6638 -0.1655,1.0233 -0.2558,1.0178 -0.3164,1.0136 -0.3669,1.0094 -0.4117,1.0054 -0.4528,1.001 -0.4912,0.9964 -0.5275,0.9916 -0.5624,0.9864 -0.5958,0.9809 -0.6283,0.9751 -0.6599,0.9689 -0.6906,0.9623 -0.7207,0.9555 -0.7502,0.9481 -0.7792,0.9405 -0.8076,0.9324 -0.8356,0.9241 -0.8633,0.9152 -0.6541,-0.1007 -0.6535,-0.1048 -0.6528,-0.1088 -0.6521,-0.1129 -0.6514,-0.117 -0.6506,-0.121 -0.6499,-0.125 -0.6491,-0.1291 -0.4982,-1.1553 -0.4692,-1.1541 -0.44,-1.1524 -0.4105,-1.1503 -0.3807,-1.1475 -0.3504,-1.1443 -0.3199,-1.1406 -0.2886,-1.1361 -0.257,-1.1312 -0.2244,-1.1255 -0.191,-1.1193 -0.1566,-1.1122 -0.1208,-1.1043 -0.0831,-1.0955 -0.043,-1.0855 5e-4,-1.0741 0.0493,-1.0606 0.1078,-1.0439 0.1944,-1.0183 0.4793,-1.596 -1.164,-0.3587 -1.1587,-0.3754 -1.1532,-0.3919 -1.1475,-0.4083 -1.1415,-0.4248 -1.1353,-0.4411 -1.1289,-0.4572 -1.1222,-0.4735 -0.6587,1.5308 -0.5056,0.905 -0.5885,0.8689 -0.644,0.8442 -0.69,0.8231 -0.7307,0.8039 -0.7679,0.7858 -0.8023,0.7684 -0.8349,0.7513 -0.8658,0.7346 -0.8954,0.718 -0.9239,0.7013 -0.9514,0.6848 -0.9781,0.6681 -1.0041,0.6514 -1.0292,0.6343 -1.0538,0.6173 -1.0779,0.6 -1.1013,0.5825 -1.1242,0.5647 -0.5802,-0.3183 -0.5782,-0.3219 -0.5762,-0.3256 -0.5742,-0.3291 -0.5721,-0.3327 -0.57,-0.3362 -0.568,-0.3398 -0.5658,-0.3433 -0.073,-1.256 -0.0462,-1.245 -0.0193,-1.2334 0.008,-1.2213 0.0348,-1.2085 0.062,-1.1952 0.0895,-1.1811 0.1174,-1.1664 0.1454,-1.1508 0.1741,-1.1345 0.2033,-1.1171 0.2332,-1.0986 0.2643,-1.0791 0.2965,-1.0578 0.3309,-1.0348 0.3678,-1.0091 0.4091,-0.9798 0.4583,-0.9441 0.5309,-0.8904 0.9964,-1.3358 -0.9711,-0.7352 -0.9605,-0.749 -0.9496,-0.7627 -0.9387,-0.7762 -0.9274,-0.7895 -0.916,-0.8028 -0.9044,-0.8158 -0.8926,-0.8287 -1.1425,1.2132 -0.7847,0.6775 -0.8501,0.6152 -0.8939,0.5731 -0.93,0.5374 -0.9615,0.5055 -0.9903,0.4758 -1.0168,0.4476 -1.0414,0.4205 -1.0649,0.3941 -1.0869,0.3685 -1.1081,0.343 -1.1283,0.3181 -1.1476,0.2933 -1.1663,0.2686 -1.1841,0.2441 -1.2014,0.2197 -1.2181,0.1951 -1.2341,0.1707 -1.2495,0.1462 -0.4364,-0.4976 -0.4332,-0.5003 -0.4301,-0.5029 -0.427,-0.5057 -0.4238,-0.5083 -0.4207,-0.5109 -0.4174,-0.5135 -0.4143,-0.5162 0.361,-1.2052 0.3824,-1.1857 0.4037,-1.1656 0.4249,-1.145 0.446,-1.1238 0.4671,-1.1019 0.4881,-1.0792 0.5091,-1.0559 0.5303,-1.0317 0.5516,-1.0065 0.5731,-0.9802 0.5949,-0.9527 0.6174,-0.9235 0.6405,-0.8926 0.6648,-0.8592 0.6908,-0.8225 0.7195,-0.7808 0.7536,-0.7304 0.8034,-0.6551 1.3931,-0.9145 -0.661,-1.023 -0.6464,-1.0323 -0.6315,-1.0415 -0.6166,-1.0504 -0.6014,-1.0592 -0.5862,-1.0676 -0.5708,-1.0759 -0.5554,-1.084 -1.4885,0.7492 -0.9691,0.3683 -1.0093,0.2873 -1.036,0.2328 -1.0576,0.187 -1.0765,0.1461 -1.0933,0.1084 -1.1085,0.0728 -1.1225,0.039 -1.1354,0.0062 -1.1475,-0.0256 -1.1586,-0.0566 -1.169,-0.087 -1.1787,-0.1169 -1.1878,-0.1464 -1.1962,-0.1757 -1.2041,-0.2045 -1.2113,-0.2332 -1.2181,-0.2617 -1.2242,-0.29 -0.2398,-0.6168 -0.2361,-0.6183 -0.2321,-0.6197 -0.2283,-0.6212 -0.2244,-0.6226 -0.2205,-0.624 -0.2167,-0.6253 -0.2127,-0.6267 0.7514,-1.0091 0.7649,-0.9834 0.778,-0.9573 0.7909,-0.9306 0.8035,-0.9035 0.8157,-0.8756 0.8278,-0.8473 0.8396,-0.8181 0.8512,-0.788 0.8625,-0.7572 0.8738,-0.7251 0.8849,-0.6917 0.896,-0.6567 0.9072,-0.6197 0.9186,-0.58 0.9304,-0.5366 0.9432,-0.4877 0.9579,-0.4286 0.979,-0.3408 1.6219,-0.3828 -0.2713,-1.1874 -0.2543,-1.1912 -0.2372,-1.1946 -0.2201,-1.198 -0.2029,-1.2009 -0.1857,-1.2038 -0.1684,-1.2063 -0.1512,-1.2086 -1.655,0.195 -1.0366,0.0146 -1.0467,-0.0751 -1.0531,-0.1357 -1.0578,-0.186 -1.0616,-0.2309 -1.0644,-0.272 -1.0666,-0.3107 -1.0681,-0.3473 -1.0691,-0.3826 -1.0695,-0.4164 -1.0693,-0.4495 -1.0688,-0.4815 -1.0676,-0.5131 -1.0661,-0.5438 -1.064,-0.5742 -1.0615,-0.604 -1.0585,-0.6334 -1.0551,-0.6625 -1.0513,-0.6912 -0.0144,-0.6617 -0.0103,-0.6617 -0.006,-0.6618 -0.002,-0.6618 0.002,-0.6618 0.006,-0.6618 0.0103,-0.6617 0.0144,-0.6617 1.0513,-0.6912 1.0551,-0.6625 1.0585,-0.6334 1.0615,-0.604 1.064,-0.5742 1.0661,-0.5438 1.0676,-0.5131 1.0688,-0.4815 1.0693,-0.4495 1.0695,-0.4164 1.0691,-0.3826 1.0681,-0.3473 1.0666,-0.3107 1.0644,-0.272 1.0616,-0.2309 1.0578,-0.186 1.0531,-0.1357 1.0467,-0.0751 1.0366,0.0146 1.655,0.195 0.1512,-1.2086 0.1684,-1.2063 0.1857,-1.2038 0.2029,-1.2009 0.2201,-1.198 0.2372,-1.1946 0.2543,-1.1912 0.2713,-1.1874 -1.6219,-0.3828 -0.979,-0.3408 -0.9579,-0.4286 -0.9432,-0.4877 -0.9304,-0.5366 -0.9186,-0.58 -0.9072,-0.6197 -0.896,-0.6567 -0.8849,-0.6917 -0.8738,-0.7251 -0.8625,-0.7572 -0.8512,-0.788 -0.8396,-0.8181 -0.8278,-0.8473 -0.8157,-0.8756 -0.8035,-0.9035 -0.7909,-0.9306 -0.778,-0.9573 -0.7649,-0.9834 -0.7514,-1.0091 0.2127,-0.6267 0.2167,-0.6253 0.2205,-0.624 0.2244,-0.6226 0.2283,-0.6212 0.2321,-0.6197 0.2361,-0.6183 0.2398,-0.6168 1.2242,-0.29 1.2181,-0.2617 1.2113,-0.2332 1.2041,-0.2045 1.1962,-0.1757 1.1878,-0.1464 1.1787,-0.1169 1.169,-0.087 1.1586,-0.0566 1.1475,-0.0256 1.1354,0.006 1.1225,0.039 1.1085,0.0728 1.0933,0.1084 1.0765,0.1461 1.0576,0.187 1.036,0.2328 1.0093,0.2873 0.9691,0.3683 1.4885,0.7492 0.5554,-1.084 0.5708,-1.0759 0.5862,-1.0676 0.6014,-1.0592 0.6166,-1.0504 0.6315,-1.0415 0.6464,-1.0323 0.661,-1.023 -1.3931,-0.9145 -0.8034,-0.6551 -0.7536,-0.7304 -0.7195,-0.7808 -0.6908,-0.8225 -0.6648,-0.8592 -0.6405,-0.8926 -0.6174,-0.9235 -0.5949,-0.9527 -0.5731,-0.9802 -0.5516,-1.0065 -0.5303,-1.0317 -0.5091,-1.0559 -0.4881,-1.0792 -0.4671,-1.1019 -0.446,-1.1238 -0.4249,-1.145 -0.4037,-1.1656 -0.3824,-1.1857 -0.361,-1.2052 0.4143,-0.5162 0.4174,-0.5135 0.4207,-0.5109 0.4238,-0.5083 0.427,-0.5057 0.4301,-0.5029 0.4332,-0.5003 0.4364,-0.4976 1.2495,0.1462 1.2341,0.1707 1.2181,0.1951 1.2014,0.2197 1.1841,0.2441 1.1663,0.2686 1.1476,0.2933 1.1283,0.3181 1.1081,0.343 1.0869,0.3685 1.0649,0.3941 1.0414,0.4205 1.0168,0.4476 0.9903,0.4758 0.9615,0.5055 0.93,0.5374 0.8939,0.5731 0.8501,0.6152 0.7847,0.6775 1.1425,1.2132 0.8926,-0.8287 0.9044,-0.8158 0.916,-0.8028 0.9274,-0.7895 0.9387,-0.7762 0.9496,-0.7627 0.9605,-0.749 0.9711,-0.7352 -0.9964,-1.3358 -0.5309,-0.8904 -0.4583,-0.9441 -0.4091,-0.9798 -0.3678,-1.0091 -0.3309,-1.0348 -0.2965,-1.0578 -0.2643,-1.0791 -0.2332,-1.0986 -0.2033,-1.1171 -0.1741,-1.1345 -0.1454,-1.1508 -0.1174,-1.1664 -0.0895,-1.1811 -0.062,-1.1952 -0.0348,-1.2085 -0.008,-1.2213 0.0193,-1.2334 0.0462,-1.245 0.073,-1.256 0.5658,-0.3433 0.568,-0.3398 0.57,-0.3362 0.5721,-0.3327 0.5742,-0.3291 0.5762,-0.3256 0.5782,-0.3219 0.5802,-0.3183 1.1242,0.5647 1.1013,0.5825 1.0779,0.6 1.0538,0.6173 1.0292,0.6343 1.0041,0.6514 0.9781,0.6681 0.9514,0.6848 0.9239,0.7013 0.8954,0.718 0.8658,0.7346 0.8349,0.7513 0.8023,0.7684 0.7679,0.7858 0.7307,0.8039 0.69,0.8231 0.644,0.8442 0.5885,0.8689 0.5056,0.905 0.6587,1.5308 1.1222,-0.4735 1.1289,-0.4572 1.1353,-0.4411 1.1415,-0.4248 1.1475,-0.4083 1.1532,-0.3919 1.1587,-0.3754 1.164,-0.3587 -0.4793,-1.596 -0.1944,-1.0183 -0.1078,-1.0439 -0.0493,-1.0606 -5e-4,-1.0741 0.043,-1.0855 0.0831,-1.0955 0.1208,-1.1043 0.1566,-1.1122 0.191,-1.1193 0.2244,-1.1255 0.257,-1.1312 0.2886,-1.1361 0.3199,-1.1406 0.3504,-1.1443 0.3807,-1.1475 0.4105,-1.1503 0.44,-1.1524 0.4692,-1.1541 0.4982,-1.1553 0.6491,-0.1291 0.6499,-0.125 0.6506,-0.121 0.6514,-0.117 0.6521,-0.1129 0.6528,-0.1088 0.6535,-0.1048 0.6541,-0.1007 0.8633,0.9152 0.8356,0.9241 0.8076,0.9324 0.7792,0.9405 0.7502,0.9481 0.7207,0.9555 0.6906,0.9623 0.6599,0.9689 0.6283,0.9751 0.5958,0.9809 0.5624,0.9864 0.5275,0.9916 0.4912,0.9964 0.4528,1.001 0.4117,1.0054 0.3669,1.0094 0.3164,1.0136 0.2558,1.0178 0.1655,1.0233 0.0955,1.6638 1.2164,-0.0611 1.2172,-0.0436 1.2177,-0.0261 1.218,-0.009 1.218,0.009 1.2177,0.0261 1.2172,0.0436 1.2164,0.0611 0.0955,-1.6638 0.1655,-1.0233 0.2558,-1.0178 0.3164,-1.0136 0.3669,-1.0094 0.4117,-1.0054 0.4528,-1.001 0.4912,-0.9964 0.5275,-0.9916 0.5624,-0.9864 0.5958,-0.9809 0.6283,-0.9751 0.6599,-0.9689 0.6906,-0.9623 0.7207,-0.9555 0.7502,-0.9481 0.7792,-0.9405 0.8076,-0.9324 0.8356,-0.9241 0.8633,-0.9152 0.6541,0.1007 0.6535,0.1048 0.6528,0.1088 0.6521,0.1129 0.6514,0.117 0.6506,0.121 0.6499,0.125 0.6491,0.1291 0.4982,1.1553 0.4692,1.1541 0.44,1.1524 0.4105,1.1503 0.3807,1.1475 0.3504,1.1443 0.3199,1.1406 0.2886,1.1361 0.257,1.1312 0.2244,1.1255 0.191,1.1193 0.1566,1.1122 0.1208,1.1043 0.0831,1.0955 0.043,1.0855 -5e-4,1.0741 -0.0493,1.0606 -0.1078,1.0439 -0.1944,1.0183 -0.4793,1.596 1.164,0.3587 1.1587,0.3754 1.1532,0.3919 1.1475,0.4083 1.1415,0.4248 1.1353,0.4411 1.1289,0.4572 1.1222,0.4735 0.6587,-1.5308 0.5056,-0.905 0.5885,-0.8689 0.644,-0.8442 0.69,-0.8231 0.7307,-0.8039 0.7679,-0.7858 0.8023,-0.7684 0.8349,-0.7513 0.8658,-0.7346 0.8954,-0.718 0.9239,-0.7013 0.9514,-0.6848 0.9781,-0.6681 1.0041,-0.6514 1.0292,-0.6343 1.0538,-0.6173 1.0779,-0.6 1.1013,-0.5825 1.1242,-0.5647 0.5802,0.3183 0.5782,0.3219 0.5762,0.3256 0.5742,0.3291 0.5721,0.3327 0.57,0.3362 0.568,0.3398 0.5658,0.3433 0.073,1.256 0.0462,1.245 0.0193,1.2334 -0.008,1.2213 -0.0348,1.2085 -0.062,1.1952 -0.0895,1.1811 -0.1174,1.1664 -0.1454,1.1508 -0.1741,1.1345 -0.2033,1.1171 -0.2332,1.0986 -0.2643,1.0791 -0.2965,1.0578 -0.3309,1.0348 -0.3678,1.0091 -0.4091,0.9798 -0.4583,0.9441 -0.5309,0.8904 -0.9964,1.3358 0.9711,0.7352 0.9605,0.749 0.9496,0.7627 0.9387,0.7762 0.9274,0.7895 0.916,0.8028 0.9044,0.8158 0.8926,0.8287 1.1425,-1.2132 0.7847,-0.6775 0.8501,-0.6152 0.8939,-0.5731 0.93,-0.5374 0.9615,-0.5055 0.9903,-0.4758 1.0168,-0.4476 1.0414,-0.4205 1.0649,-0.3941 1.0869,-0.3685 1.1081,-0.343 1.1283,-0.3181 1.1476,-0.2933 1.1663,-0.2686 1.1841,-0.2441 1.2014,-0.2197 1.2181,-0.1951 1.2341,-0.1707 1.2495,-0.1462 0.4364,0.4976 0.4332,0.5003 0.4301,0.5029 0.427,0.5057 0.4238,0.5083 0.4207,0.5109 0.4174,0.5135 0.4143,0.5162 -0.361,1.2052 -0.3824,1.1857 -0.4037,1.1656 -0.4249,1.145 -0.446,1.1238 -0.4671,1.1019 -0.4881,1.0792 -0.5091,1.0559 -0.5303,1.0317 -0.5516,1.0065 -0.5731,0.9802 -0.5949,0.9527 -0.6174,0.9235 -0.6405,0.8926 -0.6648,0.8592 -0.6908,0.8225 -0.7195,0.7808 -0.7536,0.7304 -0.8034,0.6551 -1.3931,0.9145 0.661,1.023 0.6464,1.0323 0.6315,1.0415 0.6166,1.0504 0.6014,1.0592 0.5862,1.0676 0.5708,1.0759 0.5554,1.084 1.4885,-0.7492 0.9691,-0.3683 1.0093,-0.2873 1.036,-0.2328 1.0576,-0.187 1.0765,-0.1461 1.0933,-0.1084 1.1085,-0.0728 1.1225,-0.039 1.1354,-0.006 1.1475,0.0256 1.1586,0.0566 1.169,0.087 1.1787,0.1169 1.1878,0.1464 1.1962,0.1757 1.2041,0.2045 1.2113,0.2332 1.2181,0.2617 1.2242,0.29 0.2398,0.6168 0.2361,0.6183 0.2321,0.6197 0.2283,0.6212 0.2244,0.6226 0.2205,0.624 0.2167,0.6253 0.2127,0.6267 -0.7514,1.0091 -0.7649,0.9834 -0.778,0.9573 -0.7909,0.9306 -0.8035,0.9035 -0.8157,0.8756 -0.8278,0.8473 -0.8396,0.8181 -0.8512,0.788 -0.8625,0.7572 -0.8738,0.7251 -0.8849,0.6917 -0.896,0.6567 -0.9072,0.6197 -0.9186,0.58 -0.9304,0.5366 -0.9432,0.4877 -0.9579,0.4286 -0.979,0.3408 -1.6219,0.3828 0.2713,1.1874 0.2543,1.1912 0.2372,1.1946 0.2201,1.198 0.2029,1.2009 0.1857,1.2038 0.1684,1.2063 0.1512,1.2086 z m -61.05564,19.000568 a 26.574803,26.574803 0 0 1 -4.85599,8.410834 l 20.84127,36.098143 a 67.322835,67.322835 0 0 0 25.69727,-44.508977 z m -20.19896,17.269102 a 26.574803,26.574803 0 0 1 -9.712,0 l -20.84127,36.098142 a 67.322835,67.322835 0 0 0 51.39454,0 z m -25.05497,-8.858268 a 26.574803,26.574803 0 0 1 -4.85599,-8.410834 l -41.68255,0 a 67.322835,67.322835 0 0 0 25.69727,44.508977 z m -4.85599,-26.12737 a 26.574803,26.574803 0 0 1 4.85599,-8.410834 l -20.84127,-36.098148 a 67.322835,67.322835 0 0 0 -25.69727,44.508982 z m 20.19896,-17.269102 a 26.574803,26.574803 0 0 1 9.712,0 l 20.84127,-36.09814 a 67.322835,67.322835 0 0 0 -51.39454,0 z m 25.05497,8.858268 a 26.574803,26.574803 0 0 1 4.85599,8.410834 l 41.68255,0 a 67.322835,67.322835 0 0 0 -25.69727,-44.508982 z m -20.19897,34.985637 a 17.716535,17.716535 0 0 0 0,-35.43307 17.716535,17.716535 0 1 0 0,35.43307"
       id="path4152" />
    <path
       style="fill:#808080"
       d="m -462.96385,-446.61397 c -2.70893,-0.73471 -5.19739,-8.51898 -5.37077,-16.80058 l -0.13306,-6.35587 -4.56952,-1.67416 c -4.28608,-1.57033 -4.61381,-1.59699 -5.28379,-0.42985 -1.51522,2.63959 -10.1879,10.61234 -13.34042,12.26378 -3.22656,1.69022 -3.35845,1.70175 -5.25498,0.4591 -1.93988,-1.27107 -1.94442,-1.29416 -1.61172,-8.2034 0.26627,-5.52957 0.72112,-7.77509 2.25242,-11.1199 1.05533,-2.30515 1.66972,-4.42073 1.36531,-4.7013 -0.30441,-0.28058 -2.10906,-1.83943 -4.01033,-3.46413 l -3.45686,-2.95399 -2.37745,2.08743 c -2.62598,2.30564 -8.67733,4.79898 -14.48154,5.96684 -3.50969,0.70617 -3.89609,0.64319 -5.54235,-0.90339 -2.07429,-1.94869 -2.01219,-2.29809 1.84715,-10.39321 1.75105,-3.67289 3.82081,-6.74116 5.6811,-8.42183 l 2.92648,-2.6439 -2.6534,-4.43531 c -1.45938,-2.43943 -2.71109,-4.5199 -2.7816,-4.62327 -0.0705,-0.10337 -1.29221,0.29841 -2.71491,0.89286 -3.84735,1.60752 -18.43112,1.23468 -20.18176,-0.51596 -0.16122,-0.16122 -0.4962,-1.30855 -0.74442,-2.54964 -0.41382,-2.06911 -0.0437,-2.66408 4.45685,-7.16408 4.62386,-4.62332 9.6449,-7.97523 11.94662,-7.97523 0.80719,0 0.90471,-0.56703 0.46064,-2.67857 -0.30983,-1.47322 -0.77237,-3.88393 -1.02787,-5.35715 -0.42831,-2.46962 -0.65118,-2.67857 -2.85694,-2.67857 -3.16634,0 -10.59597,-2.38288 -15.04288,-4.82465 -3.1697,-1.74048 -3.596,-2.25633 -3.78993,-4.58613 -0.20194,-2.42617 0.0145,-2.76067 2.85715,-4.41504 5.06056,-2.94517 10.70598,-4.87483 14.60527,-4.9922 l 3.67248,-0.11055 1.01057,-5.18956 1.01058,-5.18955 -3.8125,-1.74542 c -3.65598,-1.67377 -11.71854,-8.59515 -13.1687,-11.30479 -0.38187,-0.71353 -0.49153,-2.22055 -0.2437,-3.34895 0.39039,-1.77741 0.92652,-2.15368 4.01129,-2.81524 4.9574,-1.06318 13.29706,-0.89923 16.70464,0.32839 1.57142,0.56613 2.908,1.03417 2.97016,1.04008 0.0622,0.006 1.26376,-2.08276 2.67022,-4.6415 l 2.55721,-4.65226 -2.7423,-2.4775 c -2.78582,-2.51682 -6.43922,-8.62301 -8.27881,-13.83696 -0.94252,-2.67139 -0.91006,-3.0077 0.45821,-4.74716 1.31147,-1.66727 1.79494,-1.81841 4.41895,-1.38136 5.82676,0.97048 11.87694,3.26113 15.08868,5.7127 l 3.27123,2.49699 3.90037,-3.36733 c 2.1452,-1.85203 3.90036,-3.4279 3.90036,-3.50192 0,-0.074 -0.86662,-2.02165 -1.92582,-4.32806 -1.6618,-3.61856 -1.93109,-5.15304 -1.96428,-11.193 -0.0372,-6.77178 0.0214,-7.03618 1.80114,-8.12551 1.76964,-1.08313 2.01745,-1.01365 6.51466,1.82659 4.31376,2.72439 9.93604,8.06165 11.64573,11.05535 0.67051,1.17408 0.99431,1.14514 5.28384,-0.47219 l 4.56956,-1.72292 0.13301,-6.35232 c 0.0962,-4.5954 0.6104,-7.73042 1.85903,-11.33501 1.58689,-4.58114 1.91687,-5.02077 4.0945,-5.45513 2.2044,-0.4397 2.56525,-0.22355 5.2075,3.11914 4.07685,5.15761 6.25869,9.12922 7.20598,13.11709 l 0.82839,3.48731 5.18453,0 5.18453,0 0.4688,-2.5 c 0.67899,-3.62091 3.59815,-9.24393 7.1449,-13.76286 2.90814,-3.70528 3.22718,-3.90686 5.46199,-3.45117 2.1379,0.43594 2.54425,0.94197 4.09458,5.099 1.30245,3.49234 1.75583,6.24766 1.86372,11.32626 l 0.14257,6.71122 4.56486,1.71942 4.56485,1.71941 1.02308,-1.64492 c 1.88937,-3.03778 9.03759,-9.48386 12.7506,-11.49818 3.52159,-1.91048 3.75706,-1.94526 5.4886,-0.81071 1.67686,1.09872 1.80915,1.58776 1.80915,6.6879 0,5.61654 -1.41113,11.9277 -3.34167,14.94528 -0.59237,0.92592 -0.80604,1.92092 -0.47483,2.21111 0.33122,0.29018 2.11405,1.89012 3.96186,3.55542 l 3.35963,3.02781 2.7118,-2.15809 c 3.1813,-2.53175 8.1685,-4.58785 14.10763,-5.81624 4.18888,-0.86638 4.27721,-0.85147 5.86042,0.98912 1.49431,1.73724 1.53971,2.0607 0.64518,4.59609 -1.8231,5.16719 -4.81523,10.32368 -7.91087,13.63316 l -3.10351,3.31791 2.4322,3.90867 c 1.3377,2.14977 2.52026,4.14053 2.62789,4.4239 0.10764,0.28338 1.48141,0.0564 3.05284,-0.50436 3.40957,-1.21672 11.76021,-1.37906 16.6787,-0.32423 2.68488,0.57581 3.63552,1.13394 3.95397,2.32143 0.75008,2.79701 0.48856,3.38187 -3.31124,7.40514 -4.24095,4.49038 -8.69766,7.77753 -11.49748,8.48025 -2.13246,0.5352 -2.20106,0.9619 -1.13302,7.04804 l 0.76236,4.34422 3.70193,0.10826 c 4.06448,0.11886 9.4177,1.92466 14.45249,4.87524 3.03384,1.77795 3.24284,2.08974 3.03936,4.53429 -0.19392,2.3298 -0.62022,2.84565 -3.78992,4.58613 -4.42943,2.43217 -11.87287,4.82465 -15.01038,4.82465 l -2.35989,0 -0.89425,5.00395 c -0.49184,2.75217 -0.76211,5.08253 -0.60058,5.17857 0.16152,0.096 2.11552,1.08415 4.34222,2.1958 2.40123,1.19878 5.85045,3.89766 8.47698,6.63293 4.00129,4.16692 4.38516,4.82816 3.97972,6.85531 -0.24678,1.23396 -0.58061,2.37546 -0.74182,2.53668 -1.75064,1.75064 -16.33441,2.12348 -20.18176,0.51596 -1.4227,-0.59445 -2.63634,-0.99623 -2.69698,-0.89286 -0.0606,0.10337 -1.2884,2.20548 -2.72836,4.67136 l -2.61812,4.4834 2.73154,2.46778 c 2.81244,2.54087 6.43479,8.63124 8.3323,14.00935 1.04951,2.97464 1.03134,3.10448 -0.67292,4.80874 -1.65359,1.6536 -1.96428,1.70877 -5.55463,0.98637 -5.79031,-1.16504 -11.87503,-3.65773 -14.45226,-5.92057 l -2.31781,-2.03506 -3.5165,2.88413 c -5.04197,4.13526 -4.91699,3.93814 -3.68695,5.81543 1.97972,3.02142 3.38473,9.21308 3.38473,14.91591 0,5.20552 -0.12072,5.64727 -1.85355,6.78267 -1.77824,1.16515 -1.98614,1.14405 -5.11709,-0.51925 -3.15192,-1.67444 -11.93349,-9.71783 -13.38928,-12.26378 -0.66735,-1.1671 -0.99482,-1.14052 -5.27632,0.42815 l -4.56482,1.67246 -0.14261,6.71472 c -0.18949,8.92181 -2.50627,15.61891 -5.6963,16.4662 -1.56888,0.4167 -2.45523,0.24962 -3.44954,-0.65021 -2.77468,-2.51105 -8.2209,-11.58357 -9.06446,-15.09992 l -0.87423,-3.64422 -5.15086,0 -5.15087,0 -0.87335,3.40763 c -0.48034,1.87419 -1.79615,5.00812 -2.92403,6.96429 -2.18103,3.78271 -6.97732,9.67569 -7.77835,9.55688 -0.26403,-0.0391 -1.28362,-0.28914 -2.26577,-0.55552 z m 33.57143,-37.62644 c 6.25207,-1.42403 11.42857,-3.30432 11.42857,-4.15127 0,-0.38152 -4.65485,-8.75552 -10.3441,-18.6089 l -10.34411,-17.91524 -5.40806,0.0794 -5.40806,0.0793 -10.31926,17.92587 c -5.67559,9.85923 -10.31926,18.21626 -10.31926,18.57119 0,1.22567 11.41027,4.30121 20,5.39082 4.14152,0.52535 15.76606,-0.24413 20.71428,-1.37118 z m -44.63411,-30.70267 10.50216,-18.24154 -1.89046,-2.85668 c -1.03976,-1.57118 -2.1914,-3.64819 -2.5592,-4.6156 l -0.66875,-1.75892 -21.44625,0 c -11.79543,0 -21.44625,0.1397 -21.44625,0.31044 0,1.36073 2.3578,10.8712 3.53889,14.27453 1.95802,5.64212 6.45276,13.87012 10.32793,18.9062 3.24258,4.21397 11.45564,12.22312 12.53433,12.22312 0.33299,0 5.33141,-8.2087 11.1076,-18.24155 z m 76.39712,13.87073 c 2.56983,-2.40395 6.16591,-6.34145 7.99127,-8.75 5.66715,-7.47772 11.06524,-20.17894 12.71399,-29.9149 l 0.45361,-2.67857 -21.47862,0 -21.47862,0 -0.66874,1.75892 c -0.36781,0.96741 -1.5083,3.02758 -2.53443,4.57817 l -1.8657,2.81925 10.51446,18.27898 c 5.78294,10.05343 10.77678,18.27897 11.09741,18.27897 0.32062,0 2.68554,-1.96687 5.25537,-4.37082 z m -38.34859,-33.18472 c 7.00095,-3.48872 10.54505,-9.70391 9.98633,-17.51273 -0.56303,-7.86918 -4.72512,-13.44625 -11.93246,-15.98915 -17.0494,-6.01538 -31.51138,13.93768 -20.53378,28.33028 5.16695,6.77433 14.81127,8.99304 22.47991,5.1716 z m -30.92008,-27.98018 c 0.99227,-1.86607 2.16938,-3.9046 2.6158,-4.53005 0.6623,-0.92793 -1.1346,-4.50987 -9.76439,-19.46429 -5.81684,-10.0799 -10.85597,-18.32709 -11.19807,-18.32709 -1.23376,0 -11.84007,11.17342 -14.83407,15.62723 -4.31736,6.42242 -7.73174,14.15835 -9.73565,22.05802 -0.94645,3.731 -1.72082,7.06386 -1.72082,7.40634 0,0.34249 9.63745,0.6227 21.41654,0.6227 l 21.41654,0 1.80412,-3.39286 z m 89.91925,0.35715 c -1.39766,-9.21484 -7.16882,-22.32735 -13.37887,-30.39776 -3.14456,-4.08661 -11.47783,-12.28082 -12.48922,-12.28082 -0.49997,0 -21.5455,35.95915 -21.5455,36.81341 0,0.23362 0.78152,1.44939 1.73671,2.70171 0.95518,1.25231 2.07223,3.15943 2.48232,4.23805 l 0.74561,1.96112 21.4547,0 21.45469,0 -0.46044,-3.03571 z m -51.29475,-32.33676 c 9.26953,-16.04842 11.08636,-19.62753 9.96338,-19.62753 -0.19049,0 -3.1637,-0.81799 -6.60714,-1.81777 -11.90021,-3.45512 -25.13159,-3.57398 -37.14046,-0.33364 -9.61587,2.59464 -9.80629,0.73077 2.20148,21.54891 l 10.48322,18.175 5.39707,-0.0516 5.39706,-0.0516 10.30539,-17.84182 0,-10e-6 z"
       id="path4179"
       inkscape:connector-curvature="0"
       transform="translate(160.17551,481.20028)" />
  </g>
</svg>
