<?xml version="1.0" encoding="UTF-8" standalone="no"?>
<!-- Created with Inkscape (http://www.inkscape.org/) -->

<svg
   xmlns:dc="http://purl.org/dc/elements/1.1/"
   xmlns:cc="http://creativecommons.org/ns#"
   xmlns:rdf="http://www.w3.org/1999/02/22-rdf-syntax-ns#"
   xmlns:svg="http://www.w3.org/2000/svg"
   xmlns="http://www.w3.org/2000/svg"
   xmlns:sodipodi="http://sodipodi.sourceforge.net/DTD/sodipodi-0.dtd"
   xmlns:inkscape="http://www.inkscape.org/namespaces/inkscape"
   width="278.97803"
   height="278.97803"
   viewBox="0 0 278.97803 278.97803"
   id="svg2"
   version="1.1"
   inkscape:version="0.91 r13725"
   sodipodi:docname="Gear24.svg">
  <sodipodi:namedview
     id="base"
     pagecolor="#ffffff"
     bordercolor="#666666"
     borderopacity="1.0"
     inkscape:pageopacity="0.0"
     inkscape:pageshadow="2"
     inkscape:zoom="1.4"
     inkscape:cx="379.84614"
     inkscape:cy="107.34616"
     inkscape:document-units="px"
     inkscape:current-layer="layer1"
     showgrid="false"
     inkscape:window-width="2560"
     inkscape:window-height="1377"
     inkscape:window-x="3832"
     inkscape:window-y="-8"
     inkscape:window-maximized="1"
     units="px"
     fit-margin-top="1"
     fit-margin-bottom="1"
     fit-margin-right="1"
     fit-margin-left="1" />
  <defs
     id="defs4" />
  <metadata
     id="metadata7">
    <rdf:RDF>
      <cc:Work
         rdf:about="">
        <dc:format>image/svg+xml</dc:format>
        <dc:type
           rdf:resource="http://purl.org/dc/dcmitype/StillImage" />
        <dc:title></dc:title>
      </cc:Work>
    </rdf:RDF>
  </metadata>
  <g
     id="layer1"
     inkscape:groupmode="layer"
     inkscape:label="Layer 1"
     transform="translate(396.70592,-240.19184)">
    <path
       inkscape:connector-curvature="0"
       style="fill:none;stroke:#000000;stroke-width:0.60000002"
       d="m -137.73741,370.05945 1.6752,0.0522 1.687,0.2103 1.6939,0.3173 1.6985,0.4068 1.7015,0.4868 1.703,0.5605 1.7034,0.6297 1.7026,0.6957 1.7007,0.759 1.6976,0.8204 1.6937,0.8801 0.0393,1.9011 0.0131,1.9015 -0.0131,1.9015 -0.0393,1.9011 -1.6937,0.8801 -1.6976,0.8204 -1.7007,0.759 -1.7026,0.6957 -1.7034,0.6297 -1.703,0.5605 -1.7015,0.4868 -1.6985,0.4068 -1.6939,0.3173 -1.687,0.2103 -1.6752,0.0522 -2.9277,-0.2358 -0.2744,2.9423 -0.3486,2.9344 -0.4227,2.9247 -0.4965,2.913 2.889,0.53 1.6045,0.484 1.5751,0.6398 1.5541,0.7449 1.5353,0.8325 1.5175,0.9106 1.5,0.9822 1.4824,1.0491 1.4645,1.1126 1.4462,1.1734 1.4275,1.2318 1.4083,1.2884 -0.4542,1.8465 -0.4795,1.8401 -0.5048,1.8334 -0.5299,1.8262 -1.8638,0.4116 -1.8522,0.3531 -1.8391,0.293 -1.8247,0.2313 -1.8083,0.1674 -1.7901,0.1006 -1.7695,0.0298 -1.7459,-0.0466 -1.7183,-0.132 -1.6839,-0.2335 -1.6316,-0.3831 -2.7669,-0.9854 -1.0266,2.771 -1.0963,2.7441 -1.1652,2.7156 -1.2335,2.6853 2.6533,1.2597 1.4246,0.8828 1.3559,1.0256 1.3083,1.1217 1.2675,1.2016 1.2302,1.2723 1.1946,1.3369 1.1603,1.3971 1.1267,1.4537 1.0932,1.5077 1.0601,1.5594 1.0268,1.6089 -0.9166,1.6661 -0.9394,1.6533 -0.9621,1.6402 -0.9846,1.6268 -1.9068,-0.0847 -1.8804,-0.1384 -1.8524,-0.1929 -1.8223,-0.2489 -1.79,-0.3063 -1.7551,-0.3661 -1.7169,-0.4292 -1.6744,-0.4969 -1.6256,-0.5722 -1.5661,-0.6614 -1.4769,-0.7924 -2.4176,-1.668 -1.7087,2.4109 -1.7692,2.3669 -1.8284,2.3215 -1.8864,2.2745 2.2368,1.9035 1.1476,1.2215 1.0442,1.3416 0.9735,1.4221 0.9133,1.4887 0.8589,1.5473 0.808,1.6006 0.7591,1.6497 0.712,1.6958 0.6658,1.7393 0.6204,1.7806 0.5753,1.8199 -1.3165,1.372 -1.3353,1.3539 -1.3539,1.3353 -1.372,1.3165 -1.8199,-0.5753 -1.7806,-0.6204 -1.7393,-0.6658 -1.6958,-0.712 -1.6497,-0.7591 -1.6006,-0.808 -1.5473,-0.8589 -1.4887,-0.9133 -1.4221,-0.9735 -1.3416,-1.0442 -1.2215,-1.1476 -1.9035,-2.2368 -2.2745,1.8864 -2.3215,1.8284 -2.3669,1.7692 -2.4109,1.7087 1.668,2.4176 0.7924,1.4769 0.6614,1.5661 0.5722,1.6256 0.4969,1.6744 0.4292,1.7169 0.3661,1.7551 0.3063,1.79 0.2489,1.8223 0.1929,1.8524 0.1384,1.8804 0.0847,1.9068 -1.6268,0.9846 -1.6402,0.9621 -1.6533,0.9394 -1.6661,0.9166 -1.6089,-1.0268 -1.5594,-1.0601 -1.5077,-1.0932 -1.4537,-1.1267 -1.3971,-1.1603 -1.3369,-1.1946 -1.2723,-1.2302 -1.2016,-1.2675 -1.1217,-1.3083 -1.0256,-1.3559 -0.8828,-1.4246 -1.2597,-2.6533 -2.6853,1.2335 -2.7156,1.1652 -2.7441,1.0963 -2.771,1.0266 0.9854,2.7669 0.3831,1.6316 0.2335,1.6839 0.132,1.7183 0.0466,1.7459 -0.0298,1.7695 -0.1006,1.7901 -0.1674,1.8083 -0.2313,1.8247 -0.293,1.8391 -0.3531,1.8522 -0.4116,1.8638 -1.8262,0.5299 -1.8334,0.5048 -1.8401,0.4795 -1.8465,0.4542 -1.2884,-1.4083 -1.2318,-1.4275 -1.1734,-1.4462 -1.1126,-1.4645 -1.0491,-1.4824 -0.9822,-1.5 -0.9106,-1.5175 -0.8325,-1.5353 -0.7449,-1.5541 -0.6398,-1.5751 -0.484,-1.6045 -0.53,-2.889 -2.913,0.4965 -2.9247,0.4227 -2.9344,0.3486 -2.9423,0.2744 0.2358,2.9277 -0.0522,1.6752 -0.2103,1.687 -0.3173,1.6939 -0.4068,1.6985 -0.4868,1.7015 -0.5605,1.703 -0.6297,1.7034 -0.6957,1.7026 -0.759,1.7007 -0.8204,1.6976 -0.8801,1.6937 -1.9011,0.0393 -1.9015,0.0131 -1.9015,-0.0131 -1.9011,-0.0393 -0.8801,-1.6937 -0.8204,-1.6976 -0.759,-1.7007 -0.6957,-1.7026 -0.6297,-1.7034 -0.5605,-1.703 -0.4868,-1.7015 -0.4068,-1.6985 -0.3173,-1.6939 -0.2103,-1.687 -0.0522,-1.6752 0.2358,-2.9277 -2.9423,-0.2744 -2.9344,-0.3486 -2.9247,-0.4227 -2.913,-0.4965 -0.53,2.889 -0.484,1.6045 -0.6398,1.5751 -0.7449,1.5541 -0.8325,1.5353 -0.9106,1.5175 -0.9822,1.5 -1.0491,1.4824 -1.1126,1.4645 -1.1734,1.4462 -1.2318,1.4275 -1.2884,1.4083 -1.8465,-0.4542 -1.8401,-0.4795 -1.8334,-0.5048 -1.8262,-0.5299 -0.4116,-1.8638 -0.3531,-1.8522 -0.293,-1.8391 -0.2313,-1.8247 -0.1674,-1.8083 -0.1006,-1.7901 -0.0298,-1.7695 0.0466,-1.7459 0.132,-1.7183 0.2335,-1.6839 0.3831,-1.6316 0.9854,-2.7669 -2.771,-1.0266 -2.7441,-1.0963 -2.7156,-1.1652 -2.6853,-1.2335 -1.2597,2.6533 -0.8828,1.4246 -1.0256,1.3559 -1.1217,1.3083 -1.2016,1.2675 -1.2723,1.2302 -1.3369,1.1946 -1.3971,1.1603 -1.4537,1.1267 -1.5077,1.0932 -1.5594,1.0601 -1.6089,1.0268 -1.6661,-0.9166 -1.6533,-0.9394 -1.6402,-0.9621 -1.6268,-0.9846 0.0847,-1.9068 0.1384,-1.8804 0.1929,-1.8524 0.2489,-1.8223 0.3063,-1.79 0.3661,-1.7551 0.4292,-1.7169 0.4969,-1.6744 0.5722,-1.6256 0.6614,-1.5661 0.7924,-1.4769 1.668,-2.4176 -2.4109,-1.7087 -2.3669,-1.7692 -2.3215,-1.8284 -2.2745,-1.8864 -1.9035,2.2368 -1.2215,1.1476 -1.3416,1.0442 -1.4221,0.9735 -1.4887,0.9133 -1.5473,0.8589 -1.6006,0.808 -1.6497,0.7591 -1.6958,0.712 -1.7393,0.6658 -1.7806,0.6204 -1.8199,0.5753 -1.372,-1.3165 -1.3539,-1.3353 -1.3353,-1.3539 -1.3165,-1.372 0.5753,-1.8199 0.6204,-1.7806 0.6658,-1.7393 0.712,-1.6958 0.7591,-1.6497 0.808,-1.6006 0.8589,-1.5473 0.9133,-1.4887 0.9735,-1.4221 1.0442,-1.3416 1.1476,-1.2215 2.2368,-1.9035 -1.8864,-2.2745 -1.8284,-2.3215 -1.7692,-2.3669 -1.7087,-2.4109 -2.4176,1.668 -1.4769,0.7924 -1.5661,0.6614 -1.6256,0.5722 -1.6744,0.4969 -1.7169,0.4292 -1.7551,0.3661 -1.79,0.3063 -1.8223,0.2489 -1.8524,0.1929 -1.8804,0.1384 -1.9068,0.0847 -0.9846,-1.6268 -0.9621,-1.6402 -0.9394,-1.6533 -0.9166,-1.6661 1.0268,-1.6089 1.0601,-1.5594 1.0932,-1.5077 1.1267,-1.4537 1.1603,-1.3971 1.1946,-1.3369 1.2302,-1.2723 1.2675,-1.2016 1.3083,-1.1217 1.3559,-1.0256 1.4246,-0.8828 2.6533,-1.2597 -1.2335,-2.6853 -1.1652,-2.7156 -1.0963,-2.7441 -1.0266,-2.771 -2.7669,0.9854 -1.6316,0.3831 -1.6839,0.2335 -1.7183,0.132 -1.7459,0.0466 -1.7695,-0.0298 -1.7901,-0.1006 -1.8083,-0.1674 -1.8247,-0.2313 -1.8391,-0.293 -1.8522,-0.3531 -1.8638,-0.4116 -0.5299,-1.8262 -0.5048,-1.8334 -0.4795,-1.8401 -0.4542,-1.8465 1.4083,-1.2884 1.4275,-1.2318 1.4462,-1.1734 1.4645,-1.1126 1.4824,-1.0491 1.5,-0.9822 1.5175,-0.9106 1.5353,-0.8325 1.5541,-0.7449 1.5751,-0.6398 1.6045,-0.484 2.889,-0.53 -0.4965,-2.913 -0.4227,-2.9247 -0.3486,-2.9344 -0.2744,-2.9423 -2.9277,0.2358 -1.6752,-0.0522 -1.687,-0.2103 -1.6939,-0.3173 -1.6985,-0.4068 -1.7015,-0.4868 -1.703,-0.5605 -1.7034,-0.6297 -1.7026,-0.6957 -1.7007,-0.759 -1.6976,-0.8204 -1.6937,-0.8801 -0.0393,-1.9011 -0.0131,-1.9015 0.0131,-1.9015 0.0393,-1.9011 1.6937,-0.8801 1.6976,-0.8204 1.7007,-0.759 1.7026,-0.6957 1.7034,-0.6297 1.703,-0.5605 1.7015,-0.4868 1.6985,-0.4068 1.6939,-0.3173 1.687,-0.2103 1.6752,-0.0522 2.9277,0.2358 0.2744,-2.9423 0.3486,-2.9344 0.4227,-2.9247 0.4965,-2.913 -2.889,-0.53 -1.6045,-0.484 -1.5751,-0.6398 -1.5541,-0.7449 -1.5353,-0.8325 -1.5175,-0.9106 -1.5,-0.9822 -1.4824,-1.0491 -1.4645,-1.1126 -1.4462,-1.1734 -1.4275,-1.2318 -1.4083,-1.2884 0.4542,-1.8465 0.4795,-1.8401 0.5048,-1.8334 0.5299,-1.8262 1.8638,-0.4116 1.8522,-0.3531 1.8391,-0.293 1.8247,-0.2313 1.8083,-0.1674 1.7901,-0.1006 1.7695,-0.0298 1.7459,0.0466 1.7183,0.132 1.6839,0.2335 1.6316,0.3831 2.7669,0.9854 1.0266,-2.771 1.0963,-2.7441 1.1652,-2.7156 1.2335,-2.6853 -2.6533,-1.2597 -1.4246,-0.8828 -1.3559,-1.0256 -1.3083,-1.1217 -1.2675,-1.2016 -1.2302,-1.2723 -1.1946,-1.3369 -1.1603,-1.3971 -1.1267,-1.4537 -1.0932,-1.5077 -1.0601,-1.5594 -1.0268,-1.6089 0.9166,-1.6661 0.9394,-1.6533 0.9621,-1.6402 0.9846,-1.6268 1.9068,0.0847 1.8804,0.1384 1.8524,0.1929 1.8223,0.2489 1.79,0.3063 1.7551,0.3661 1.7169,0.4292 1.6744,0.4969 1.6256,0.5722 1.5661,0.6614 1.4769,0.7924 2.4176,1.668 1.7087,-2.4109 1.7692,-2.3669 1.8284,-2.3215 1.8864,-2.2745 -2.2368,-1.9035 -1.1476,-1.2215 -1.0442,-1.3416 -0.9735,-1.4221 -0.9133,-1.4887 -0.8589,-1.5473 -0.808,-1.6006 -0.7591,-1.6497 -0.712,-1.6958 -0.6658,-1.7393 -0.6204,-1.7806 -0.5753,-1.8199 1.3165,-1.372 1.3353,-1.3539 1.3539,-1.3353 1.372,-1.3165 1.8199,0.5753 1.7806,0.6204 1.7393,0.6658 1.6958,0.712 1.6497,0.7591 1.6006,0.808 1.5473,0.8589 1.4887,0.9133 1.4221,0.9735 1.3416,1.0442 1.2215,1.1476 1.9035,2.2368 2.2745,-1.8864 2.3215,-1.8284 2.3669,-1.7692 2.4109,-1.7087 -1.668,-2.4176 -0.7924,-1.4769 -0.6614,-1.5661 -0.5722,-1.6256 -0.4969,-1.6744 -0.4292,-1.7169 -0.3661,-1.7551 -0.3063,-1.79 -0.2489,-1.8223 -0.1929,-1.8524 -0.1384,-1.8804 -0.0847,-1.9068 1.6268,-0.9846 1.6402,-0.9621 1.6533,-0.9394 1.6661,-0.9166 1.6089,1.0268 1.5594,1.0601 1.5077,1.0932 1.4537,1.1267 1.3971,1.1603 1.3369,1.1946 1.2723,1.2302 1.2016,1.2675 1.1217,1.3083 1.0256,1.3559 0.8828,1.4246 1.2597,2.6533 2.6853,-1.2335 2.7156,-1.1652 2.7441,-1.0963 2.771,-1.0266 -0.9854,-2.7669 -0.3831,-1.6316 -0.2335,-1.6839 -0.132,-1.7183 -0.0466,-1.7459 0.0298,-1.7695 0.1006,-1.7901 0.1674,-1.8083 0.2313,-1.8247 0.293,-1.8391 0.3531,-1.8522 0.4116,-1.8638 1.8262,-0.5299 1.8334,-0.5048 1.8401,-0.4795 1.8465,-0.4542 1.2884,1.4083 1.2318,1.4275 1.1734,1.4462 1.1126,1.4645 1.0491,1.4824 0.9822,1.5 0.9106,1.5175 0.8325,1.5353 0.7449,1.5541 0.6398,1.5751 0.484,1.6045 0.53,2.889 2.913,-0.4965 2.9247,-0.4227 2.9344,-0.3486 2.9423,-0.2744 -0.2358,-2.9277 0.0522,-1.6752 0.2103,-1.687 0.3173,-1.6939 0.4068,-1.6985 0.4868,-1.7015 0.5605,-1.703 0.6297,-1.7034 0.6957,-1.7026 0.759,-1.7007 0.8204,-1.6976 0.8801,-1.6937 1.9011,-0.0393 1.9015,-0.0131 1.9015,0.0131 1.9011,0.0393 0.8801,1.6937 0.8204,1.6976 0.759,1.7007 0.6957,1.7026 0.6297,1.7034 0.5605,1.703 0.4868,1.7015 0.4068,1.6985 0.3173,1.6939 0.2103,1.687 0.0522,1.6752 -0.2358,2.9277 2.9423,0.2744 2.9344,0.3486 2.9247,0.4227 2.913,0.4965 0.53,-2.889 0.484,-1.6045 0.6398,-1.5751 0.7449,-1.5541 0.8325,-1.5353 0.9106,-1.5175 0.9822,-1.5 1.0491,-1.4824 1.1126,-1.4645 1.1734,-1.4462 1.2318,-1.4275 1.2884,-1.4083 1.8465,0.4542 1.8401,0.4795 1.8334,0.5048 1.8262,0.5299 0.4116,1.8638 0.3531,1.8522 0.293,1.8391 0.2313,1.8247 0.1674,1.8083 0.1006,1.7901 0.0298,1.7695 -0.0466,1.7459 -0.132,1.7183 -0.2335,1.6839 -0.3831,1.6316 -0.9854,2.7669 2.771,1.0266 2.7441,1.0963 2.7156,1.1652 2.6853,1.2335 1.2597,-2.6533 0.8828,-1.4246 1.0256,-1.3559 1.1217,-1.3083 1.2016,-1.2675 1.2723,-1.2302 1.3369,-1.1946 1.3971,-1.1603 1.4537,-1.1267 1.5077,-1.0932 1.5594,-1.0601 1.6089,-1.0268 1.6661,0.9166 1.6533,0.9394 1.6402,0.9621 1.6268,0.9846 -0.0847,1.9068 -0.1384,1.8804 -0.1929,1.8524 -0.2489,1.8223 -0.3063,1.79 -0.3661,1.7551 -0.4292,1.7169 -0.4969,1.6744 -0.5722,1.6256 -0.6614,1.5661 -0.7924,1.4769 -1.668,2.4176 2.4109,1.7087 2.3669,1.7692 2.3215,1.8284 2.2745,1.8864 1.9035,-2.2368 1.2215,-1.1476 1.3416,-1.0442 1.4221,-0.9735 1.4887,-0.9133 1.5473,-0.8589 1.6006,-0.808 1.6497,-0.7591 1.6958,-0.712 1.7393,-0.6658 1.7806,-0.6204 1.8199,-0.5753 1.372,1.3165 1.3539,1.3353 1.3353,1.3539 1.3165,1.372 -0.5753,1.8199 -0.6204,1.7806 -0.6658,1.7393 -0.712,1.6958 -0.7591,1.6497 -0.808,1.6006 -0.8589,1.5473 -0.9133,1.4887 -0.9735,1.4221 -1.0442,1.3416 -1.1476,1.2215 -2.2368,1.9035 1.8864,2.2745 1.8284,2.3215 1.7692,2.3669 1.7087,2.4109 2.4176,-1.668 1.4769,-0.7924 1.5661,-0.6614 1.6256,-0.5722 1.6744,-0.4969 1.7169,-0.4292 1.7551,-0.3661 1.79,-0.3063 1.8223,-0.2489 1.8524,-0.1929 1.8804,-0.1384 1.9068,-0.0847 0.9846,1.6268 0.9621,1.6402 0.9394,1.6533 0.9166,1.6661 -1.0268,1.6089 -1.0601,1.5594 -1.0932,1.5077 -1.1267,1.4537 -1.1603,1.3971 -1.1946,1.3369 -1.2302,1.2723 -1.2675,1.2016 -1.3083,1.1217 -1.3559,1.0256 -1.4246,0.8828 -2.6533,1.2597 1.2335,2.6853 1.1652,2.7156 1.0963,2.7441 1.0266,2.771 2.7669,-0.9854 1.6316,-0.3831 1.6839,-0.2335 1.7183,-0.132 1.7459,-0.0466 1.7695,0.0298 1.7901,0.1006 1.8083,0.1674 1.8247,0.2313 1.8391,0.293 1.8522,0.3531 1.8638,0.4116 0.5299,1.8262 0.5048,1.8334 0.4795,1.8401 0.4542,1.8465 -1.4083,1.2884 -1.4275,1.2318 -1.4462,1.1734 -1.4645,1.1126 -1.4824,1.0491 -1.5,0.9822 -1.5175,0.9106 -1.5353,0.8325 -1.5541,0.7449 -1.5751,0.6398 -1.6045,0.484 -2.889,0.53 0.4965,2.913 0.4227,2.9247 0.3486,2.9344 0.2744,2.9423 z m -87.00455,23.79463 a 35.433071,35.433071 0 0 1 -36.43805,21.03751 l -27.48326,47.60241 a 88.582677,88.582677 0 0 0 118.88783,-68.63992 z m -60.9868,6.86428 a 35.433071,35.433071 0 0 1 0,-42.07502 l -27.48326,-47.60241 a 88.582677,88.582677 0 0 0 0,137.27984 z m 24.54875,-56.24825 a 35.433071,35.433071 0 0 1 36.43805,21.03751 l 54.96652,0 A 88.582677,88.582677 0 0 0 -288.66327,296.8677 Z m 3.9631,52.92728 a 17.71654,17.71654 0 0 0 0,-35.43308 17.71654,17.71654 0 1 0 0,35.43308"
       id="path4231" />
    <path
       style="fill:#b3b3b3"
       d="m -262.60735,512.71657 c -2.36603,-5.29818 -3.98193,-11.96841 -3.62479,-14.96265 0.22634,-1.89752 0.14559,-1.93657 -5.84192,-2.82547 -3.33928,-0.49574 -6.3125,-0.91497 -6.60714,-0.93162 -0.29464,-0.0166 -0.53571,0.73012 -0.53571,1.65948 0,2.41902 -4.4859,10.98336 -7.65755,14.61954 l -2.6996,3.095 -3.31669,-0.83919 c -3.74899,-0.94856 -3.79199,-1.04376 -4.54601,-10.06318 -0.3071,-3.67348 -0.11904,-6.4866 0.61605,-9.21523 0.58196,-2.16019 1.0041,-3.94641 0.93809,-3.96938 -0.42949,-0.14948 -10.9112,-4.2893 -11.31772,-4.47 -0.27731,-0.12327 -1.03246,0.79741 -1.67812,2.04597 -1.59178,3.07816 -6.24678,8.03173 -10.44068,11.11034 l -3.45782,2.53827 -3.04141,-1.6824 c -3.01468,-1.66763 -3.03936,-1.71363 -2.80899,-5.23523 0.33385,-5.1034 2.10672,-11.66462 4.06199,-15.03303 l 1.68846,-2.90877 -4.98671,-3.73179 -4.98672,-3.73178 -3.31241,2.9157 c -3.28808,2.89427 -10.13188,6.58287 -13.99839,7.54467 -1.66975,0.41535 -2.4255,0.10417 -4.40384,-1.81331 -2.32436,-2.25286 -2.36321,-2.38547 -1.45393,-4.96265 1.74144,-4.93579 4.73753,-10.16311 7.61311,-13.28274 l 2.86459,-3.10772 -3.70797,-4.86356 c -2.03938,-2.67496 -3.78465,-4.95144 -3.87837,-5.05884 -0.0937,-0.10741 -1.58253,0.60957 -3.30846,1.59328 -3.70535,2.11192 -12.19505,4.15195 -15.93756,3.82973 -2.19684,-0.18914 -2.90015,-0.67579 -4.15074,-2.87209 l -1.50573,-2.64437 2.08513,-3.03519 c 2.92267,-4.25432 9.13682,-10.24564 11.74891,-11.3276 1.20804,-0.50039 2.03766,-1.26564 1.8436,-1.70056 -0.19406,-0.43493 -1.29484,-3.04078 -2.44617,-5.79078 -1.63748,-3.91118 -2.38537,-4.9571 -3.43441,-4.803 -0.73759,0.10835 -3.10177,0.46628 -5.25372,0.79538 -3.17449,0.48548 -14.77309,-0.1543 -15.47225,-0.85346 -0.0982,-0.0982 -0.57896,-1.67572 -1.06839,-3.50564 -0.84882,-3.17363 -0.80946,-3.39705 0.85314,-4.84308 3.85048,-3.34893 10.45612,-7.25245 14.03184,-8.29194 3.31763,-0.96446 3.73664,-1.29199 3.3982,-2.65633 -0.21232,-0.85591 -0.61447,-3.63435 -0.89368,-6.1743 l -0.50765,-4.61809 -4.03275,-0.12339 c -4.4285,-0.13551 -7.43494,-0.94492 -13.64582,-3.67381 l -4.10714,-1.80457 0,-3.37634 0,-3.37633 4.10714,-1.80457 c 6.21088,-2.7289 9.21732,-3.5383 13.64582,-3.67381 l 4.03275,-0.12339 0.50765,-4.61809 c 0.27921,-2.53995 0.68136,-5.31839 0.89368,-6.17431 0.33844,-1.36433 -0.0806,-1.69187 -3.3982,-2.65633 -3.57572,-1.03949 -10.18136,-4.943 -14.03184,-8.29193 -1.6626,-1.44603 -1.70196,-1.66945 -0.85314,-4.84309 0.48943,-1.82991 0.97021,-3.40745 1.06839,-3.50563 0.69916,-0.69916 12.29776,-1.33895 15.47225,-0.85346 2.15195,0.3291 4.51613,0.68702 5.25372,0.79537 1.04904,0.1541 1.79693,-0.89181 3.43441,-4.803 1.15133,-2.75 2.25211,-5.35585 2.44617,-5.79077 0.19406,-0.43492 -0.63556,-1.20018 -1.8436,-1.70056 -2.61209,-1.08197 -8.82624,-7.07328 -11.74891,-11.3276 l -2.08513,-3.0352 1.50573,-2.64436 c 1.25059,-2.1963 1.9539,-2.68295 4.15074,-2.8721 3.74251,-0.32222 12.23221,1.71782 15.93756,3.82973 1.72593,0.98372 3.21473,1.7007 3.30846,1.59329 0.0937,-0.10741 1.83899,-2.38389 3.87837,-5.05884 l 3.70797,-4.86356 -2.86459,-3.10772 c -2.87558,-3.11964 -5.87167,-8.34696 -7.61311,-13.28275 -0.90928,-2.57717 -0.87043,-2.70978 1.45393,-4.96264 1.97834,-1.91749 2.73409,-2.22867 4.40384,-1.81332 3.86651,0.96181 10.71031,4.6504 13.99839,7.54468 l 3.31241,2.9157 4.98672,-3.73179 4.98671,-3.73178 -1.68846,-2.90878 c -1.95527,-3.3684 -3.72814,-9.92963 -4.06199,-15.03302 -0.23037,-3.52161 -0.20569,-3.56761 2.80899,-5.23523 l 3.04141,-1.68241 3.45782,2.53828 c 4.1939,3.0786 8.8489,8.03218 10.44068,11.11034 0.64566,1.24855 1.40081,2.16924 1.67812,2.04597 0.40652,-0.18071 10.88823,-4.32052 11.31772,-4.47 0.066,-0.023 -0.35613,-1.80919 -0.93809,-3.96938 -0.73509,-2.72864 -0.92315,-5.54175 -0.61605,-9.21524 0.75402,-9.01941 0.79702,-9.11461 4.54601,-10.06317 l 3.31669,-0.83919 2.6996,3.095 c 3.17165,3.63617 7.65755,12.20051 7.65755,14.61953 0,0.92936 0.24107,1.67613 0.53571,1.65948 0.29464,-0.0166 3.26786,-0.43587 6.60714,-0.93162 5.98751,-0.88889 6.06826,-0.92795 5.84192,-2.82547 -0.35714,-2.99424 1.25876,-9.66447 3.62479,-14.96264 l 2.15313,-4.82143 3.42388,0 3.42388,0 2.32376,5.89286 c 1.5995,4.05618 2.41777,7.4785 2.62539,10.98031 l 0.30162,5.08746 4.74796,0.48304 c 2.61138,0.26568 5.45719,0.65944 6.32402,0.87503 1.2923,0.32142 1.65022,0.0258 1.98803,-1.64193 0.63847,-3.15204 4.34723,-10.24627 7.31941,-14.00077 2.83676,-3.58343 3.62834,-3.78269 8.1624,-2.05465 1.70824,0.65105 1.95422,1.20313 2.40293,5.39318 0.50842,4.74747 0.14407,13.17947 -0.68147,15.77118 -0.44564,1.39907 1.23642,2.32592 10.38055,5.71986 0.80922,0.30036 1.41247,-0.21263 2.04457,-1.73863 1.09044,-2.63256 6.76235,-8.5015 11.10084,-11.48646 l 3.18612,-2.19211 2.86192,1.63439 c 2.48667,1.42009 2.86102,1.96217 2.85502,4.13438 -0.0117,4.23328 -1.98606,12.11288 -3.88758,15.51506 -0.99484,1.77997 -1.8088,3.31791 -1.8088,3.41766 0,0.21621 7.72641,6.1669 9.11038,7.01659 0.65303,0.40093 1.96965,-0.33434 4.07692,-2.27674 3.38547,-3.12063 8.28325,-5.84737 13.07906,-7.28151 2.94662,-0.88117 3.12554,-0.84231 5.17857,1.12461 1.16958,1.12053 2.1265,2.49232 2.1265,3.04843 0,2.0857 -5.61819,12.89685 -8.16972,15.72109 -2.93993,3.25415 -3.01351,2.84534 1.59363,8.85506 l 3.06677,4.00041 4.07609,-2.00201 c 4.51668,-2.2184 10.07531,-3.5701 14.64696,-3.56172 2.72986,0.005 3.14192,0.25313 4.56757,2.75038 l 1.56703,2.74487 -1.84033,2.78534 c -2.80437,4.2444 -8.11923,9.52237 -11.1853,11.10763 -3.061,1.58264 -3.06101,1.18358 2.8e-4,8.68502 1.72069,4.2164 2.17873,4.80214 3.43822,4.39675 3.58932,-1.15526 9.04364,-1.50695 14.29736,-0.92187 3.13579,0.34922 5.91842,0.86573 6.18362,1.1478 1.19336,1.26925 1.99045,6.14474 1.16685,7.13712 -2.74885,3.31216 -13.34141,9.44718 -16.31125,9.44718 -1.99834,0 -2.12329,0.7603 -1.22647,7.46306 l 0.83379,6.23163 2.08205,-0.41641 c 2.62108,-0.52422 9.80082,1.11527 15.04973,3.43658 l 4.02026,1.77795 0,3.65004 0,3.65005 -4.02026,1.77795 c -5.24891,2.32131 -12.42865,3.9608 -15.04973,3.43657 l -2.08205,-0.4164 -0.83379,6.23163 c -0.89682,6.70276 -0.77187,7.46306 1.22647,7.46306 2.96984,0 13.5624,6.13501 16.31125,9.44718 0.8236,0.99238 0.0265,5.86786 -1.16685,7.13711 -0.2652,0.28207 -3.04783,0.79858 -6.18362,1.1478 -5.25372,0.58508 -10.70804,0.2334 -14.29736,-0.92187 -1.25949,-0.40538 -1.71753,0.18035 -3.43822,4.39676 -3.06129,7.50143 -3.06128,7.10238 -2.8e-4,8.68502 3.06607,1.58526 8.38093,6.86322 11.1853,11.10763 l 1.84033,2.78533 -1.56703,2.74488 c -1.42565,2.49725 -1.83771,2.74537 -4.56757,2.75037 -4.57165,0.008 -10.13028,-1.34332 -14.64696,-3.56172 l -4.07609,-2.002 -3.06677,4.0004 c -4.60714,6.00972 -4.53356,5.60092 -1.59363,8.85507 2.55153,2.82424 8.16972,13.63538 8.16972,15.72108 0,0.55612 -0.95692,1.92791 -2.1265,3.04843 -2.05303,1.96692 -2.23195,2.00578 -5.17857,1.12462 -4.79581,-1.43415 -9.69359,-4.16089 -13.07906,-7.28151 -2.10727,-1.94241 -3.42389,-2.67767 -4.07692,-2.27674 -1.38397,0.84969 -9.11038,6.80037 -9.11038,7.01658 0,0.0997 0.81396,1.63769 1.8088,3.41767 1.90152,3.40217 3.87589,11.28178 3.88758,15.51505 0.006,2.17221 -0.36835,2.7143 -2.85502,4.13439 l -2.86192,1.63438 -3.18612,-2.1921 c -4.33849,-2.98497 -10.0104,-8.8539 -11.10084,-11.48646 -0.6321,-1.52601 -1.23535,-2.03899 -2.04457,-1.73864 -9.14413,3.39395 -10.82619,4.3208 -10.38055,5.71986 0.82554,2.59172 1.18989,11.02372 0.68147,15.77119 -0.44871,4.19005 -0.69469,4.74213 -2.40293,5.39318 -4.53406,1.72803 -5.32564,1.52877 -8.1624,-2.05465 -2.97218,-3.75451 -6.68094,-10.84874 -7.31941,-14.00078 -0.33781,-1.66773 -0.69573,-1.96335 -1.98803,-1.64193 -0.86683,0.21559 -3.71264,0.60936 -6.32402,0.87503 l -4.74796,0.48304 -0.30162,5.08746 c -0.20762,3.50181 -1.02589,6.92414 -2.62539,10.98032 l -2.32376,5.89286 -3.42388,0 -3.42388,0 -2.15313,-4.82143 z m 24.10472,-45.82439 c 17.37734,-3.94132 31.80901,-11.86441 44.32892,-24.33686 12.69917,-12.65107 21.8596,-29.89507 24.57827,-46.26732 l 0.5041,-3.03572 -28.13475,0 -28.13473,0 -1.56767,3.22674 c -4.84674,9.97605 -17.06417,17.38407 -29.43128,17.8456 l -5.35714,0.19993 -13.75,23.82323 c -7.5625,13.10277 -13.75,24.02176 -13.75,24.26441 0,0.46566 7.43187,2.90028 12.85714,4.21189 10.07414,2.43552 27.28268,2.46648 37.85714,0.0681 l 0,3e-5 z m -60.35736,-42.11891 13.72235,-23.76749 -2.79722,-5.48389 c -5.37999,-10.54738 -5.38005,-21.13459 -1.7e-4,-31.68174 l 2.79705,-5.48355 -13.52258,-23.44502 c -7.43742,-12.89476 -13.83928,-23.76644 -14.22638,-24.1593 -1.08143,-1.09755 -14.12778,12.69257 -18.82391,19.89707 -6.3277,9.70755 -10.42192,19.59165 -12.97345,31.32002 -1.80094,8.27815 -1.80094,27.14482 0,35.42296 3.84717,17.68387 11.29438,31.59316 23.83481,44.51667 3.7856,3.90125 7.19436,6.98935 7.57503,6.86246 0.38067,-0.12689 6.86719,-10.92607 14.41447,-23.99819 z m 50.64893,-29.24646 c 6.3596,-3.45743 9.32764,-9.22549 8.87442,-17.24643 -0.36061,-6.38186 -3.02314,-10.88347 -8.3138,-14.05639 -4.48595,-2.69032 -8.69575,-3.44089 -13.42185,-2.39302 -9.88374,2.19141 -16.12636,11.92541 -13.93315,21.7257 2.7174,12.14268 15.7597,17.9692 26.79438,11.97014 z m 78.61562,-32.4531 c -0.94146,-5.66961 -3.99258,-15.15029 -6.81199,-21.16676 -11.95682,-25.51518 -35.17723,-43.71503 -63.52377,-49.78906 -8.45979,-1.81274 -25.93364,-1.84399 -34.24099,-0.0612 -6.80655,1.46069 -15.04472,4.03096 -15.04472,4.69389 0,0.24208 6.1875,11.15844 13.75,24.25859 l 13.75,23.81845 5.71428,0.23968 c 12.37003,0.51887 24.18347,7.74892 29.05929,17.78484 l 1.58252,3.2573 28.13473,0 28.13475,0 -0.5041,-3.03571 z"
       id="path4264"
       inkscape:connector-curvature="0" />
  </g>
</svg>
