<?xml version="1.0" encoding="UTF-8" standalone="no"?>
<!-- Created with Inkscape (http://www.inkscape.org/) -->

<svg
   xmlns:dc="http://purl.org/dc/elements/1.1/"
   xmlns:cc="http://creativecommons.org/ns#"
   xmlns:rdf="http://www.w3.org/1999/02/22-rdf-syntax-ns#"
   xmlns:svg="http://www.w3.org/2000/svg"
   xmlns="http://www.w3.org/2000/svg"
   xmlns:sodipodi="http://sodipodi.sourceforge.net/DTD/sodipodi-0.dtd"
   xmlns:inkscape="http://www.inkscape.org/namespaces/inkscape"
   width="789.21423"
   height="789.21423"
   viewBox="0 0 789.21425 789.21421"
   id="svg2"
   version="1.1"
   inkscape:version="0.91 r13725"
   sodipodi:docname="Gear72.svg">
  <sodipodi:namedview
     id="base"
     pagecolor="#ffffff"
     bordercolor="#666666"
     borderopacity="1.0"
     inkscape:pageopacity="0.0"
     inkscape:pageshadow="2"
     inkscape:zoom="0.49497475"
     inkscape:cx="574.20005"
     inkscape:cy="393.99758"
     inkscape:document-units="px"
     inkscape:current-layer="layer1"
     showgrid="false"
     inkscape:window-width="2560"
     inkscape:window-height="1377"
     inkscape:window-x="3832"
     inkscape:window-y="-8"
     inkscape:window-maximized="1"
     units="px"
     fit-margin-top="1"
     fit-margin-bottom="1"
     fit-margin-right="1"
     fit-margin-left="1" />
  <defs
     id="defs4" />
  <metadata
     id="metadata7">
    <rdf:RDF>
      <cc:Work
         rdf:about="">
        <dc:format>image/svg+xml</dc:format>
        <dc:type
           rdf:resource="http://purl.org/dc/dcmitype/StillImage" />
        <dc:title></dc:title>
      </cc:Work>
    </rdf:RDF>
  </metadata>
  <g
     id="layer1"
     inkscape:groupmode="layer"
     inkscape:label="Layer 1"
     transform="translate(490.86514,-117.30249)">
    <path
       inkscape:connector-curvature="0"
       style="fill:none;stroke:#000000;stroke-width:0.60000002"
       d="m 275.61346,500.47429 4.2857,1.0973 4.2862,1.2835 4.2847,1.454 4.2809,1.6135 4.2754,1.7646 0.0227,4.2224 -0.0227,4.2224 -4.2754,1.7646 -4.2809,1.6135 -4.2847,1.454 -4.2862,1.2835 -4.2857,1.0973 -0.1784,4.7932 -0.2401,4.7905 4.1738,1.4666 4.1581,1.6522 4.1416,1.8219 4.1241,1.9804 4.1053,2.1306 -0.3455,4.2083 -0.3906,4.2043 -4.4129,1.3853 -4.4053,1.2342 -4.395,1.0751 -4.3818,0.905 -4.3651,0.7196 -0.5954,4.7594 -0.6567,4.7513 4.0301,1.8249 3.9983,2.0083 3.967,2.1759 3.9358,2.3323 3.904,2.4803 -0.7109,4.1622 -0.7556,4.1543 -4.5168,0.9954 -4.4961,0.8456 -4.472,0.6879 -4.4441,0.5196 -4.4111,0.3365 -1.008,4.6894 -1.0683,4.676 3.8557,2.1691 3.808,2.3491 3.7623,2.5134 3.7175,2.6665 3.673,2.8111 -1.0709,4.0844 -1.1148,4.0726 -4.5864,0.598 -4.5527,0.4505 -4.5149,0.2955 -4.4724,0.1304 -4.4237,-0.0493 -1.4128,4.5837 -1.4718,4.5651 3.6519,2.4969 3.5888,2.6721 3.529,2.8317 3.4709,2.9804 3.414,3.1204 -1.4228,3.9755 -1.4655,3.96 -4.6211,0.196 -4.5746,0.052 -4.5235,-0.0991 -4.4668,-0.2599 -4.4025,-0.4347 -1.807,4.4431 -1.864,4.4195 3.4204,2.8057 3.3423,2.9747 3.2687,3.1285 3.198,3.2715 3.129,3.4062 -1.7639,3.8364 -1.805,3.8172 -4.6206,-0.2076 -4.5618,-0.3469 -4.4976,-0.493 -4.4271,-0.6482 -4.348,-0.8167 -2.1873,4.2687 -2.2421,4.2402 3.1629,3.0931 3.0703,3.2547 2.9835,3.4015 2.9007,3.5378 2.8203,3.6659 -2.0916,3.668 -2.1308,3.6454 -4.5849,-0.6095 -4.5142,-0.7431 -4.4376,-0.8831 -4.3537,-1.0316 -4.2602,-1.1926 -2.551,4.0618 -2.6032,4.0287 2.8813,3.357 2.7749,3.5099 2.6758,3.6486 2.5813,3.7771 2.49,3.8978 -2.4033,3.4718 -2.4404,3.4458 -4.5144,-1.0068 -4.4322,-1.1338 -4.3437,-1.2665 -4.2473,-1.4071 -4.14,-1.5593 -2.8954,3.824 -2.9444,3.7864 2.5778,3.5954 2.4584,3.7384 2.3476,3.8679 2.2423,3.9878 2.1409,4.0999 -2.6968,3.2491 -2.7315,3.22 -4.4094,-1.3964 -4.3165,-1.5157 -4.2168,-1.6403 -4.1085,-1.772 -3.9884,-1.9142 -3.2176,3.5572 -3.2632,3.5154 2.2546,3.8063 2.1233,3.9384 2.0015,4.0579 1.8862,4.168 1.7754,4.2709 -2.9697,3.0017 -3.0017,2.9697 -4.2709,-1.7754 -4.168,-1.8862 -4.0579,-2.0015 -3.9384,-2.1233 -3.8063,-2.2546 -3.5154,3.2632 -3.5572,3.2176 1.9142,3.9884 1.772,4.1085 1.6403,4.2168 1.5157,4.3165 1.3964,4.4094 -3.22,2.7315 -3.2491,2.6968 -4.0999,-2.1409 -3.9878,-2.2423 -3.8679,-2.3476 -3.7384,-2.4584 -3.5954,-2.5778 -3.7864,2.9444 -3.824,2.8954 1.5593,4.14 1.4071,4.2473 1.2665,4.3437 1.1338,4.4322 1.0068,4.5144 -3.4458,2.4404 -3.4718,2.4033 -3.8978,-2.49 -3.7771,-2.5813 -3.6486,-2.6758 -3.5099,-2.7749 -3.357,-2.8813 -4.0287,2.6032 -4.061799,2.551 1.192599,4.2602 1.0316,4.3537 0.8831,4.4376 0.7431,4.5142 0.6095,4.5849 -3.6454,2.1308 -3.667999,2.0916 -3.6659,-2.8203 -3.5378,-2.9007 -3.4015,-2.9835 -3.2547,-3.0703 -3.0931,-3.1629 -4.2402,2.2421 -4.2687,2.1873 0.8167,4.348 0.6482,4.4271 0.493,4.4976 0.3469,4.5618 0.2076,4.6206 -3.8172,1.805 -3.8364,1.7639 -3.4062,-3.129 -3.2715,-3.198 -3.1285,-3.2687 -2.9747,-3.3423 -2.8057,-3.4204 -4.4195,1.864 -4.4431,1.807 0.4347,4.4025 0.2599,4.4668 0.0991,4.5235 -0.052,4.5746 -0.196,4.6211 -3.96,1.4655 -3.9755,1.4228 -3.1204,-3.414 -2.9804,-3.4709 -2.8317,-3.529 -2.6721,-3.5888 -2.4969,-3.6519 -4.5651,1.4718 -4.5837,1.4128 0.0493,4.4237 -0.1304,4.4724 -0.2955,4.5149 -0.4505,4.5527 -0.598,4.5864 -4.0726,1.1148 -4.0844,1.0709 -2.8111,-3.673 -2.6665,-3.7175 -2.5134,-3.7623 -2.3491,-3.808 -2.1691,-3.8557 -4.676,1.0683 -4.6894,1.008 -0.3365,4.4111 -0.5196,4.4441 -0.6879,4.472 -0.8456,4.4961 -0.9954,4.5168 -4.1543,0.7556 -4.1622,0.7109 -2.4803,-3.904 -2.3323,-3.9358 -2.1759,-3.967 -2.0083,-3.9983 -1.8249,-4.0301 -4.7513,0.6567 -4.7594,0.5954 -0.7196,4.3651 -0.905,4.3818 -1.0751,4.395 -1.2342,4.4053 -1.3853,4.4129 -4.2043,0.3906 -4.2083,0.3455 -2.1306,-4.1053 -1.9804,-4.1241 -1.8219,-4.1416 -1.6522,-4.1581 -1.4666,-4.1738 -4.7905,0.2401 -4.7932,0.1784 -1.0973,4.2857 -1.2835,4.2862 -1.454,4.2847 -1.6135,4.2809 -1.7646,4.2754 -4.2224,0.0227 -4.222401,-0.0227 -1.7646,-4.2754 -1.6135,-4.2809 -1.454,-4.2847 -1.2835,-4.2862 -1.0973,-4.2857 -4.7932,-0.1784 -4.7905,-0.2401 -1.4666,4.1738 -1.6522,4.1581 -1.8219,4.1416 -1.9804,4.1241 -2.1306,4.1053 -4.2083,-0.3455 -4.2043,-0.3906 -1.3853,-4.4129 -1.2342,-4.4053 -1.0751,-4.395 -0.905,-4.3818 -0.7196,-4.3651 -4.7594,-0.5954 -4.7513,-0.6567 -1.8249,4.0301 -2.0083,3.9983 -2.1759,3.967 -2.3323,3.9358 -2.4803,3.904 -4.1622,-0.7109 -4.1543,-0.7556 -0.9954,-4.5168 -0.8456,-4.4961 -0.6879,-4.472 -0.5196,-4.4441 -0.3365,-4.4111 -4.6894,-1.008 -4.676,-1.0683 -2.1691,3.8557 -2.3491,3.808 -2.5134,3.7623 -2.6665,3.7175 -2.8111,3.673 -4.0844,-1.0709 -4.0726,-1.1148 -0.598,-4.5864 -0.4505,-4.5527 -0.2955,-4.5149 -0.1304,-4.4724 0.0493,-4.4237 -4.5837,-1.4128 -4.5651,-1.4718 -2.4969,3.6519 -2.6721,3.5888 -2.8317,3.529 -2.9804,3.4709 -3.1204,3.414 -3.9755,-1.4228 -3.96,-1.4655 -0.196,-4.6211 -0.052,-4.5746 0.0991,-4.5235 0.2599,-4.4668 0.4347,-4.4025 -4.4431,-1.807 -4.4195,-1.864 -2.8057,3.4204 -2.9747,3.3423 -3.1285,3.2687 -3.2715,3.198 -3.4062,3.129 -3.8364,-1.7639 -3.8172,-1.805 0.2076,-4.6206 0.3469,-4.5618 0.493,-4.4976 0.6482,-4.4271 0.8167,-4.348 -4.2687,-2.1873 -4.2402,-2.2421 -3.0931,3.1629 -3.2547,3.0703 -3.4015,2.9835 -3.5378,2.9007 -3.6659,2.8203 -3.668,-2.0916 -3.6454,-2.1308 0.6095,-4.5849 0.7431,-4.5142 0.8831,-4.4376 1.0316,-4.3537 1.1926,-4.2602 -4.0618,-2.551 -4.0287,-2.6032 -3.357,2.8813 -3.5099,2.7749 -3.6486,2.6758 -3.7771,2.5813 -3.8978,2.49 -3.4718,-2.4033 -3.4458,-2.4404 1.0068,-4.5144 1.1338,-4.4322 1.2665,-4.3437 1.4071,-4.2473 1.5593,-4.14 -3.824,-2.8954 -3.7864,-2.9444 -3.5954,2.5778 -3.7384,2.4584 -3.8679,2.3476 -3.9878,2.2423 -4.0999,2.1409 -3.2491,-2.6968 -3.22,-2.7315 1.3964,-4.4094 1.5157,-4.3165 1.6403,-4.2168 1.772,-4.1085 1.9142,-3.9884 -3.5572,-3.2176 -3.5154,-3.2632 -3.8063,2.2546 -3.9384,2.1233 -4.0579,2.0015 -4.168,1.8862 -4.2709,1.7754 -3.0017,-2.9697 -2.9697,-3.0017 1.7754,-4.2709 1.8862,-4.168 2.0015,-4.0579 2.1233,-3.9384 2.2546,-3.8063 -3.2632,-3.5154 -3.2176,-3.5572 -3.9884,1.9142 -4.1085,1.772 -4.2168,1.6403 -4.3165,1.5157 -4.4094,1.3964 -2.7315,-3.22 -2.6968,-3.2491 2.1409,-4.0999 2.2423,-3.9878 2.3476,-3.8679 2.4584,-3.7384 2.5778,-3.5954 -2.9444,-3.7864 -2.8954,-3.824 -4.14,1.5593 -4.2473,1.4071 -4.3437,1.2665 -4.4322,1.1338 -4.5144,1.0068 -2.4404,-3.4458 -2.4033,-3.4718 2.49,-3.8978 2.5813,-3.7771 2.6758,-3.6486 2.7749,-3.5099 2.8813,-3.357 -2.6032,-4.0287 -2.551,-4.0618 -4.2602,1.1926 -4.3537,1.0316 -4.4376,0.8831 -4.5142,0.7431 -4.5849,0.6095 -2.1308,-3.6454 -2.0916,-3.668 2.8203,-3.6659 2.9007,-3.5378 2.9835,-3.4015 3.0703,-3.2547 3.1629,-3.0931 -2.2421,-4.2402 -2.1873,-4.2687 -4.348,0.8167 -4.4271,0.6482 -4.4976,0.493 -4.5618,0.3469 -4.6206,0.2076 -1.805,-3.8172 -1.7639,-3.8364 3.129,-3.4062 3.198,-3.2715 3.2687,-3.1285 3.3423,-2.9747 3.4204,-2.8057 -1.864,-4.4195 -1.807,-4.4431 -4.4025,0.4347 -4.4668,0.2599 -4.5235,0.0991 -4.5746,-0.052 -4.6211,-0.196 -1.4655,-3.96 -1.4228,-3.9755 3.414,-3.1204 3.4709,-2.9804 3.529,-2.8317 3.5888,-2.6721 3.6519,-2.4969 -1.4718,-4.5651 -1.4128,-4.5837 -4.4237,0.0493 -4.4724,-0.1304 -4.5149,-0.2955 -4.5527,-0.4505 -4.5864,-0.598 -1.1148,-4.0726 -1.0709,-4.0844 3.673,-2.8111 3.7175,-2.6665 3.7623,-2.5134 3.808,-2.3491 3.8557,-2.1691 -1.0683,-4.676 -1.008,-4.6894 -4.4111,-0.3365 -4.4441,-0.5196 -4.472,-0.6879 -4.4961,-0.8456 -4.5168,-0.9954 -0.7556,-4.1543 -0.7109,-4.1622 3.904,-2.4803 3.9358,-2.3323 3.967,-2.1759 3.9983,-2.0083 4.0301,-1.8249 -0.6567,-4.7513 -0.5954,-4.7594 -4.3651,-0.7196 -4.3818,-0.905 -4.395,-1.0751 -4.4053,-1.2342 -4.4129,-1.3853 -0.3906,-4.2043 -0.3455,-4.2083 4.1053,-2.1306 4.1241,-1.9804 4.1416,-1.8219 4.1581,-1.6522 4.1738,-1.4666 -0.2401,-4.7905 -0.1784,-4.7932 -4.2857,-1.0973 -4.2862,-1.2835 -4.2847,-1.454 -4.2809,-1.6135 -4.2754,-1.7646 -0.0227,-4.2224 0.0227,-4.2224 4.2754,-1.7646 4.2809,-1.6135 4.2847,-1.454 4.2862,-1.2835 4.2857,-1.0973 0.1784,-4.7932 0.2401,-4.7905 -4.1738,-1.4666 -4.1581,-1.6522 -4.1416,-1.8219 -4.1241,-1.9804 -4.1053,-2.1306 0.3455,-4.2083 0.3906,-4.2043 4.4129,-1.3853 4.4053,-1.2342 4.395,-1.0751 4.3818,-0.905 4.3651,-0.7196 0.5954,-4.7594 0.6567,-4.7513 -4.0301,-1.8249 -3.9983,-2.0083 -3.967,-2.1759 -3.9358,-2.3323 -3.904,-2.4803 0.7109,-4.1622 0.7556,-4.1543 4.5168,-0.9954 4.4961,-0.8456 4.472,-0.6879 4.4441,-0.5196 4.4111,-0.3365 1.008,-4.6894 1.0683,-4.676 -3.8557,-2.1691 -3.808,-2.3491 -3.7623,-2.5134 -3.7175,-2.6665 -3.673,-2.8111 1.0709,-4.0844 1.1148,-4.0726 4.5864,-0.598 4.5527,-0.4505 4.5149,-0.2955 4.4724,-0.1304 4.4237,0.0493 1.4128,-4.5837 1.4718,-4.5651 -3.6519,-2.4969 -3.5888,-2.6721 -3.529,-2.8317 -3.4709,-2.9804 -3.414,-3.1204 1.4228,-3.9755 1.4655,-3.96 4.6211,-0.196 4.5746,-0.052 4.5235,0.0991 4.4668,0.2599 4.4025,0.4347 1.807,-4.4431 1.864,-4.4195 -3.4204,-2.8057 -3.3423,-2.9747 -3.2687,-3.1285 -3.198,-3.2715 -3.129,-3.4062 1.7639,-3.8364 1.805,-3.8172 4.6206,0.2076 4.5618,0.3469 4.4976,0.493 4.4271,0.6482 4.348,0.8167 2.1873,-4.2687 2.2421,-4.2402 -3.1629,-3.0931 -3.0703,-3.2547 -2.9835,-3.4015 -2.9007,-3.5378 -2.8203,-3.6659 2.0916,-3.668 2.1308,-3.6454 4.5849,0.6095 4.5142,0.7431 4.4376,0.8831 4.3537,1.0316 4.2602,1.1926 2.551,-4.0618 2.6032,-4.0287 -2.8813,-3.357 -2.7749,-3.5099 -2.6758,-3.6486 -2.5813,-3.7771 -2.49,-3.8978 2.4033,-3.4718 2.4404,-3.4458 4.5144,1.0068 4.4322,1.1338 4.3437,1.2665 4.2473,1.4071 4.14,1.5593 2.8954,-3.824 2.9444,-3.7864 -2.5778,-3.5954 -2.4584,-3.7384 -2.3476,-3.8679 -2.2423,-3.9878 -2.1409,-4.0999 2.6968,-3.2491 2.7315,-3.22 4.4094,1.3964 4.3165,1.5157 4.2168,1.6403 4.1085,1.772 3.9884,1.9142 3.2176,-3.5572 3.2632,-3.5154 -2.2546,-3.8063 -2.1233,-3.9384 -2.0015,-4.0579 -1.8862,-4.168 -1.7754,-4.2709 2.9697,-3.0017 3.0017,-2.9697 4.2709,1.7754 4.168,1.8862 4.0579,2.0015 3.9384,2.1233 3.8063,2.2546 3.5154,-3.2632 3.5572,-3.2176 -1.9142,-3.9884 -1.772,-4.1085 -1.6403,-4.2168 -1.5157,-4.3165 -1.3964,-4.4094 3.22,-2.7315 3.2491,-2.6968 4.0999,2.1409 3.9878,2.2423 3.8679,2.3476 3.7384,2.4584 3.5954,2.5778 3.7864,-2.9444 3.824,-2.8954 -1.5593,-4.14 -1.4071,-4.2473 -1.2665,-4.3437 -1.1338,-4.4322 -1.0068,-4.5144 3.4458,-2.4404 3.4718,-2.4033 3.8978,2.49 3.7771,2.5813 3.6486,2.6758 3.5099,2.7749 3.357,2.8813 4.0287,-2.6032 4.0618,-2.551 -1.1926,-4.2602 -1.0316,-4.3537 -0.8831,-4.4376 -0.7431,-4.5142 -0.6095,-4.5849 3.6454,-2.1308 3.668,-2.0916 3.6659,2.8203 3.5378,2.9007 3.4015,2.9835 3.2547,3.0703 3.0931,3.1629 4.2402,-2.2421 4.2687,-2.1873 -0.8167,-4.348 -0.6482,-4.4271 -0.493,-4.4976 -0.3469,-4.5618 -0.2076,-4.6206 3.8172,-1.805 3.8364,-1.7639 3.4062,3.129 3.2715,3.198 3.1285,3.2687 2.9747,3.3423 2.8057,3.4204 4.4195,-1.864 4.4431,-1.807 -0.4347,-4.4025 -0.2599,-4.4668 -0.0991,-4.5235 0.052,-4.5746 0.196,-4.6211 3.96,-1.4655 3.9755,-1.4228 3.1204,3.414 2.9804,3.4709 2.8317,3.529 2.6721,3.5888 2.4969,3.6519 4.5651,-1.4718 4.5837,-1.4128 -0.0493,-4.4237 0.1304,-4.4724 0.2955,-4.5149 0.4505,-4.5527 0.598,-4.5864 4.0726,-1.1148 4.0844,-1.0709 2.8111,3.673 2.6665,3.7175 2.5134,3.7623 2.3491,3.808 2.1691,3.8557 4.676,-1.0683 4.6894,-1.008 0.3365,-4.4111 0.5196,-4.4441 0.6879,-4.472 0.8456,-4.4961 0.9954,-4.5168 4.1543,-0.7556 4.1622,-0.7109 2.4803,3.904 2.3323,3.9358 2.1759,3.967 2.0083,3.9983 1.8249,4.0301 4.7513,-0.6567 4.7594,-0.5954 0.7196,-4.3651 0.905,-4.3818 1.0751,-4.395 1.2342,-4.4053 1.3853,-4.4129 4.2043,-0.3906 4.2083,-0.3455 2.1306,4.1053 1.9804,4.1241 1.8219,4.1416 1.6522,4.1581 1.4666,4.1738 4.7905,-0.2401 4.7932,-0.1784 1.0973,-4.2857 1.2835,-4.2862 1.454,-4.2847 1.6135,-4.2809 1.7646,-4.2754 4.222401,-0.0227 4.2224,0.0227 1.7646,4.2754 1.6135,4.2809 1.454,4.2847 1.2835,4.2862 1.0973,4.2857 4.7932,0.1784 4.7905,0.2401 1.4666,-4.1738 1.6522,-4.1581 1.8219,-4.1416 1.9804,-4.1241 2.1306,-4.1053 4.2083,0.3455 4.2043,0.3906 1.3853,4.4129 1.2342,4.4053 1.0751,4.395 0.905,4.3818 0.7196,4.3651 4.7594,0.5954 4.7513,0.6567 1.8249,-4.0301 2.0083,-3.9983 2.1759,-3.967 2.3323,-3.9358 2.4803,-3.904 4.1622,0.7109 4.1543,0.7556 0.9954,4.5168 0.8456,4.4961 0.6879,4.472 0.5196,4.4441 0.3365,4.4111 4.6894,1.008 4.676,1.0683 2.1691,-3.8557 2.3491,-3.808 2.5134,-3.7623 2.6665,-3.7175 2.8111,-3.673 4.0844,1.0709 4.0726,1.1148 0.598,4.5864 0.4505,4.5527 0.2955,4.5149 0.1304,4.4724 -0.0493,4.4237 4.5837,1.4128 4.5651,1.4718 2.4969,-3.6519 2.6721,-3.5888 2.8317,-3.529 2.9804,-3.4709 3.1204,-3.414 3.9755,1.4228 3.96,1.4655 0.196,4.6211 0.052,4.5746 -0.0991,4.5235 -0.2599,4.4668 -0.4347,4.4025 4.4431,1.807 4.4195,1.864 2.8057,-3.4204 2.9747,-3.3423 3.1285,-3.2687 3.2715,-3.198 3.4062,-3.129 3.8364,1.7639 3.8172,1.805 -0.2076,4.6206 -0.3469,4.5618 -0.493,4.4976 -0.6482,4.4271 -0.8167,4.348 4.2687,2.1873 4.2402,2.2421 3.0931,-3.1629 3.2547,-3.0703 3.4015,-2.9835 3.5378,-2.9007 3.6659,-2.8203 3.667999,2.0916 3.6454,2.1308 -0.6095,4.5849 -0.7431,4.5142 -0.8831,4.4376 -1.0316,4.3537 -1.192599,4.2602 4.061799,2.551 4.0287,2.6032 3.357,-2.8813 3.5099,-2.7749 3.6486,-2.6758 3.7771,-2.5813 3.8978,-2.49 3.4718,2.4033 3.4458,2.4404 -1.0068,4.5144 -1.1338,4.4322 -1.2665,4.3437 -1.4071,4.2473 -1.5593,4.14 3.824,2.8954 3.7864,2.9444 3.5954,-2.5778 3.7384,-2.4584 3.8679,-2.3476 3.9878,-2.2423 4.0999,-2.1409 3.2491,2.6968 3.22,2.7315 -1.3964,4.4094 -1.5157,4.3165 -1.6403,4.2168 -1.772,4.1085 -1.9142,3.9884 3.5572,3.2176 3.5154,3.2632 3.8063,-2.2546 3.9384,-2.1233 4.0579,-2.0015 4.168,-1.8862 4.2709,-1.7754 3.0017,2.9697 2.9697,3.0017 -1.7754,4.2709 -1.8862,4.168 -2.0015,4.0579 -2.1233,3.9384 -2.2546,3.8063 3.2632,3.5154 3.2176,3.5572 3.9884,-1.9142 4.1085,-1.772 4.2168,-1.6403 4.3165,-1.5157 4.4094,-1.3964 2.7315,3.22 2.6968,3.2491 -2.1409,4.0999 -2.2423,3.9878 -2.3476,3.8679 -2.4584,3.7384 -2.5778,3.5954 2.9444,3.7864 2.8954,3.824 4.14,-1.5593 4.2473,-1.4071 4.3437,-1.2665 4.4322,-1.1338 4.5144,-1.0068 2.4404,3.4458 2.4033,3.4718 -2.49,3.8978 -2.5813,3.7771 -2.6758,3.6486 -2.7749,3.5099 -2.8813,3.357 2.6032,4.0287 2.551,4.0618 4.2602,-1.1926 4.3537,-1.0316 4.4376,-0.8831 4.5142,-0.7431 4.5849,-0.6095 2.1308,3.6454 2.0916,3.668 -2.8203,3.6659 -2.9007,3.5378 -2.9835,3.4015 -3.0703,3.2547 -3.1629,3.0931 2.2421,4.2402 2.1873,4.2687 4.348,-0.8167 4.4271,-0.6482 4.4976,-0.493 4.5618,-0.3469 4.6206,-0.2076 1.805,3.8172 1.7639,3.8364 -3.129,3.4062 -3.198,3.2715 -3.2687,3.1285 -3.3423,2.9747 -3.4204,2.8057 1.864,4.4195 1.807,4.4431 4.4025,-0.4347 4.4668,-0.2599 4.5235,-0.0991 4.5746,0.052 4.6211,0.196 1.4655,3.96 1.4228,3.9755 -3.414,3.1204 -3.4709,2.9804 -3.529,2.8317 -3.5888,2.6721 -3.6519,2.4969 1.4718,4.5651 1.4128,4.5837 4.4237,-0.0493 4.4724,0.1304 4.5149,0.2955 4.5527,0.4505 4.5864,0.598 1.1148,4.0726 1.0709,4.0844 -3.673,2.8111 -3.7175,2.6665 -3.7623,2.5134 -3.808,2.3491 -3.8557,2.1691 1.0683,4.676 1.008,4.6894 4.4111,0.3365 4.4441,0.5196 4.472,0.6879 4.4961,0.8456 4.5168,0.9954 0.7556,4.1543 0.7109,4.1622 -3.904,2.4803 -3.9358,2.3323 -3.967,2.1759 -3.9983,2.0083 -4.0301,1.8249 0.6567,4.7513 0.5954,4.7594 4.3651,0.7196 4.3818,0.905 4.395,1.0751 4.4053,1.2342 4.4129,1.3853 0.3906,4.2043 0.3455,4.2083 -4.1053,2.1306 -4.1241,1.9804 -4.1416,1.8219 -4.1581,1.6522 -4.1738,1.4666 0.2401,4.7905 z m -341.185559,29.15183 a 35.433071,35.433071 0 0 1 -4.354037,5.99282 L 24.466721,826.13027 A 336.61417,336.61417 0 0 0 239.88958,529.62612 Z m -38.052891,16.94224 a 35.433071,35.433071 0 0 1 -7.04498,-2.28905 L -357.79366,723.82518 A 336.61417,336.61417 0 0 0 -9.232137,837.07969 Z M -131.497,515.61335 a 35.433071,35.433071 0 0 1 0,-7.40752 L -378.6207,328.65995 a 336.61417,336.61417 0 0 0 0,366.49928 z m 20.82703,-36.07348 a 35.433071,35.433071 0 0 1 7.04498,-2.28905 L -9.232137,186.73949 A 336.61417,336.61417 0 0 0 -357.79366,299.994 Z m 40.743834,8.66037 a 35.433071,35.433071 0 0 1 4.354037,5.99281 l 305.461679,0 A 336.61417,336.61417 0 0 0 24.466721,197.68891 Z m -26.331903,41.42588 a 17.716535,17.716535 0 0 0 0,-35.43307 17.716535,17.716535 0 1 0 0,35.43307"
       id="path4679" />
    <path
       style="fill:#808080"
       d="m 394.64564,788.95637 c -0.82366,-1.33271 -2.59399,-6.15603 -3.93406,-10.71846 -2.0594,-7.01141 -3.34207,-8.37805 -8.28725,-8.82975 -5.2715,-0.4815 -6.29515,0.48435 -10.33956,9.75555 -5.87806,13.47453 -10.76618,13.10437 -13.76747,-1.04256 -1.76025,-8.29717 -3.01708,-10.19442 -7.55784,-11.4088 -4.97344,-1.33011 -5.91541,-0.59506 -10.8454,8.46296 -6.4874,11.91947 -12.10912,13.29393 -13.71676,3.35356 -0.58407,-3.61129 -1.30712,-8.77764 -1.60679,-11.48075 -0.37879,-3.41684 -2.21862,-5.35954 -6.03657,-6.37412 -4.92352,-1.30837 -6.07318,-0.53302 -11.11168,7.49406 -4.01748,6.40043 -6.7721,8.79404 -9.66057,8.39443 -3.4123,-0.47207 -4.13385,-2.33263 -4.64022,-11.96483 -0.58645,-11.15571 -2.48627,-13.623 -10.64167,-13.82041 -0.62686,-0.0162 -4.17383,4.02182 -7.88216,8.97111 -5.81723,7.76385 -7.2907,8.70525 -10.7379,6.86035 -3.45679,-1.85002 -3.84541,-3.59249 -2.88235,-12.92357 1.06403,-10.30964 0.87509,-10.86498 -4.28479,-12.59355 -4.77727,-1.60039 -6.22724,-0.87591 -12.61052,6.30084 -5.31829,5.97942 -8.17145,7.74123 -10.86356,6.70816 -3.16748,-1.21547 -3.47517,-2.9551 -2.32335,-13.13578 1.2341,-10.90805 1.00085,-11.88365 -3.3107,-13.84814 -3.95521,-1.80211 -5.7989,-1.11009 -12.51894,4.69891 -12.64882,10.93403 -17.08594,8.45106 -13.39619,-7.4964 1.85004,-7.99609 1.62496,-9.29318 -2.16292,-12.46446 -4.08945,-3.42375 -4.54305,-3.30821 -13.85805,3.52962 -8.53815,6.26759 -9.92618,6.71262 -12.24015,3.92444 -2.14407,-2.58345 -2.04662,-4.90633 0.54598,-13.01359 2.99669,-9.37091 2.95911,-10.0469 -0.74487,-13.39895 -4.17327,-3.77678 -3.92129,-3.85274 -20.35411,6.13629 -2.51836,1.53083 -4.18595,1.41765 -6.01166,-0.40806 -2.02186,-2.02186 -1.80061,-4.57049 1.10765,-12.75887 3.41425,-9.61304 3.42756,-10.46064 0.22003,-14.00492 -3.32266,-3.6715 -3.6857,-3.63501 -13.54464,1.36088 -8.62757,4.37192 -10.54529,4.71868 -12.92662,2.33735 -2.38132,-2.38131 -2.047,-4.27587 2.25352,-12.77049 4.91393,-9.70625 4.94915,-10.07486 1.31056,-13.71345 -3.62437,-3.62438 -4.05574,-3.62665 -14.05885,-0.0739 -14.454801,5.1339 -16.752143,2.36907 -9.19791,-11.06955 5.52533,-9.82933 5.59068,-10.27808 2.06444,-14.17455 -3.38948,-3.74532 -4.206287,-3.82457 -11.800889,-1.14504 -4.487649,1.58341 -9.437298,2.87887 -10.99922,2.87887 -5.700422,0 -5.219818,-6.29709 1.078799,-14.13486 5.65963,-7.04266 6.070057,-8.42429 3.910488,-13.16403 -1.811731,-3.97632 -3.449138,-5.01003 -6.572798,-4.14952 -21.30922,5.8703 -26.001761,2.21678 -14.77782,-11.5057 5.763471,-7.04646 6.656929,-9.33878 5.043002,-12.93872 -1.724896,-3.84747 -3.430658,-4.33473 -14.145095,-4.04061 -15.437402,0.42376 -16.69046,-2.37196 -5.604896,-12.50516 7.643901,-6.98721 8.183484,-8.11486 6.085876,-12.71861 -2.128288,-4.67109 -3.124036,-4.98345 -13.21806,-4.14638 -9.161397,0.75974 -11.141096,0.31968 -12.31416,-2.73727 -1.038833,-2.70717 0.800853,-5.53616 7.163994,-11.0165 7.314026,-6.29929 8.364493,-8.15995 7.208089,-12.76744 -1.277485,-5.08989 -2.031623,-5.3935 -13.397013,-5.3935 -11.28381,0 -12.002613,-0.2825 -11.397737,-4.47941 0.369451,-2.5634 4.202356,-6.86344 8.960981,-10.05311 6.795528,-4.55496 8.141193,-6.48498 7.362333,-10.55933 -0.680611,-3.56038 -2.624556,-5.30684 -6.800163,-6.10932 -3.215906,-0.61805 -8.574515,-1.65051 -11.908018,-2.2944 -9.5581961,-1.84618 -7.772819,-7.43834 4.15903,-13.02691 9.212646,-4.31499 10.092525,-5.29445 8.927155,-9.93766 -1.638641,-6.52888 -0.827558,-5.94996 -12.318989,-8.79281 -13.9965331,-3.4626 -14.3243921,-8.38598 -0.93514,-14.04278 8.766849,-3.70388 10.269469,-5.14313 10.269469,-9.8363 0,-4.81317 -1.275493,-5.92123 -10.245601,-8.90063 -16.3231662,-5.42167 -15.7584395,-10.72136 1.659305,-15.57173 7.531934,-2.09744 8.586296,-3.09759 8.586296,-8.1449 0,-4.99803 -1.326946,-6.30531 -10.101525,-9.95186 -12.6637632,-5.26283 -13.6446835,-10.5666 -2.525381,-13.65459 4.166879,-1.15719 9.167134,-2.10908 11.111678,-2.11526 1.944543,-0.006 3.535534,-1.30064 3.535534,-2.87649 0,-1.57588 0.531081,-4.24921 1.180179,-5.94073 0.842752,-2.19617 -1.793461,-4.58236 -9.220367,-8.34586 -15.2964846,-7.75131 -11.963523,-14.37366 7.535111,-14.97169 4.22661,-0.12971 6.565992,-1.22223 6.565992,-3.0666 0,-1.57588 0.506915,-4.18624 1.126475,-5.80079 0.749835,-1.95403 -1.952164,-4.73975 -8.08122,-8.33161 C 14.46345,298.833 17.584299,292.23871 36.438238,292.168 c 6.240732,-0.0234 7.558565,-0.83017 8.684621,-5.31674 0.730122,-2.90904 1.055963,-5.48036 0.724093,-5.71405 -10.929784,-7.69623 -15.755688,-12.44399 -15.755688,-15.50055 0,-3.28697 1.594966,-3.80082 11.797541,-3.80082 10.609196,0 12.028296,-0.50645 14.088407,-5.02791 2.077601,-4.55983 1.531695,-5.73605 -5.864036,-12.6347 -5.919942,-5.52206 -7.776255,-8.59357 -6.773289,-11.20726 1.187762,-3.09525 2.991387,-3.4183 12.854654,-2.3024 10.697681,1.2103 11.61874,0.97629 13.628994,-3.46283 1.864976,-4.11829 1.221567,-5.80225 -4.767205,-12.47694 -3.80774,-4.24387 -6.606513,-9.24412 -6.219495,-11.11168 0.719873,-3.47379 2.027257,-3.57886 16.711293,-1.34311 6.819011,1.03824 8.489643,0.56149 10.696122,-3.05234 2.304406,-3.77422 1.884595,-5.27582 -3.535534,-12.64605 -10.17577,-13.8369 -8.039661,-17.19169 7.927339,-12.45 9.895365,2.93861 10.704865,2.90579 13.317045,-0.53993 3.77747,-4.98283 3.67296,-5.63253 -2.37636,-14.77368 -5.218873,-7.88625 -5.370045,-14.25561 -0.33313,-14.03598 1.42383,0.0621 6.63648,1.75402 11.58366,3.75986 8.87678,3.59911 9.03985,3.59143 12.4217,-0.58498 3.25275,-4.01697 3.17483,-4.72929 -1.53363,-14.021 -3.8437,-7.58518 -4.43609,-10.42088 -2.63124,-12.59559 1.95693,-2.35795 3.95693,-1.98175 12.51212,2.35349 10.09992,5.11801 10.21502,5.12792 14.12709,1.21585 3.85834,-3.85834 3.86441,-4.16887 0.27895,-14.26395 -5.18303,-14.593166 -2.25085,-16.987329 10.89687,-8.89745 9.42564,5.79965 10.10726,5.92916 14.35254,2.72694 4.30691,-3.24871 4.35266,-3.65748 1.35895,-12.142549 -1.7039,-4.829368 -3.098,-10.058602 -3.098,-11.620524 0,-5.6393 6.10074,-5.041336 14.22654,1.394412 7.29795,5.780085 8.83388,6.261255 13.37773,4.190939 3.90319,-1.778414 4.87478,-3.415938 4.05469,-6.833849 -3.68809,-15.371142 -3.71861,-19.08302 -0.16809,-20.44548 2.49446,-0.957214 5.83261,0.866071 11.22373,6.130359 6.93989,6.776633 8.16383,7.269284 12.80551,5.154395 4.87293,-2.220255 5.06486,-2.911512 3.79888,-13.682991 -1.84472,-15.695625 1.57341,-17.532396 12.56041,-6.749474 7.30521,7.169521 8.83918,7.861181 13.50241,6.08822 4.98904,-1.896828 5.20279,-2.563569 4.13585,-12.901151 -0.96936,-9.39232 -0.60112,-11.10485 2.66088,-12.374258 2.89443,-1.12637 5.51937,0.529478 11.1472,7.031777 6.21197,7.177237 8.18332,8.298749 12.6269,7.183484 4.87734,-1.224135 5.26567,-2.142869 5.26567,-12.458191 0,-8.501093 0.79163,-11.440373 3.34514,-12.420243 3.33164,-1.278471 4.75151,0.0089 14.01762,12.709506 3.78454,5.18726 4.76701,5.554617 9.31433,3.482713 4.09387,-1.865291 5.29231,-4.168255 6.15581,-11.829319 1.7706,-15.7086992 7.82416,-16.0564434 14.68423,-0.84353 3.05064,6.765117 4.56599,8.087571 8.69458,7.587765 5.58122,-0.675654 7.03822,-2.822421 10.35188,-15.252511 3.11333,-11.678602 7.45905,-11.1337216 12.84326,1.61033 3.94004,9.325826 4.8235,10.14537 10.34488,9.59645 5.27772,-0.524702 6.4137,-1.818377 9.03298,-10.286984 2.4375,-7.8808475 3.77217,-9.5757953 7.15899,-9.0913725 2.99371,0.428196 5.01408,3.2877615 7.19338,10.1812765 2.73359,8.646837 3.62416,9.582218 9.09137,9.548835 5.31831,-0.03249 6.6021,-1.268839 10.47785,-10.090921 2.50318,-5.697802 5.74458,-10.0539109 7.48117,-10.0539109 2.92682,0 7.25811,10.9845529 7.28352,18.4716719 0.0121,3.305736 3.92142,5.771989 9.15134,5.771989 1.51177,0 5.30126,-4.544761 8.42105,-10.099471 3.11982,-5.554709 6.12696,-10.086475 6.68255,-10.070589 3.83181,0.109559 6.33565,4.719976 7.38777,13.603369 1.04817,8.850224 1.93563,10.481038 6.29973,11.576355 2.79384,0.701207 5.68021,0.542743 6.41415,-0.352143 0.73396,-0.894884 3.83072,-5.036328 6.88166,-9.203207 8.81754,-12.042666 13.32915,-8.993587 13.39521,9.052882 0.0232,6.356263 0.82384,7.737502 5.10796,8.812748 4.21054,1.056778 6.39556,-0.206917 12.7617,-7.380661 9.48176,-10.684614 12.4625,-9.408621 12.4625,5.334941 0,9.815418 0.55936,11.290624 5.05848,13.340553 4.61233,2.101528 5.74649,1.559542 12.8596,-6.145344 5.53404,-5.994455 8.80916,-8.063316 11.26985,-7.119062 2.95508,1.133971 3.26809,3.059932 2.11368,13.006219 -1.23133,10.609378 -0.95825,11.887502 2.99175,14.001478 3.7584,2.011428 5.5379,1.35032 13.14586,-4.883839 9.59524,-7.862561 16.30271,-8.034301 14.46832,-0.370449 -4.05591,16.94485 -3.91424,19.23943 1.33552,21.631382 4.47536,2.039106 6.03148,1.554326 13.00844,-4.052497 5.05436,-4.061808 9.14516,-5.900447 11.29359,-5.076013 4.10148,1.573882 4.10772,1.810915 0.3742,14.176335 -2.88166,9.544069 -2.83138,10.041229 1.3356,13.202179 4.08009,3.09503 4.84669,2.95699 13.28011,-2.39132 13.55767,-8.598012 17.74725,-5.163346 11.61223,9.51982 -4.00125,9.57635 -3.82526,12.25284 0.9746,14.82164 3.15032,1.686 6.12704,1.06815 13.9481,-2.89509 8.06114,-4.08488 10.35954,-4.53671 12.14345,-2.38722 1.63546,1.9706 0.92102,5.17842 -2.78269,12.49417 -4.46927,8.82796 -4.68496,10.29787 -2.09176,14.2556 l 2.89134,4.41274 11.36763,-4.18754 c 14.6952,-5.41332 17.31107,-2.62413 9.70741,10.35055 -4.29192,7.32359 -4.80417,9.66854 -2.98452,13.66225 2.58542,5.67438 3.1861,5.74905 14.40514,1.79074 10.70402,-3.7766 11.40678,-3.76727 12.91823,0.17147 0.726,1.89195 -1.32843,6.76264 -5.02159,11.90528 -5.35752,7.46023 -5.91325,9.33312 -3.89066,13.11236 2.04988,3.83023 3.46674,4.23709 10.79358,3.09941 4.63866,-0.72026 9.91728,-1.72482 11.73024,-2.23235 1.84957,-0.51778 3.85991,0.54608 4.58053,2.42396 1.31916,3.43769 -0.0895,5.97745 -8.46194,15.25598 -4.12533,4.57181 -4.47858,6.00285 -2.4277,9.83493 2.19667,4.10455 3.38987,4.37263 14.07916,3.16327 10.07625,-1.14 11.87212,-0.82614 13.08576,2.28691 1.03464,2.65389 -0.77851,5.55769 -6.85518,10.9788 -7.40139,6.6029 -8.05372,7.918 -6.26341,12.62691 1.82159,4.79111 2.99199,5.25634 13.22354,5.25634 8.16953,0 11.5452,0.83419 12.40106,3.06448 1.06953,2.7872 -1.49798,5.59051 -13.096,14.29885 -1.98837,1.49297 -2.5074,3.95348 -1.59818,7.57615 1.15454,4.60005 2.42141,5.36904 8.88421,5.39268 18.8709,0.0691 21.72521,5.83955 7.37348,14.90672 -7.40777,4.6801 -9.02082,6.69044 -8.1052,10.10152 0.62872,2.34224 1.15556,4.81382 1.17073,5.49243 0.0162,0.6786 4.73204,1.791 10.48195,2.47198 9.1655,1.08551 13.65399,3.56162 13.75836,7.58986 0.0162,0.65678 -4.51476,3.66823 -10.0706,6.69208 -5.55584,3.02387 -10.10152,6.73055 -10.10152,8.23707 0,5.22091 2.46851,9.13058 5.77199,9.1418 1.82565,0.006 6.72864,0.95807 10.89552,2.11526 11.1193,3.08799 10.13838,8.39176 -2.52538,13.65459 -8.81073,3.66156 -10.10152,4.94126 -10.10152,10.01469 0,5.18791 1.03736,6.12818 9.59645,8.69827 7.24055,2.17415 9.75177,3.97337 10.22914,7.3289 0.53399,3.75346 -0.88445,4.88772 -9.09137,7.27 -8.49916,2.46712 -9.79967,3.56915 -10.32424,8.74859 -0.54694,5.40024 0.31923,6.31432 9.76439,10.30481 13.40127,5.66186 13.10328,10.3496 -0.88477,13.91798 -15.74646,4.01695 -18.1166,12.13826 -5.23738,17.94597 11.35448,5.12016 14.03421,8.74364 9.12243,12.33521 -2.11498,1.54653 -6.62634,2.82576 -10.02526,2.84277 -7.92986,0.0398 -10.63091,1.84355 -12.08476,8.07054 -1.00918,4.3224 0.12627,5.8144 8.0667,10.59931 12.97676,7.81985 11.76023,12.41081 -3.50148,13.21402 -10.4034,0.54753 -11.5184,1.0641 -12.7318,5.89859 -1.1269,4.49002 -0.0234,6.42368 7.23195,12.67244 6.36313,5.48034 8.20282,8.30933 7.16398,11.0165 -1.17305,3.05695 -3.15275,3.49701 -12.31414,2.73727 -10.07844,-0.83578 -11.092,-0.51984 -13.20419,4.11591 -2.06302,4.52785 -1.49091,5.83317 5.82298,13.28547 10.72382,10.92678 8.95569,14.42643 -6.37818,12.62424 -10.48044,-1.23178 -11.10986,-1.04173 -13.43234,4.05556 -2.23826,4.91245 -1.83066,5.96846 5.00617,12.97003 12.31946,12.61626 6.90096,16.68207 -14.40704,10.81035 -3.01579,-0.83105 -4.86736,0.22771 -6.83816,3.9102 -2.47567,4.62581 -2.15393,5.7426 3.8315,13.29983 10.18317,12.8573 5.9414,17.22569 -10.90017,11.22554 -7.13957,-2.54362 -8.20339,-2.4837 -10.54235,0.59375 -3.58263,4.71384 -3.45137,5.51295 2.6018,15.84194 4.5429,7.75185 4.91654,9.50651 2.52539,11.85919 -2.37532,2.33707 -4.30099,2.11013 -12.53642,-1.47745 l -9.73001,-4.23868 -4.08061,4.08061 -4.08062,4.08062 5.16004,10.18288 c 4.33526,8.55518 4.71146,10.5552 2.3535,12.51211 -2.17587,1.80581 -5.05947,1.18762 -12.83191,-2.75099 -9.81608,-4.97417 -10.09775,-5.00019 -13.49443,-1.24691 -3.26055,3.60287 -3.26586,4.44514 -0.0885,14.01128 5.07013,15.26474 1.53763,18.11121 -11.49011,9.25864 -8.54629,-5.80737 -9.35484,-5.92443 -14.41932,-2.08771 -3.57555,2.70873 -3.59143,3.28676 -0.35779,13.02234 5.25123,15.80998 1.3137,18.37102 -12.55923,8.16874 -7.35829,-5.41134 -8.87221,-5.83619 -12.59828,-3.53553 -3.61521,2.23224 -4.02715,3.79755 -2.81491,10.69612 3.29302,18.73956 -0.27377,21.67693 -12.74,10.49181 -6.63543,-5.95356 -8.37437,-6.625 -12.41631,-4.79426 -4.39102,1.98884 -4.61064,2.90067 -3.33858,13.86086 1.16911,10.07314 0.86215,11.92364 -2.17102,13.08758 -2.5349,0.97274 -5.7353,-1.00577 -11.33149,-7.00516 -7.08492,-7.59542 -8.25908,-8.15107 -12.82673,-6.06991 -4.52146,2.06011 -5.02791,3.47921 -5.02791,14.08842 0,10.21072 -0.51223,11.79753 -3.80826,11.79753 -2.09453,0 -5.2456,-2.04556 -7.00236,-4.54569 -7.71762,-10.98329 -8.86269,-11.8267 -14.22842,-10.47999 -4.65492,1.16832 -5.26554,2.33129 -5.26554,10.02869 0,17.65214 -6.05611,20.2238 -14.8528,6.30705 -4.66359,-7.37797 -6.37913,-8.63428 -10.67036,-7.81397 -5.71557,1.0926 -5.97932,1.6039 -7.78484,15.0902 -1.77813,13.28157 -7.21734,13.21369 -14.00179,-0.17475 -4.54997,-8.97897 -5.45365,-9.69749 -11.1457,-8.86207 -4.01172,0.5888 -6.19825,2.07408 -6.20555,4.21537 -0.006,1.81841 -0.95807,6.71549 -2.11526,10.88237 -3.08799,11.11929 -8.39176,10.13837 -13.65459,-2.52538 -3.63192,-8.73938 -4.96581,-10.10153 -9.89198,-10.10153 -5.13683,0 -5.98873,1.03531 -8.70624,10.58048 -2.97674,10.45571 -7.96201,14.66356 -11.18821,9.44347 l -2e-5,0 z m 38.49649,-54.41104 c 21.3129,-2.37834 49.84173,-7.79126 52.05395,-9.87646 0.85047,-0.80164 -19.65147,-66.76896 -45.55984,-146.59404 -40.43677,-124.58775 -47.72955,-145.36714 -51.50916,-146.76531 -3.7213,-1.37659 -23.41173,12.16171 -127.17624,87.44095 -67.52529,48.98833 -123.60606,89.83274 -124.62393,90.76531 -1.06584,0.97654 9.21537,12.70887 24.24366,27.66548 37.42143,37.24289 73.03419,60.24446 121.04868,78.18295 47.06731,17.58462 102.70954,24.62831 151.52288,19.18112 z M 542.2386,704.3008 c 81.94317,-37.50949 147.3017,-111.38249 176.91984,-199.9678 8.02243,-23.99439 16.0193,-63.96851 16.0193,-80.07598 l 0,-8.90322 -153.82825,0.51768 c -135.21411,0.45505 -154.06313,0.89013 -155.76942,3.5954 -1.40347,2.22512 11.05222,43.07979 44.96405,147.48227 25.79788,79.42251 47.28441,145.04673 47.74781,145.83158 1.03407,1.75132 3.51404,0.87311 23.94667,-8.47993 z M 240.70571,493.0852 c 99.25106,-72.16819 123.74605,-90.86401 123.74605,-94.44927 0,-3.58563 -24.57243,-22.33376 -124.18959,-94.75342 l -124.1896,-90.28329 -3.7057,5.43048 c -7.42974,10.88787 -25.404127,48.32855 -31.707564,66.04695 -33.311825,93.63655 -23.672838,198.44539 26.086004,283.64431 4.60735,7.88886 8.7904,14.34339 9.29567,14.34339 0.50526,0 56.60439,-40.49063 124.66473,-89.97915 z m 167.29451,-77.76605 c 4.5133,-2.41546 9.98962,-12.14607 9.98962,-17.75008 0,-5.24321 -7.47034,-14.38267 -13.68831,-16.74673 -7.40727,-2.81625 -18.04074,1.28025 -21.70216,8.36067 -4.59502,8.88578 -3.70702,15.69361 2.91019,22.31081 6.25403,6.25406 15.13129,7.76393 22.49066,3.82533 z m 326.41687,-49.9159 C 726.79903,266.29516 665.36798,166.71231 578.6041,112.82246 560.13687,101.3523 525.21687,84.046015 520.55334,84.052619 c -1.60289,0.0022 -20.1901,54.360201 -49.768,145.545541 -45.6016,140.58465 -47.08761,145.67668 -43.62851,149.49894 3.49564,3.86262 7.22047,3.95705 156.09904,3.95705 l 152.51796,0 -1.35674,-17.6509 z m -343.15233,-1.03692 c 2.68369,-3.29967 95.98318,-290.524559 94.76653,-291.741207 -0.5117,-0.511705 -9.8787,-2.7584 -20.81559,-4.992657 -41.27986,-8.432927 -91.85593,-8.33429 -134.23488,0.261793 C 260.74616,82.140554 190.78785,122.39616 145.58366,174.57602 l -10.57902,12.21152 123.81494,90.00769 c 68.0982,49.50425 125.29459,90.02769 127.10309,90.05209 1.80848,0.0245 4.21242,-1.09203 5.34209,-2.48099 z"
       id="path4734"
       inkscape:connector-curvature="0"
       transform="translate(-494.86514,113.30249)" />
  </g>
</svg>
