<?xml version="1.0" encoding="UTF-8" standalone="no"?>
<!-- Created with Inkscape (http://www.inkscape.org/) -->

<svg
   xmlns:dc="http://purl.org/dc/elements/1.1/"
   xmlns:cc="http://creativecommons.org/ns#"
   xmlns:rdf="http://www.w3.org/1999/02/22-rdf-syntax-ns#"
   xmlns:svg="http://www.w3.org/2000/svg"
   xmlns="http://www.w3.org/2000/svg"
   xmlns:sodipodi="http://sodipodi.sourceforge.net/DTD/sodipodi-0.dtd"
   xmlns:inkscape="http://www.inkscape.org/namespaces/inkscape"
   width="406.53745"
   height="406.53702"
   viewBox="0 0 406.53744 406.53704"
   id="svg2"
   version="1.1"
   inkscape:version="0.91 r13725"
   sodipodi:docname="Gear36.svg">
  <sodipodi:namedview
     id="base"
     pagecolor="#ffffff"
     bordercolor="#666666"
     borderopacity="1.0"
     inkscape:pageopacity="0.0"
     inkscape:pageshadow="2"
     inkscape:zoom="1.979899"
     inkscape:cx="423.74826"
     inkscape:cy="155.18708"
     inkscape:document-units="px"
     inkscape:current-layer="layer1"
     showgrid="false"
     inkscape:window-width="2560"
     inkscape:window-height="1377"
     inkscape:window-x="3832"
     inkscape:window-y="-8"
     inkscape:window-maximized="1"
     fit-margin-top="1"
     fit-margin-left="1"
     fit-margin-right="1"
     fit-margin-bottom="1"
     units="px" />
  <defs
     id="defs4" />
  <metadata
     id="metadata7">
    <rdf:RDF>
      <cc:Work
         rdf:about="">
        <dc:format>image/svg+xml</dc:format>
        <dc:type
           rdf:resource="http://purl.org/dc/dcmitype/StillImage" />
        <dc:title></dc:title>
      </cc:Work>
    </rdf:RDF>
  </metadata>
  <g
     transform="translate(1042.8004,-109.12942)"
     id="layer1"
     inkscape:groupmode="layer"
     inkscape:label="Layer 1">
    <path
       inkscape:connector-curvature="0"
       style="fill:none;stroke:#000000;stroke-width:0.60000002"
       d="m -659.12877,301.88673 4.2882,0.5263 4.3083,1.0006 4.315,1.3588 4.3126,1.6701 4.3021,1.9549 0.0396,4.0005 -0.0396,4.0005 -4.3021,1.9549 -4.3126,1.6701 -4.315,1.3588 -4.3083,1.0006 -4.2882,0.5263 -0.3817,5.2386 -0.5338,5.2253 4.1317,1.2629 4.0691,1.7335 4.0135,2.0875 3.9571,2.3937 3.8972,2.6722 -0.6557,3.9466 -0.7337,3.9328 -4.5761,1.1781 -4.5371,0.8959 -4.4855,0.5889 -4.4165,0.2373 -4.3145,-0.2264 -1.2855,5.0927 -1.4331,5.0533 3.8496,1.9611 3.7063,2.4138 3.59,2.7527 3.4813,3.0444 3.374,3.3084 -1.331,3.7728 -1.4055,3.7457 -4.7112,0.3656 -4.6237,0.0944 -4.5196,-0.199 -4.3907,-0.5332 -4.2096,-0.9722 -2.1503,4.7922 -2.2888,4.7276 3.4506,2.5998 3.2308,3.0207 3.0575,3.3343 2.8997,3.6027 2.7483,3.844 -1.9659,3.4844 -2.0346,3.4447 -4.7031,-0.4581 -4.5699,-0.7099 -4.4164,-0.9807 -4.2313,-1.2876 -3.9769,-1.6884 -2.9498,4.3459 -3.0749,4.2584 2.9467,3.1595 2.6571,3.5358 2.4321,3.8146 2.2301,4.0515 2.039,4.2628 -2.5411,3.0901 -2.6019,3.039 -4.5521,-1.2678 -4.3772,-1.4926 -4.179,-1.7328 -3.9434,-2.0028 -3.6233,-2.3532 -3.6597,3.7676 -3.7676,3.6597 2.3532,3.6233 2.0028,3.9434 1.7328,4.179 1.4926,4.3772 1.2678,4.5521 -3.039,2.6019 -3.0901,2.5411 -4.2628,-2.039 -4.0515,-2.2301 -3.8146,-2.4321 -3.5358,-2.6571 -3.1595,-2.9467 -4.2584,3.0749 -4.3459,2.9498 1.6884,3.9769 1.2876,4.2313 0.9807,4.4164 0.7099,4.5699 0.4581,4.7031 -3.4447,2.0346 -3.4844,1.9659 -3.844,-2.7483 -3.6027,-2.8997 -3.3343,-3.0575 -3.0207,-3.2308 -2.5998,-3.4506 -4.7276,2.2888 -4.7922,2.1503 0.9722,4.2096 0.5332,4.3907 0.199,4.5196 -0.0944,4.6237 -0.3656,4.7112 -3.7457,1.4055 -3.7728,1.331 -3.3084,-3.374 -3.0444,-3.4813 -2.7527,-3.59 -2.4138,-3.7063 -1.9611,-3.8496 -5.0533,1.4331 -5.0927,1.2855 0.2264,4.3145 -0.2373,4.4165 -0.5889,4.4855 -0.8959,4.5371 -1.1781,4.5761 -3.9328,0.7337 -3.9466,0.6557 -2.6722,-3.8972 -2.3937,-3.9571 -2.0875,-4.0135 -1.7335,-4.0691 -1.2629,-4.1317 -5.2253,0.5338 -5.2386,0.3817 -0.5263,4.2882 -1.0006,4.3083 -1.3588,4.315 -1.6701,4.3126 -1.9549,4.3021 -4.0005,0.0396 -4.0005,-0.0396 -1.9549,-4.3021 -1.6701,-4.3126 -1.3588,-4.315 -1.0006,-4.3083 -0.5263,-4.2882 -5.2386,-0.3817 -5.2253,-0.5338 -1.2629,4.1317 -1.7335,4.0691 -2.0875,4.0135 -2.3937,3.9571 -2.6722,3.8972 -3.9466,-0.6557 -3.9328,-0.7337 -1.1781,-4.5761 -0.8959,-4.5371 -0.5889,-4.4855 -0.2373,-4.4165 0.2264,-4.3145 -5.0927,-1.2855 -5.0533,-1.4331 -1.9611,3.8496 -2.4138,3.7063 -2.7527,3.59 -3.0444,3.4813 -3.3084,3.374 -3.7728,-1.331 -3.7457,-1.4055 -0.3656,-4.7112 -0.0944,-4.6237 0.199,-4.5196 0.5332,-4.3907 0.9722,-4.2096 -4.7922,-2.1503 -4.7276,-2.2888 -2.5998,3.4506 -3.0207,3.2308 -3.3343,3.0575 -3.6027,2.8997 -3.844,2.7483 -3.4844,-1.9659 -3.4447,-2.0346 0.4581,-4.7031 0.7099,-4.5699 0.9807,-4.4164 1.2876,-4.2313 1.6884,-3.9769 -4.3459,-2.9498 -4.2584,-3.0749 -3.1595,2.9467 -3.5358,2.6571 -3.8146,2.4321 -4.0515,2.2301 -4.2628,2.039 -3.0901,-2.5411 -3.039,-2.6019 1.2678,-4.5521 1.4926,-4.3772 1.7328,-4.179 2.0028,-3.9434 2.3532,-3.6233 -3.7676,-3.6597 -3.6597,-3.7676 -3.6233,2.3532 -3.9434,2.0028 -4.179,1.7328 -4.3772,1.4926 -4.5521,1.2678 -2.6019,-3.039 -2.5411,-3.0901 2.039,-4.2628 2.2301,-4.0515 2.4321,-3.8146 2.6571,-3.5358 2.9467,-3.1595 -3.0749,-4.2584 -2.9498,-4.3459 -3.9769,1.6884 -4.2313,1.2876 -4.41643,0.9807 -4.5699,0.7099 -4.7031,0.4581 -2.0346,-3.4447 -1.9659,-3.4844 2.7483,-3.844 2.8997,-3.6027 3.0575,-3.3343 3.2308,-3.0207 3.4506,-2.5998 -2.2888,-4.7276 -2.1503,-4.7922 -4.2096,0.9722 -4.3907,0.5332 -4.5196,0.199 -4.6237,-0.0944 -4.7112,-0.3656 -1.4055,-3.7457 -1.331,-3.7728 3.374,-3.3084 3.4813,-3.0444 3.59,-2.7527 3.7063,-2.4138 3.8496,-1.9611 -1.4331,-5.0533 -1.2855,-5.0927 -4.3145,0.2264 -4.4165,-0.2373 -4.4855,-0.5889 -4.5371,-0.8959 -4.5761,-1.1781 -0.7337,-3.9328 -0.6557,-3.9466 3.8972,-2.6722 3.9571,-2.3937 4.0135,-2.0875 4.0691,-1.7335 4.1317,-1.2629 -0.5338,-5.2253 -0.3817,-5.2386 -4.2882,-0.5263 -4.3083,-1.0006 -4.315,-1.3588 -4.3126,-1.6701 -4.3021,-1.9549 -0.04,-4.0005 0.04,-4.0005 4.3021,-1.9549 4.3126,-1.6701 4.315,-1.3588 4.3083,-1.0006 4.2882,-0.5263 0.3817,-5.2386 0.5338,-5.2253 -4.1317,-1.2629 -4.0691,-1.7335 -4.0135,-2.0875 -3.9571,-2.3937 -3.8972,-2.6722 0.6557,-3.9466 0.7337,-3.9328 4.5761,-1.1781 4.5371,-0.8959 4.4855,-0.5889 4.4165,-0.2373 4.3145,0.2264 1.2855,-5.0927 1.4331,-5.0533 -3.8496,-1.9611 -3.7063,-2.4138 -3.59,-2.7527 -3.4813,-3.0444 -3.374,-3.3084 1.331,-3.7728 1.4055,-3.7457 4.7112,-0.3656 4.6237,-0.0944 4.5196,0.199 4.3907,0.5332 4.2096,0.9722 2.1503,-4.7922 2.2888,-4.7276 -3.4506,-2.5998 -3.2308,-3.0207 -3.0575,-3.3343 -2.8997,-3.6027 -2.7483,-3.844 1.9659,-3.4844 2.0346,-3.4447 4.7031,0.4581 4.5699,0.7099 4.41643,0.9807 4.2313,1.2876 3.9769,1.6884 2.9498,-4.3459 3.0749,-4.2584 -2.9467,-3.1595 -2.6571,-3.5358 -2.4321,-3.8146 -2.2301,-4.0515 -2.039,-4.2628 2.5411,-3.0901 2.6019,-3.039 4.5521,1.2678 4.3772,1.4926 4.179,1.7328 3.9434,2.0028 3.6233,2.3532 3.6597,-3.7676 3.7676,-3.6597 -2.3532,-3.6233 -2.0028,-3.9434 -1.7328,-4.179 -1.4926,-4.3772 -1.2678,-4.5521 3.039,-2.6019 3.0901,-2.5411 4.2628,2.039 4.0515,2.2301 3.8146,2.4321 3.5358,2.6571 3.1595,2.9467 4.2584,-3.0749 4.3459,-2.9498 -1.6884,-3.9769 -1.2876,-4.2313 -0.9807,-4.4164 -0.7099,-4.5699 -0.4581,-4.7031 3.4447,-2.0346 3.4844,-1.9659 3.844,2.7483 3.6027,2.8997 3.3343,3.0575 3.0207,3.2308 2.5998,3.4506 4.7276,-2.2888 4.7922,-2.1503 -0.9722,-4.2096 -0.5332,-4.3907 -0.199,-4.5196 0.0944,-4.6237 0.3656,-4.7112 3.7457,-1.4055 3.7728,-1.331 3.3084,3.374 3.0444,3.4813 2.7527,3.59 2.4138,3.7063 1.9611,3.8496 5.0533,-1.4331 5.0927,-1.2855 -0.2264,-4.3145 0.2373,-4.4165 0.5889,-4.4855 0.8959,-4.5371 1.1781,-4.5761 3.9328,-0.7337 3.9466,-0.6557 2.6722,3.8972 2.3937,3.9571 2.0875,4.0135 1.7335,4.0691 1.2629,4.1317 5.2253,-0.5338 5.2386,-0.3817 0.5263,-4.2882 1.0006,-4.3083 1.3588,-4.315 1.6701,-4.3126 1.9549,-4.3021 4.0005,-0.0396 4.0005,0.0396 1.9549,4.3021 1.6701,4.3126 1.3588,4.315 1.0006,4.3083 0.5263,4.2882 5.2386,0.3817 5.2253,0.5338 1.2629,-4.1317 1.7335,-4.0691 2.0875,-4.0135 2.3937,-3.9571 2.6722,-3.8972 3.9466,0.6557 3.9328,0.7337 1.1781,4.5761 0.8959,4.5371 0.5889,4.4855 0.2373,4.4165 -0.2264,4.3145 5.0927,1.2855 5.0533,1.4331 1.9611,-3.8496 2.4138,-3.7063 2.7527,-3.59 3.0444,-3.4813 3.3084,-3.374 3.7728,1.331 3.7457,1.4055 0.3656,4.7112 0.0944,4.6237 -0.199,4.5196 -0.5332,4.3907 -0.9722,4.2096 4.7922,2.1503 4.7276,2.2888 2.5998,-3.4506 3.0207,-3.2308 3.3343,-3.0575 3.6027,-2.8997 3.844,-2.7483 3.4844,1.9659 3.4447,2.0346 -0.4581,4.7031 -0.7099,4.5699 -0.9807,4.4164 -1.2876,4.2313 -1.6884,3.9769 4.3459,2.9498 4.2584,3.0749 3.1595,-2.9467 3.5358,-2.6571 3.8146,-2.4321 4.0515,-2.2301 4.2628,-2.039 3.0901,2.5411 3.039,2.6019 -1.2678,4.5521 -1.4926,4.3772 -1.7328,4.179 -2.0028,3.9434 -2.3532,3.6233 3.7676,3.6597 3.6597,3.7676 3.6233,-2.3532 3.9434,-2.0028 4.179,-1.7328 4.3772,-1.4926 4.5521,-1.2678 2.6019,3.039 2.5411,3.0901 -2.039,4.2628 -2.2301,4.0515 -2.4321,3.8146 -2.6571,3.5358 -2.9467,3.1595 3.0749,4.2584 2.9498,4.3459 3.9769,-1.6884 4.2313,-1.2876 4.4164,-0.9807 4.5699,-0.7099 4.7031,-0.4581 2.0346,3.4447 1.9659,3.4844 -2.7483,3.844 -2.8997,3.6027 -3.0575,3.3343 -3.2308,3.0207 -3.4506,2.5998 2.2888,4.7276 2.1503,4.7922 4.2096,-0.9722 4.3907,-0.5332 4.5196,-0.199 4.6237,0.0944 4.7112,0.3656 1.4055,3.7457 1.331,3.7728 -3.374,3.3084 -3.4813,3.0444 -3.59,2.7527 -3.7063,2.4138 -3.8496,1.9611 1.4331,5.0533 1.2855,5.0927 4.3145,-0.2264 4.4165,0.2373 4.4855,0.5889 4.5371,0.8959 4.5761,1.1781 0.7337,3.9328 0.6557,3.9466 -3.8972,2.6722 -3.9571,2.3937 -4.0135,2.0875 -4.0691,1.7335 -4.1317,1.2629 0.5338,5.2253 z m -149.71676,28.22773 a 35.433071,35.433071 0 0 1 -4.35404,5.99282 l 35.07508,107.94998 a 145.27559,145.27559 0 0 0 82.78429,-113.9428 z m -38.05289,16.94224 a 35.433071,35.433071 0 0 1 -7.04498,-2.28905 l -91.82774,66.71676 a 145.27559,145.27559 0 0 0 133.9478,43.52227 z m -27.87202,-30.95501 a 35.433071,35.433071 0 0 1 0,-7.40752 l -91.82773,-66.71676 a 145.27559,145.27559 0 0 0 0,140.84104 z m 20.82704,-36.07348 a 35.433071,35.433071 0 0 1 7.04498,-2.28905 l 35.07508,-107.94998 a 145.27559,145.27559 0 0 0 -133.9478,43.52227 z m 40.74383,8.66037 a 35.433071,35.433071 0 0 1 4.35404,5.99281 l 113.50533,0 A 145.27559,145.27559 0 0 0 -778.12449,180.7386 Z m -26.3319,41.42588 a 17.716535,17.716535 0 0 0 0,-35.43307 17.716535,17.716535 0 1 0 0,35.43307"
       id="path6382" />
    <path
       style="fill:#b3b3b3"
       d="m -950.15897,53.293792 c -1.42004,-4.722463 -2.90073,-9.722718 -3.29042,-11.111678 -0.38969,-1.388959 -3.28332,-2.525381 -6.43028,-2.525381 -4.78009,0 -6.44865,1.496198 -10.13867,9.091373 -3.01134,6.198235 -5.68199,9.091373 -8.39225,9.091373 -3.92196,0 -4.95413,-2.803618 -6.64401,-18.046739 -0.38147,-3.440943 -2.22105,-5.360233 -6.1345,-6.400306 -4.75558,-1.263883 -6.00592,-0.68054 -8.37946,3.909371 -1.53444,2.967202 -4.68414,7.109231 -6.99934,9.20451 -3.5788,3.238751 -4.7001,3.402537 -7.4828,1.093025 -2.5624,-2.126593 -2.994,-4.822044 -1.9872,-12.411603 1.1961,-9.016742 0.9236,-9.8602 -3.8956,-12.055948 -4.7043,-2.143443 -5.8885,-1.670671 -12.8549,5.131858 -9.212,8.995226 -15.6053,8.516475 -13.6146,-1.019487 0.6625,-3.173596 1.7668,-8.467987 2.4541,-11.765327 1.0471,-5.023893 0.4475,-6.3605872 -3.701,-8.2507847 -4.1915,-1.909754 -6.1302,-1.4551651 -12.6432,2.9646967 -13.7289,9.316657 -17.4912,6.22161 -10.9424,-9.0015905 4.4277,-10.2924241 4.4281,-10.3052732 0.4019,-14.3314385 -4.0262,-4.026165 -4.038,-4.025781 -13.2266,0.438386 -8.6072,4.1816681 -15.6865,4.2710868 -15.6865,0.198132 0,-0.978838 2.6426,-5.714474 5.8725,-10.523608 5.5161,-8.213348 5.6819,-9.034784 2.7316,-13.537479 -1.9743,-3.013184 -4.3091,-4.345272 -6.2862,-3.586587 -1.73,0.663853 -6.9129,1.723381 -11.5175,2.354525 -11.8526,1.624567 -12.8829,-2.800507 -2.9507,-12.673415 7.3221,-7.278391 7.6079,-8.018651 5.0245,-13.01434 -2.5486,-4.928474 -3.4994,-5.233924 -13.6666,-4.39079 -14.1017,1.169433 -16.3604,-2.72125 -6.57,-11.317284 3.7223,-3.268208 7.9014,-6.32008 9.2869,-6.781922 1.8652,-0.621729 2.0056,-2.386789 0.541,-6.7996 -1.7718,-5.337888 -3.0556,-6.069966 -12.3009,-7.014458 -5.6776,-0.579986 -10.9454,-1.677216 -11.7065,-2.438246 -2.9319,-2.93195 1.4703,-7.99404 10.3791,-11.93483 8.46,-3.74227 9.1702,-4.59098 7.9408,-9.48925 -0.7425,-2.95868 -1.5035,-5.4841 -1.691,-5.61205 -0.1874,-0.12794 -4.4319,-1.56472 -9.4322,-3.19283 -6.4097,-2.08705 -9.2735,-4.19082 -9.7087,-7.13218 -0.5146,-3.47716 1.0701,-4.60446 9.5152,-6.76888 8.6608,-2.21969 10.3191,-3.44579 11.4162,-8.44116 0.706,-3.21433 0.9699,-6.02466 0.5863,-6.24516 -0.3835,-0.22051 -5.0788,-2.44715 -10.4338,-4.94811 -14.7308,-6.87958 -10.9039,-13.7628 7.9857,-14.36372 5.2313,-0.16641 6.5163,-1.16612 7.4005,-5.75722 0.6786,-3.52344 0.065,-6.12503 -1.6782,-7.1118 -1.5115,-0.85578 -5.4785,-3.85342 -8.8156,-6.66142 -8.8799,-7.47193 -6.4007,-10.97552 7.7664,-10.97552 10.235,0 11.8359,-0.55862 13.7707,-4.80497 1.9198,-4.21345 1.3379,-5.63016 -4.7265,-11.50799 -6.5887,-6.38606 -8.8094,-12.58278 -5.289,-14.75854 1.6346,-1.01026 12.7458,1.15843 18.7825,3.66601 2.1694,0.90113 4.3359,-0.3331 6.5701,-3.74291 3.2144,-4.90571 3.1023,-5.41527 -3.1387,-14.26942 -5.6465,-8.0107 -6.098,-9.55038 -3.5396,-12.06937 2.5441,-2.50493 4.2211,-2.32596 12.6625,1.35135 9.669,4.21208 9.7549,4.21379 13.696,0.27271 3.941,-3.94108 3.939,-4.02692 -0.3319,-13.68197 -3.6853,-8.33113 -3.8945,-10.11943 -1.4675,-12.54635 2.4269,-2.42691 4.1637,-1.9471 12.1855,3.36627 8.2313,5.45224 9.8696,5.88109 13.6381,3.57002 3.5889,-2.20093 4.0487,-3.77248 2.8376,-9.69765 -3.8826,-18.99517 0.022,-22.67806 11.8572,-11.18392 6.6332,6.44214 7.865,6.91567 12.4978,4.8048 4.7155,-2.14849 5.0986,-3.27354 4.6442,-13.63863 -0.4538,-10.35327 -0.1154,-11.35091 4.0505,-11.94257 2.5002,-0.35508 4.5702,0.0995 4.6001,1.01015 0.03,0.91066 2.5609,4.67704 5.6246,8.36974 4.56827,5.50632 6.51369,6.47719 10.81547,5.39752 4.58942,-1.15188 5.36731,-2.58665 6.22137,-11.47503 1.56988,-16.3381 7.72104,-17.03415 14.6546,-1.65826 3.03256,6.72502 4.63261,8.09284 9.46685,8.09284 3.19962,0 6.13969,-1.13642 6.5335,-2.52538 0.39381,-1.38896 1.76548,-6.38921 3.04815,-11.11168 1.72033,-6.3338 3.35605,-8.58629 6.23522,-8.58629 2.99257,0 4.6566,2.59208 7.13331,11.11167 2.91461,10.02589 3.77852,11.11168 8.84098,11.11168 4.59298,0 6.2727,-1.468 9.26009,-8.09284 6.93356,-15.37589 13.08472,-14.67984 14.6546,1.65826 0.84895,8.83516 1.64724,10.32699 6.12779,11.45154 4.30848,1.08136 6.35861,-0.10835 12.52561,-7.26879 5.50709,-6.3942 8.30262,-8.2054 11.04222,-7.15412 3.14551,1.20705 3.48816,2.94033 2.40426,12.16243 -1.19719,10.18627 -0.98423,10.88225 4.02841,13.16616 4.83659,2.2037 5.91396,1.78985 12.50896,-4.80516 11.61991,-11.61989 15.55407,-7.87717 11.67397,11.10588 -1.21109,5.92517 -0.75123,7.49672 2.83764,9.69765 3.76845,2.31107 5.40674,1.88222 13.63811,-3.57002 8.02172,-5.31337 9.7586,-5.79318 12.18551,-3.36627 2.42691,2.42692 2.21773,4.21522 -1.46753,12.54635 -4.27088,9.65505 -4.27296,9.74089 -0.33187,13.68197 3.94107,3.94108 4.02699,3.93937 13.69597,-0.27271 8.44138,-3.67731 10.11841,-3.85628 12.66252,-1.35135 2.55837,2.51898 2.10427,4.06231 -3.55957,12.09768 -6.34942,9.00799 -6.41385,9.3181 -2.9325,14.11364 2.15823,2.97294 4.75261,4.43531 6.59004,3.71459 9.52434,-3.73586 17.301,-4.45671 19.92728,-1.84711 2.32333,2.30858 1.49476,4.11355 -5.29151,11.5271 -6.90281,7.54087 -7.7528,9.43586 -5.98149,13.33561 1.79247,3.94631 3.59382,4.54568 13.66166,4.54568 14.18315,0 16.6653,3.50073 7.78202,10.97552 -3.33712,2.808 -7.30419,5.80564 -8.81571,6.66142 -1.74285,0.98677 -2.35676,3.58836 -1.67818,7.1118 0.88422,4.5911 2.16928,5.59081 7.4005,5.75722 9.97574,0.31735 16.35443,2.71363 17.06654,6.41139 0.56969,2.95817 -4.77864,6.47706 -19.3364,12.72221 -0.28551,0.12247 0.0253,2.94486 0.69074,6.27194 1.05091,5.25455 2.52727,6.3869 11.23799,8.61939 8.47627,2.1724 9.93259,3.24024 9.41077,6.90035 -0.45084,3.16222 -3.06953,5.08838 -9.70872,7.14109 -5.00026,1.54598 -9.24476,2.91155 -9.43224,3.0346 -0.18749,0.12304 -0.94841,2.64444 -1.691,5.60312 -1.22939,4.89827 -0.51917,5.74698 7.94087,9.48925 15.73218,6.9591 14.49121,14.325962 -2.42347,14.386551 -7.39792,0.02647 -8.91884,0.774039 -10.60661,5.213215 -2.71813,7.149274 -2.5037,8.505182 1.56524,9.896445 7.41448,2.5352 14.84698,10.334183 13.41209,14.073445 -1.16448,3.034579 -3.16466,3.475733 -12.31767,2.716684 -10.13567,-0.840528 -11.12336,-0.527279 -13.63169,4.323271 -2.53942,4.910715 -2.23068,5.697361 5.06581,12.906719 11.71278,11.572934 7.31147,16.534298 -10.21003,11.509214 -6.17302,-1.770414 -7.45489,-1.482278 -10.32326,2.320421 -3.08777,4.093542 -2.93188,4.893846 2.7262,13.995805 8.78772,14.1364787 4.73168,17.7612293 -10.93245,9.769973 l -8.27085,-4.219468 -4.0654,4.06542 -4.06542,4.0654193 4.45918,9.48646381 c 7.18865,15.29320489 2.80832,19.21425289 -10.9981,9.84496689 -6.50128,-4.4118816 -8.45635,-4.8723294 -12.62442,-2.9732224 -3.79244,1.7279468 -4.64723,3.2840664 -3.69995,6.7355554 5.88305,21.435054 1.65688,26.843713 -11.18028,14.308569 -6.93989,-6.776629 -8.16383,-7.26928 -12.8055,-5.154405 -4.83344,2.202274 -5.05808,2.969223 -3.85865,13.174592 1.08218,9.207601 0.73788,11.041775 -2.29088,12.204036 -4.12752,1.583859 -10.08488,-3.102905 -14.29657,-11.247381 -2.57195,-4.973628 -3.35781,-5.2693 -8.88453,-3.342676 -4.99733,1.742089 -6.06785,3.232912 -6.09058,8.481948 -0.0774,17.8359 -7.41169,21.047538 -14.54338,6.368345 -3.63211,-7.475957 -5.39689,-9.091373 -9.93193,-9.091373 -4.94639,0 -5.84799,1.145574 -8.74523,11.111678 -4.13538,14.225271 -9.31606,15.221403 -13.13374,2.525381 z m 33.87381,-48.9428804 c 1.60333,-1.6033545 -32.4661,-106.3423116 -35.6185,-109.5012416 -1.46833,-1.47137 -3.85324,-2.67521 -5.2998,-2.67521 -2.52442,0 -83.10714,57.396404 -90.64904,64.566306 -3.5149,3.341544 -3.2182,3.887471 7.2831,13.400219 19.5518,17.711267 45.39646,30.22586479 72.38653,35.0513433 10.73031,1.9184413 49.77081,1.2854797 51.89771,-0.8414167 z m 46.47942,-17.5861896 c 15.94077,-9.120385 39.33021,-32.108103 49.77868,-48.923729 9.5871,-15.429332 18.61794,-39.660753 19.65486,-52.737603 l 0.6408,-8.08122 -56.32247,-0.53748 c -58.61501,-0.55938 -61.86537,-0.14217 -61.86537,7.94077 0,2.86352 24.3271,80.386869 33.33812,106.2388746 1.23962,3.5564239 2.17516,3.3095022 14.77538,-3.8996126 z m -151.42716,-90.469682 c 37.7416,-27.48488 42.81902,-31.83547 42.2926,-36.23826 -0.4713,-3.94171 -10.21922,-11.99718 -45.9363,-37.96068 -24.9359,-18.12646 -45.9274,-32.9572 -46.6478,-32.9572 -1.7376,0 -5.3912,8.03066 -11.4892,25.25382 -3.8686,10.92637 -5.2516,19.70876 -6.0818,38.62284 -1.2452,28.36673 1.9202,46.70312 11.5932,67.156714 5.4545,11.533477 6.3237,12.43225 9.6853,10.014107 2.0312,-1.461126 22.994,-16.712227 46.584,-33.891341 z m 90.68675,-23.42397 c 5.06127,-5.75148 6.08314,-17.92272 1.95606,-23.29809 -6.94434,-9.04475 -18.64123,-10.1804 -27.55994,-2.67579 -4.87226,4.09974 -6.21593,6.84123 -6.21593,12.68245 0,18.34519 20.01527,26.70575 31.81981,13.29143 z m 131.82491,-31.58024 c 0,-1.31797 -1.47073,-8.36378 -3.26827,-15.65736 -7.32108,-29.70543 -25.45437,-58.77461 -48.44449,-77.66057 -15.61684,-12.82893 -30.35301,-21.05948 -32.89015,-18.37002 -3.95385,4.19124 -34.89454,104.53489 -33.70028,109.29324 l 1.20246,4.79102 58.55037,0 c 43.8114,0 58.55036,-0.60323 58.55036,-2.39631 z m -152.05391,-14.66459 c 2.10423,-1.74139 35.25944,-108.48822 34.06657,-109.68109 -0.85105,-0.85106 -13.06313,-1.54355 -27.13791,-1.53887 -29.37696,0.01 -43.05756,2.99449 -65.65581,14.32419 -15.6283,7.8353 -42.3939,28.20355 -41.315,31.44014 0.3638,1.09161 21.0961,16.87923 46.0717,35.08358 42.76387,31.17004 48.86044,34.6009 53.97045,30.37205 z"
       id="path6452"
       inkscape:connector-curvature="0"
       transform="translate(104.60685,451.89052)" />
  </g>
</svg>
