<?xml version="1.0" encoding="UTF-8" standalone="no"?>
<!-- Created with Inkscape (http://www.inkscape.org/) -->

<svg
   xmlns:dc="http://purl.org/dc/elements/1.1/"
   xmlns:cc="http://creativecommons.org/ns#"
   xmlns:rdf="http://www.w3.org/1999/02/22-rdf-syntax-ns#"
   xmlns:svg="http://www.w3.org/2000/svg"
   xmlns="http://www.w3.org/2000/svg"
   xmlns:sodipodi="http://sodipodi.sourceforge.net/DTD/sodipodi-0.dtd"
   xmlns:inkscape="http://www.inkscape.org/namespaces/inkscape"
   width="151.4187"
   height="151.4187"
   viewBox="0 0 151.4187 151.4187"
   id="svg2"
   version="1.1"
   inkscape:version="0.91 r13725"
   sodipodi:docname="Gear12.svg">
  <sodipodi:namedview
     id="base"
     pagecolor="#ffffff"
     bordercolor="#666666"
     borderopacity="1.0"
     inkscape:pageopacity="0.0"
     inkscape:pageshadow="2"
     inkscape:zoom="5.6"
     inkscape:cx="81.605218"
     inkscape:cy="106.48586"
     inkscape:document-units="px"
     inkscape:current-layer="layer1"
     showgrid="false"
     inkscape:window-width="2560"
     inkscape:window-height="1377"
     inkscape:window-x="3832"
     inkscape:window-y="-8"
     inkscape:window-maximized="1"
     units="px"
     fit-margin-top="1"
     fit-margin-bottom="1"
     fit-margin-right="1"
     fit-margin-left="1" />
  <defs
     id="defs4" />
  <metadata
     id="metadata7">
    <rdf:RDF>
      <cc:Work
         rdf:about="">
        <dc:format>image/svg+xml</dc:format>
        <dc:type
           rdf:resource="http://purl.org/dc/dcmitype/StillImage" />
        <dc:title></dc:title>
      </cc:Work>
    </rdf:RDF>
  </metadata>
  <g
     transform="translate(-95.947708,136.33289)"
     id="layer1"
     inkscape:groupmode="layer"
     inkscape:label="Layer 1">
    <path
       transform="translate(-400.79712,531.36102)"
       inkscape:connector-curvature="0"
       id="path4977"
       d=""
       style="fill:#999999" />
    <path
       transform="translate(-400.79712,531.36102)"
       inkscape:connector-curvature="0"
       id="path4979"
       d=""
       style="fill:#999999" />
    <path
       inkscape:connector-curvature="0"
       style="fill:none;stroke:#000000;stroke-width:0.60000002"
       d="m 228.71461,-69.88269 0.879,-0.0392 0.8923,0.0468 0.9008,0.1052 0.9071,0.1544 0.9121,0.1983 0.9159,0.239 0.9188,0.2774 0.921,0.314 0.9223,0.3494 0.9229,0.3837 0.9228,0.4171 0.922,0.4498 0.9206,0.482 0.9185,0.5136 0.9158,0.5448 0.9124,0.5755 0.9084,0.606 0.9038,0.636 0.8987,0.6658 0.0161,0.5848 0.0115,0.5848 0.007,0.5849 0.002,0.585 -0.002,0.585 -0.007,0.5849 -0.0115,0.5848 -0.0161,0.5848 -0.8987,0.6658 -0.9038,0.636 -0.9084,0.606 -0.9124,0.5755 -0.9158,0.5448 -0.9185,0.5136 -0.9206,0.482 -0.922,0.4498 -0.9228,0.4171 -0.9229,0.3837 -0.9223,0.3494 -0.921,0.314 -0.9188,0.2774 -0.9159,0.239 -0.9121,0.1983 -0.9071,0.1544 -0.9008,0.1052 -0.8923,0.0468 -0.879,-0.0392 -4.5942,-0.7455 -0.2315,1.3209 -0.2647,1.3146 -0.2978,1.3075 -0.3307,1.2995 -0.3634,1.2908 -0.3958,1.2813 -0.4281,1.2708 -0.4599,1.2597 4.3514,1.6514 0.7808,0.4056 0.7494,0.4867 0.7275,0.5415 0.7084,0.5872 0.6907,0.6278 0.6737,0.6649 0.6571,0.6997 0.6405,0.7324 0.6241,0.7638 0.6074,0.7937 0.5906,0.8226 0.5736,0.8506 0.5562,0.8777 0.5386,0.904 0.5207,0.9297 0.5024,0.9546 0.4838,0.979 0.4647,1.0028 0.4453,1.0259 -0.2784,0.5145 -0.2825,0.5122 -0.2864,0.51 -0.2905,0.5077 -0.2945,0.5055 -0.2984,0.5031 -0.3024,0.5007 -0.3063,0.4984 -1.1112,0.1273 -1.1007,0.0989 -1.0897,0.0705 -1.078,0.0422 -1.0654,0.0139 -1.0523,-0.0144 -1.0382,-0.0429 -1.0234,-0.0714 -1.0077,-0.1002 -0.9911,-0.1291 -0.9735,-0.1586 -0.9546,-0.1885 -0.9344,-0.2192 -0.9127,-0.251 -0.889,-0.2843 -0.8628,-0.3199 -0.8327,-0.3593 -0.7962,-0.4056 -0.7416,-0.4734 -3.6059,-2.9427 -0.8609,1.0281 -0.8866,1.0061 -0.9117,0.9834 -0.9362,0.9601 -0.9601,0.9362 -0.9834,0.9117 -1.0061,0.8866 -1.0281,0.8609 2.9427,3.6059 0.4734,0.7416 0.4056,0.7962 0.3593,0.8327 0.3199,0.8628 0.2843,0.889 0.251,0.9127 0.2192,0.9344 0.1885,0.9546 0.1586,0.9735 0.1291,0.9911 0.1002,1.0077 0.0714,1.0234 0.0429,1.0382 0.0144,1.0523 -0.0139,1.0654 -0.0422,1.078 -0.0705,1.0897 -0.0989,1.1007 -0.1273,1.1112 -0.4984,0.3063 -0.5007,0.3024 -0.5031,0.2984 -0.5055,0.2945 -0.5077,0.2905 -0.51,0.2864 -0.5122,0.2825 -0.5145,0.2784 -1.0259,-0.4453 -1.0028,-0.4647 -0.979,-0.4838 -0.9546,-0.5024 -0.9297,-0.5207 -0.904,-0.5386 -0.8777,-0.5562 -0.8506,-0.5736 -0.8226,-0.5906 -0.7937,-0.6074 -0.7638,-0.6241 -0.7324,-0.6405 -0.6997,-0.6571 -0.6649,-0.6737 -0.6278,-0.6907 -0.5872,-0.7084 -0.5415,-0.7275 -0.4867,-0.7494 -0.4056,-0.7808 -1.6514,-4.3514 -1.2597,0.4599 -1.2708,0.4281 -1.2813,0.3958 -1.2908,0.3634 -1.2995,0.3307 -1.3075,0.2978 -1.3146,0.2647 -1.3209,0.2315 0.7455,4.5942 0.0392,0.879 -0.0468,0.8923 -0.1052,0.9008 -0.1544,0.9071 -0.1983,0.9121 -0.239,0.9159 -0.2774,0.9188 -0.314,0.921 -0.3494,0.9223 -0.3837,0.9229 -0.4171,0.9228 -0.4498,0.922 -0.482,0.9206 -0.5136,0.9185 -0.5448,0.9158 -0.5755,0.9124 -0.606,0.9084 -0.636,0.9038 -0.6658,0.8987 -0.5848,0.0161 -0.5848,0.0115 -0.5849,0.0068 -0.585,0.0023 -0.585,-0.0023 -0.5849,-0.0068 -0.5848,-0.0115 -0.5848,-0.0161 -0.6658,-0.8987 -0.636,-0.9038 -0.606,-0.9084 -0.5755,-0.9124 -0.5448,-0.9158 -0.5136,-0.9185 -0.482,-0.9206 -0.4498,-0.922 -0.4171,-0.9228 -0.3837,-0.9229 -0.3494,-0.9223 -0.314,-0.921 -0.2774,-0.9188 -0.239,-0.9159 -0.1983,-0.9121 -0.1544,-0.9071 -0.1052,-0.9008 -0.0468,-0.8923 0.0392,-0.879 0.7455,-4.5942 -1.3209,-0.2315 -1.3146,-0.2647 -1.3075,-0.2978 -1.2995,-0.3307 -1.2908,-0.3634 -1.2813,-0.3958 -1.2708,-0.4281 -1.2597,-0.4599 -1.6514,4.3514 -0.4056,0.7808 -0.4867,0.7494 -0.5415,0.7275 -0.5872,0.7084 -0.6278,0.6907 -0.6649,0.6737 -0.6997,0.6571 -0.7324,0.6405 -0.7638,0.6241 -0.7937,0.6074 -0.8226,0.5906 -0.8506,0.5736 -0.8777,0.5562 -0.904,0.5386 -0.9297,0.5207 -0.9546,0.5024 -0.979,0.4838 -1.0028,0.4647 -1.0259,0.4453 -0.5145,-0.2784 -0.5122,-0.2825 -0.51,-0.2864 -0.5077,-0.2905 -0.5055,-0.2945 -0.5031,-0.2984 -0.5007,-0.3024 -0.4984,-0.3063 -0.1273,-1.1112 -0.0989,-1.1007 -0.0705,-1.0897 -0.0422,-1.078 -0.0139,-1.0654 0.0144,-1.0523 0.0429,-1.0382 0.0714,-1.0234 0.1002,-1.0077 0.1291,-0.9911 0.1586,-0.9735 0.1885,-0.9546 0.2192,-0.9344 0.251,-0.9127 0.2843,-0.889 0.3199,-0.8628 0.3593,-0.8327 0.4056,-0.7962 0.4734,-0.7416 2.9427,-3.6059 -1.0281,-0.8609 -1.0061,-0.8866 -0.9834,-0.9117 -0.9601,-0.9362 -0.9362,-0.9601 -0.9117,-0.9834 -0.8866,-1.0061 -0.8609,-1.0281 -3.6059,2.9427 -0.7416,0.4734 -0.7962,0.4056 -0.8327,0.3593 -0.8628,0.3199 -0.889,0.2843 -0.9127,0.251 -0.9344,0.2192 -0.9546,0.1885 -0.9735,0.1586 -0.9911,0.1291 -1.0077,0.1002 -1.0234,0.0714 -1.0382,0.0429 -1.0523,0.0144 -1.0654,-0.0139 -1.078,-0.0422 -1.0897,-0.0705 -1.1007,-0.0989 -1.1112,-0.1273 -0.3063,-0.4984 -0.3024,-0.5007 -0.2984,-0.5031 -0.2945,-0.5055 -0.2905,-0.5077 -0.2864,-0.51 -0.2825,-0.5122 -0.2784,-0.5145 0.4453,-1.0259 0.4647,-1.0028 0.4838,-0.979 0.5024,-0.9546 0.5207,-0.9297 0.5386,-0.904 0.5562,-0.8777 0.5736,-0.8506 0.5906,-0.8226 0.6074,-0.7937 0.6241,-0.7638 0.6405,-0.7324 0.6571,-0.6997 0.6737,-0.6649 0.6907,-0.6278 0.7084,-0.5872 0.7275,-0.5415 0.7494,-0.4867 0.7808,-0.4056 4.3514,-1.6514 -0.4599,-1.2597 -0.4281,-1.2708 -0.3958,-1.2813 -0.3634,-1.2908 -0.3307,-1.2995 -0.2978,-1.3075 -0.2647,-1.3146 -0.2315,-1.3209 -4.5942,0.7455 -0.879,0.0392 -0.8923,-0.0468 -0.9008,-0.1052 -0.9071,-0.1544 -0.9121,-0.1983 -0.9159,-0.239 -0.9188,-0.2774 -0.921,-0.314 -0.9223,-0.3494 -0.9229,-0.3837 -0.9228,-0.4171 -0.922,-0.4498 -0.9206,-0.482 -0.9185,-0.5136 -0.9158,-0.5448 -0.9124,-0.5755 -0.9084,-0.606 -0.9038,-0.636 -0.8987,-0.6658 -0.0161,-0.5848 -0.0115,-0.5848 -0.0068,-0.5849 -0.0023,-0.585 0.0023,-0.585 0.0068,-0.5849 0.0115,-0.5848 0.0161,-0.5848 0.8987,-0.6658 0.9038,-0.636 0.9084,-0.606 0.9124,-0.5755 0.9158,-0.5448 0.9185,-0.5136 0.9206,-0.482 0.922,-0.4498 0.9228,-0.4171 0.9229,-0.3837 0.9223,-0.3494 0.921,-0.314 0.9188,-0.2774 0.9159,-0.239 0.9121,-0.1983 0.9071,-0.1544 0.9008,-0.1052 0.8923,-0.0468 0.879,0.0392 4.5942,0.7455 0.2315,-1.3209 0.2647,-1.3146 0.2978,-1.3075 0.3307,-1.2995 0.3634,-1.2908 0.3958,-1.2813 0.4281,-1.2708 0.4599,-1.2597 -4.3514,-1.6514 -0.7808,-0.4056 -0.7494,-0.4867 -0.7275,-0.5415 -0.7084,-0.5872 -0.6907,-0.6278 -0.6737,-0.6649 -0.6571,-0.6997 -0.6405,-0.7324 -0.6241,-0.7638 -0.6074,-0.7937 -0.5906,-0.8226 -0.5736,-0.8506 -0.5562,-0.8777 -0.5386,-0.904 -0.5207,-0.9297 -0.5024,-0.9546 -0.4838,-0.979 -0.4647,-1.0028 -0.4453,-1.0259 0.2784,-0.5145 0.2825,-0.5122 0.2864,-0.51 0.2905,-0.5077 0.2945,-0.5055 0.2984,-0.5031 0.3024,-0.5007 0.3063,-0.4984 1.1112,-0.1273 1.1007,-0.0989 1.0897,-0.0705 1.078,-0.0422 1.0654,-0.0139 1.0523,0.0144 1.0382,0.0429 1.0234,0.0714 1.0077,0.1002 0.9911,0.1291 0.9735,0.1586 0.9546,0.1885 0.9344,0.2192 0.9127,0.251 0.889,0.2843 0.8628,0.3199 0.8327,0.3593 0.7962,0.4056 0.7416,0.4734 3.6059,2.9427 0.8609,-1.0281 0.8866,-1.0061 0.9117,-0.9834 0.9362,-0.9601 0.9601,-0.9362 0.9834,-0.9117 1.0061,-0.8866 1.0281,-0.8609 -2.9427,-3.6059 -0.4734,-0.7416 -0.4056,-0.7962 -0.3593,-0.8327 -0.3199,-0.8628 -0.2843,-0.889 -0.251,-0.9127 -0.2192,-0.9344 -0.1885,-0.9546 -0.1586,-0.9735 -0.1291,-0.9911 -0.1002,-1.0077 -0.0714,-1.0234 -0.0429,-1.0382 -0.0144,-1.0523 0.0139,-1.0654 0.0422,-1.078 0.0705,-1.0897 0.0989,-1.1007 0.1273,-1.1112 0.4984,-0.3063 0.5007,-0.3024 0.5031,-0.2984 0.5055,-0.2945 0.5077,-0.2905 0.51,-0.2864 0.5122,-0.2825 0.5145,-0.2784 1.0259,0.4453 1.0028,0.4647 0.979,0.4838 0.9546,0.5024 0.9297,0.5207 0.904,0.5386 0.8777,0.5562 0.8506,0.5736 0.8226,0.5906 0.7937,0.6074 0.7638,0.6241 0.7324,0.6405 0.6997,0.6571 0.6649,0.6737 0.6278,0.6907 0.5872,0.7084 0.5415,0.7275 0.4867,0.7494 0.4056,0.7808 1.6514,4.3514 1.2597,-0.4599 1.2708,-0.4281 1.2813,-0.3958 1.2908,-0.3634 1.2995,-0.3307 1.3075,-0.2978 1.3146,-0.2647 1.3209,-0.2315 -0.7455,-4.5942 -0.0392,-0.879 0.0468,-0.8923 0.1052,-0.9008 0.1544,-0.9071 0.1983,-0.9121 0.239,-0.9159 0.2774,-0.9188 0.314,-0.921 0.3494,-0.9223 0.3837,-0.9229 0.4171,-0.9228 0.4498,-0.922 0.482,-0.9206 0.5136,-0.9185 0.5448,-0.9158 0.5755,-0.9124 0.606,-0.9084 0.636,-0.9038 0.6658,-0.8987 0.5848,-0.0161 0.5848,-0.0115 0.5849,-0.007 0.585,-0.002 0.585,0.002 0.5849,0.007 0.5848,0.0115 0.5848,0.0161 0.6658,0.8987 0.636,0.9038 0.606,0.9084 0.5755,0.9124 0.5448,0.9158 0.5136,0.9185 0.482,0.9206 0.4498,0.922 0.4171,0.9228 0.3837,0.9229 0.3494,0.9223 0.314,0.921 0.2774,0.9188 0.239,0.9159 0.1983,0.9121 0.1544,0.9071 0.1052,0.9008 0.0468,0.8923 -0.0392,0.879 -0.7455,4.5942 1.3209,0.2315 1.3146,0.2647 1.3075,0.2978 1.2995,0.3307 1.2908,0.3634 1.2813,0.3958 1.2708,0.4281 1.2597,0.4599 1.6514,-4.3514 0.4056,-0.7808 0.4867,-0.7494 0.5415,-0.7275 0.5872,-0.7084 0.6278,-0.6907 0.6649,-0.6737 0.6997,-0.6571 0.7324,-0.6405 0.7638,-0.6241 0.7937,-0.6074 0.8226,-0.5906 0.8506,-0.5736 0.8777,-0.5562 0.904,-0.5386 0.9297,-0.5207 0.9546,-0.5024 0.979,-0.4838 1.0028,-0.4647 1.0259,-0.4453 0.5145,0.2784 0.5122,0.2825 0.51,0.2864 0.5077,0.2905 0.5055,0.2945 0.5031,0.2984 0.5007,0.3024 0.4984,0.3063 0.1273,1.1112 0.0989,1.1007 0.0705,1.0897 0.0422,1.078 0.0139,1.0654 -0.0144,1.0523 -0.0429,1.0382 -0.0714,1.0234 -0.1002,1.0077 -0.1291,0.9911 -0.1586,0.9735 -0.1885,0.9546 -0.2192,0.9344 -0.251,0.9127 -0.2843,0.889 -0.3199,0.8628 -0.3593,0.8327 -0.4056,0.7962 -0.4734,0.7416 -2.9427,3.6059 1.0281,0.8609 1.0061,0.8866 0.9834,0.9117 0.9601,0.9362 0.9362,0.9601 0.9117,0.9834 0.8866,1.0061 0.8609,1.0281 3.6059,-2.9427 0.7416,-0.4734 0.7962,-0.4056 0.8327,-0.3593 0.8628,-0.3199 0.889,-0.2843 0.9127,-0.251 0.9344,-0.2192 0.9546,-0.1885 0.9735,-0.1586 0.9911,-0.1291 1.0077,-0.1002 1.0234,-0.0714 1.0382,-0.0429 1.0523,-0.0144 1.0654,0.0139 1.078,0.0422 1.0897,0.0705 1.1007,0.0989 1.1112,0.1273 0.3063,0.4984 0.3024,0.5007 0.2984,0.5031 0.2945,0.5055 0.2905,0.5077 0.2864,0.51 0.2825,0.5122 0.2784,0.5145 -0.4453,1.0259 -0.4647,1.0028 -0.4838,0.979 -0.5024,0.9546 -0.5207,0.9297 -0.5386,0.904 -0.5562,0.8777 -0.5736,0.8506 -0.5906,0.8226 -0.6074,0.7937 -0.6241,0.7638 -0.6405,0.7324 -0.6571,0.6997 -0.6737,0.6649 -0.6907,0.6278 -0.7084,0.5872 -0.7275,0.5415 -0.7494,0.4867 -0.7808,0.4056 -4.3514,1.6514 0.4599,1.2597 0.4281,1.2708 0.3958,1.2813 0.3634,1.2908 0.3307,1.2995 0.2978,1.3075 0.2647,1.3146 0.2315,1.3209 z m -25.96511,16.345714 a 31.889764,31.889764 0 0 1 -40.5014,23.383496 l -3.61717,6.265116 a 38.976378,38.976378 0 0 0 51.35291,-29.648612 z m -52.77578,16.296882 a 31.889764,31.889764 0 0 1 0,-46.766992 l -3.61716,-6.265115 a 38.976378,38.976378 0 0 0 0,59.297222 z M 162.2481,-91.0937 a 31.889764,31.889764 0 0 1 40.5014,23.383496 l 7.23434,0 a 38.976378,38.976378 0 0 0 -51.35291,-29.648612 z m 9.40901,48.186645 a 17.716535,17.716535 0 0 0 0,-35.43307 17.716535,17.716535 0 1 0 0,35.43307"
       id="path5285" />
    <path
       style="fill:#999999"
       d="m 345.81554,-9.7416516 c -0.69051,-0.9052934 -2.1226,-3.4622424 -3.18243,-5.6821084 -1.84297,-3.860176 -1.92818,-4.26654 -1.95476,-9.322278 l -0.0278,-5.286164 -3.00267,-0.616673 c -1.65147,-0.339173 -4.00968,-0.976322 -5.24047,-1.415885 -1.2308,-0.439563 -2.39415,-0.624335 -2.58524,-0.410612 -0.19109,0.213723 -0.76288,1.525012 -1.27066,2.913972 -1.27528,3.48834 -5.98655,8.068331 -10.90309,10.599263 l -3.80695,1.959741 -1.71996,-1.009379 -1.71996,-1.009385 0.0225,-6.28027 c 0.0251,-7.023444 0.71934,-9.358235 3.95784,-13.311108 l 1.68815,-2.06054 -4.18192,-4.144479 -4.18193,-4.144484 -1.9353,1.543063 c -4.11707,3.282628 -8.21402,4.473057 -15.39438,4.473057 l -3.92964,0 -1.26084,-1.855484 -1.26083,-1.855483 2.07097,-3.980658 c 2.80924,-5.39972 6.80503,-9.419576 10.87682,-10.942321 l 3.08877,-1.155124 -0.91838,-2.669308 c -0.50511,-1.468125 -1.18742,-3.965293 -1.51625,-5.549273 l -0.59788,-2.87996 -3.68304,0.345129 c -4.40641,0.412915 -7.93667,-0.444745 -12.89668,-3.133185 -4.61321,-2.500476 -5.05076,-2.97897 -5.05076,-5.523469 0,-2.147625 0.0388,-2.195056 3.45584,-4.225084 6.11044,-3.63015 10.65659,-4.747808 15.82237,-3.889896 l 2.35815,0.391632 0.59494,-2.865783 c 0.32721,-1.576181 1.01838,-4.096563 1.53593,-5.600846 l 0.941,-2.735056 -1.36871,-0.51103 c -5.54861,-2.07168 -9.29189,-5.52412 -12.71948,-11.73125 l -1.97991,-3.58547 1.10763,-1.97076 1.10763,-1.97076 6.31533,0.21141 c 6.94686,0.23255 9.46112,0.99005 13.01831,3.92219 1.02351,0.84366 1.99611,1.53393 2.16132,1.53393 0.45287,0 8.05575,-7.6949 8.05575,-8.15325 0,-0.21884 -0.70238,-1.19787 -1.56085,-2.17561 -2.6506,-3.01886 -3.61798,-6.31947 -3.88078,-13.24083 l -0.23331,-6.14457 1.95359,-1.00808 1.95359,-1.00807 3.53553,1.83771 c 4.72525,2.45612 9.90961,7.55471 11.13656,10.95234 0.50157,1.38896 0.96628,2.60109 1.03268,2.69363 0.0664,0.0925 2.62182,-0.46906 5.67874,-1.24798 l 5.55802,-1.41622 -0.25528,-4.30786 c -0.29924,-5.04965 0.59247,-8.19235 3.90798,-13.77319 l 2.0283,-3.41412 2.3961,0 c 2.35077,0 2.42638,0.0502 3.99523,2.65165 3.78845,6.28201 4.42587,8.28665 4.3849,13.7904 l -0.0378,5.07784 4.33094,1.17411 c 6.43308,1.74398 6.5371,1.72842 7.67584,-1.14866 1.78749,-4.51616 5.51298,-8.13752 11.73562,-11.40759 l 2.95868,-1.55483 2.02359,1.13732 2.02359,1.13732 -0.24571,5.80917 c -0.29112,6.88273 -1.23666,10.08762 -3.94206,13.36154 l -1.92409,2.3284 4.08464,4.02472 c 2.24654,2.21359 4.19733,4.02471 4.33508,4.02471 0.13775,0 1.25677,-0.8246 2.48672,-1.83245 3.24212,-2.65667 7.17186,-3.72406 13.6964,-3.72019 l 5.38457,0.003 0.88388,1.55297 c 1.2464,2.18988 1.14675,2.73666 -1.22926,6.74502 -2.93222,4.94669 -7.02505,8.91263 -10.51376,10.18781 -1.85717,0.67883 -2.71889,1.25619 -2.59984,1.74193 1.17227,4.782771 2.6539,10.292885 2.80954,10.448524 0.10807,0.108071 1.41199,-0.02793 2.89759,-0.302263 4.47416,-0.826158 10.41088,0.840942 15.95934,4.481588 2.51089,1.647523 2.65165,1.853993 2.65165,3.889395 0,2.033028 -0.14369,2.244811 -2.65165,3.908119 -1.45841,0.967236 -4.129,2.38795 -5.93465,3.15714 -2.89145,1.231745 -3.87088,1.390945 -8.21239,1.334887 l -4.9294,-0.06364 -0.28609,1.331078 c -0.32356,1.505395 -2.10559,7.744158 -2.52195,8.829152 -0.1921,0.500607 0.52396,0.99096 2.40866,1.649433 3.62605,1.266858 9.14108,6.727682 11.54648,11.432987 l 1.74216,3.407901 -1.01016,1.8954 -1.01015,1.895405 -4.29315,0.148805 c -6.35377,0.220229 -10.90368,-0.935886 -14.52263,-3.690137 l -2.9025,-2.208982 -4.14843,4.108346 -4.14843,4.108341 1.81056,2.209552 c 2.88881,3.525407 3.82652,6.579937 4.09858,13.350762 l 0.23726,5.904857 -1.70269,1.038053 c -2.29165,1.397121 -2.73152,1.339305 -6.48409,-0.852205 -4.98573,-2.911684 -8.91747,-6.883155 -10.37549,-10.480333 -0.67558,-1.666752 -1.51912,-2.991622 -1.87455,-2.94416 -0.35542,0.04748 -2.80543,0.649558 -5.44445,1.337992 l -4.79823,1.2517 -0.0179,4.975456 c -0.0204,5.685159 -0.91088,8.547694 -4.28084,13.761677 -1.88851,2.9218965 -2.09754,3.0830765 -3.99831,3.0830765 -1.67032,0 -2.21549,-0.2751706 -3.26107,-1.6459931 l -10e-6,0 z m 13.07334,-33.9351404 c 7.05683,-1.887333 15.29015,-6.945793 19.62911,-12.059908 4.4427,-5.236388 8.01437,-12.276919 9.07693,-17.892604 l 0.31059,-1.641498 -4.22431,0 -4.22431,0 -0.3278,1.747357 c -0.18029,0.961049 -1.27074,3.631276 -2.42321,5.933838 -6.15182,12.290965 -20.45971,19.165073 -33.9446,16.308407 -1.92538,-0.407874 -3.53915,-0.688035 -3.58615,-0.622577 -0.46262,0.644331 -3.77229,6.544213 -3.77229,6.724575 0,0.408809 2.6425,1.286036 6.06091,2.012017 4.11933,0.874843 13.24669,0.60791 17.42513,-0.509607 z m -32.79997,-11.663585 1.82235,-3.258676 -2.54441,-2.854767 c -10.30913,-11.566585 -10.08945,-30.069599 0.49308,-41.53039 1.08172,-1.17149 1.96676,-2.24904 1.96676,-2.39456 0,-0.54134 -3.80142,-6.74362 -4.13891,-6.75293 -0.7752,-0.0214 -5.74098,5.49451 -7.72128,8.57663 -4.31906,6.722158 -6.30838,13.493473 -6.30632,21.465738 0.002,7.897332 1.73891,14.327983 5.61304,20.781878 1.99741,3.327483 7.90785,9.896616 8.5482,9.500864 0.24482,-0.151316 1.2652,-1.741518 2.26749,-3.533787 z m 30.27889,-10.018435 c 3.88016,-1.776399 7.40127,-5.254445 9.14793,-9.036031 1.26964,-2.748838 1.45173,-3.726201 1.43359,-7.694489 -0.018,-3.947024 -0.2117,-4.940651 -1.47049,-7.544708 -1.84025,-3.806881 -5.08632,-7.060653 -8.76354,-8.784317 -2.51686,-1.179757 -3.50967,-1.348644 -7.92793,-1.348644 -4.78608,0 -5.21668,0.08997 -8.21675,1.716804 -3.7879,2.054045 -6.32809,4.733803 -8.12996,8.576645 -1.1453,2.442574 -1.33096,3.507856 -1.33096,7.636758 0,4.192558 0.17243,5.149303 1.36599,7.579538 2.39177,4.86992 7.18695,8.771968 12.39528,10.086565 3.06992,0.774858 8.41587,0.222391 11.49684,-1.188121 z m 31.56297,-23.349878 c 0,-0.168246 -0.35847,-1.689263 -0.79659,-3.380046 -2.80677,-10.831664 -10.52983,-20.228294 -20.63003,-25.100514 -6.88317,-3.32036 -11.29858,-4.2269 -19.14592,-3.9309 -5.52098,0.20825 -11.95539,1.42506 -11.95539,2.26088 0,0.31958 2.96675,5.66691 3.616,6.51755 0.30768,0.40311 1.15426,0.36818 3.06042,-0.12627 3.501,-0.90815 10.56923,-0.86779 14.30439,0.0817 10.0004,2.54206 18.81634,10.48096 22.01307,19.823131 0.54535,1.593743 1.0882,3.181818 1.20634,3.529058 0.14793,0.434841 1.47735,0.631346 4.27125,0.631346 2.23105,0 4.05646,-0.137654 4.05646,-0.305905 z"
       id="path5314"
       inkscape:connector-curvature="0"
       transform="translate(-177.32879,21.327455)" />
  </g>
</svg>
